<svg width="16.000000" height="12.394379" viewBox="0 0 16 12.3944" fill="none" xmlns="http://www.w3.org/2000/svg" xmlns:xlink="http://www.w3.org/1999/xlink">
	<desc>
			Created with Pixso.
	</desc>
	<mask id="mask1_140" mask-type="alpha" maskUnits="userSpaceOnUse" x="0.000000" y="0.000015" width="16.000000" height="12.394363">
		<rect id="Rectangle 7" y="0.000015" width="16.000000" height="12.394367" fill="#3A3A3A"/>
	</mask>
	<g mask="url(#mask1_140)">
		<path id="Path 1" d="M13.5447 1.10374C12.525 0.635834 11.4314 0.291153 10.2881 0.0937042C10.1475 0.343918 9.93921 0.694885 9.8302 0.951401C8.60034 0.767227 7.37683 0.767227 6.17224 0.951401C6.06323 0.689102 5.90161 0.368591 5.76038 0.118378C4.61755 0.315155 3.47168 0.635147 2.45129 1.10374C0.377075 4.20264 -0.212524 7.24384 0.06604 10.229C1.43457 11.2341 2.78113 11.8816 4.08228 12.286C4.39001 11.8658 4.72058 11.4042 4.95557 10.9383C4.52051 10.7732 4.07849 10.5014 3.67981 10.2729C3.76379 10.21 3.84253 10.0595 3.92261 9.99344C6.54114 11.189 9.42773 11.182 12.0154 9.98647C12.0956 10.0523 12.2317 10.1248 12.3162 10.1878C11.9176 10.4207 11.4988 10.7027 11.063 10.8671C11.3032 11.3325 11.5505 11.8467 11.8527 12.267C13.16 11.8625 14.5419 11.2716 15.9103 10.2665C16.2439 6.81523 15.3516 3.76144 13.5447 1.10374ZM5.3468 8.41132C4.55835 8.41132 3.90881 7.68758 3.90881 6.79872C3.90881 5.90987 4.54578 5.18613 5.3468 5.18613C6.15393 5.18613 6.79736 5.91617 6.78455 6.79872C6.78455 7.68758 6.14758 8.41132 5.3468 8.41132ZM10.6632 8.41132C9.87488 8.41132 9.22522 7.68758 9.22522 6.79872C9.22522 5.90987 9.8623 5.18613 10.6632 5.18613C11.4705 5.18613 12.1138 5.91617 12.1012 6.79872C12.1012 7.68758 11.4705 8.41132 10.6632 8.41132Z" fill-rule="evenodd" fill="#3A3A3A"/>
	</g>
	<defs/>
</svg>
