<svg width="243.743317" height="200.699707" viewBox="0 0 243.743 200.7" fill="none" xmlns="http://www.w3.org/2000/svg" xmlns:xlink="http://www.w3.org/1999/xlink">
	<desc>
			Created with Pixso.
	</desc>
	<mask id="mask1_329" mask-type="alpha" maskUnits="userSpaceOnUse" x="0.000000" y="0.000000" width="243.743317" height="200.699219">
		<rect id="Rectangle 47" width="243.743317" height="200.699341" fill="#C4C4C4"/>
	</mask>
	<g mask="url(#mask1_329)">
		<path id="Path 160" d="M220.061 128.743C216.733 128.743 214.034 131.441 214.034 134.77C214.034 138.098 216.733 140.796 220.061 140.796C223.39 140.796 226.088 138.098 226.088 134.77C226.088 131.441 223.39 128.743 220.061 128.743Z" fill-rule="evenodd" fill="url(#paint_linear_1_330_0)"/>
	</g>
	<g mask="url(#mask1_329)">
		<path id="Path 161" d="M220.024 186.775C207.574 186.775 197.481 189.628 197.481 193.149C197.481 196.669 207.574 199.523 220.024 199.523C232.474 199.523 242.567 196.669 242.567 193.149C242.567 189.628 232.474 186.775 220.024 186.775Z" fill-rule="evenodd" fill="url(#paint_linear_1_331_0)"/>
	</g>
	<g mask="url(#mask1_329)">
		<rect id="Rectangle 45" x="1.176636" y="1.176758" width="155.456757" height="9.201925" fill="url(#paint_linear_1_332_0)"/>
	</g>
	<g mask="url(#mask1_329)">
		<rect id="Rectangle 46" x="1.176636" y="103.414307" width="155.456757" height="9.201915" fill="url(#paint_linear_1_333_0)"/>
	</g>
	<mask id="mask1_335" mask-type="alpha" maskUnits="userSpaceOnUse" x="0.000000" y="0.000000" width="243.743317" height="200.699219">
		<rect id="Rectangle 48" width="243.743317" height="200.699341" fill="#C4C4C4"/>
	</mask>
	<g mask="url(#mask1_335)">
		<path id="Path 162" d="M156.633 0.000244141L1.17664 0.000244141C0.526825 0.000244141 0 0.5271 0 1.17676L0 10.3789C0 11.0286 0.526825 11.5554 1.17664 11.5554L156.633 11.5554C157.283 11.5554 157.81 11.0286 157.81 10.3789L157.81 1.17676C157.81 0.5271 157.283 0.000244141 156.633 0.000244141ZM155.457 9.20215L2.35327 9.20215L2.35327 2.35352L155.457 2.35352L155.457 9.20215Z" fill-rule="evenodd" fill="#1E243A"/>
	</g>
	<g mask="url(#mask1_335)">
		<path id="Path 163" d="M150.22 9.75977C149.57 9.75977 149.043 10.2866 149.043 10.9365L149.043 102.197L8.76706 102.197L8.76706 10.9365C8.76706 10.2866 8.24025 9.75977 7.59042 9.75977C6.94061 9.75977 6.41379 10.2866 6.41379 10.9365L6.41379 103.374C6.41379 104.023 6.94061 104.55 7.59042 104.55L150.22 104.55C150.532 104.55 150.831 104.426 151.052 104.206C151.272 103.985 151.396 103.686 151.396 103.374L151.396 10.9365C151.396 10.2866 150.869 9.75977 150.22 9.75977Z" fill-rule="evenodd" fill="#1E243A"/>
	</g>
	<g mask="url(#mask1_335)">
		<path id="Path 164" d="M141.368 16.845C140.743 16.6689 140.093 17.0327 139.917 17.6582C130.45 51.2385 107.85 53.2646 83.9222 55.4097C71.9888 56.4795 59.6491 57.5857 48.2469 62.5095C35.2893 68.105 25.4902 77.9475 18.2893 92.5996C18.0027 93.1829 18.2432 93.8882 18.8263 94.1746C18.9933 94.2566 19.1702 94.2957 19.3444 94.2957C19.7789 94.2957 20.1967 94.054 20.4013 93.6377C35.9122 62.0764 60.4258 59.8789 84.1323 57.7534C96.6131 56.6345 108.402 55.5779 118.596 50.3926C124.116 47.5854 128.637 43.8311 132.42 38.915C136.614 33.4626 139.808 26.7185 142.182 18.2966C142.358 17.6711 141.994 17.0212 141.368 16.845Z" fill-rule="evenodd" fill="#1E243A"/>
	</g>
	<g mask="url(#mask1_335)">
		<path id="Path 165" d="M28.0038 51.3179L24.5536 54.7681C24.094 55.2273 24.094 55.9724 24.5536 56.4319C24.7834 56.6619 25.0845 56.7766 25.3855 56.7766C25.6867 56.7766 25.9878 56.6619 26.2176 56.4319L29.6677 52.9817C30.1274 52.5225 30.1274 51.7773 29.6677 51.3179C29.2083 50.8582 28.4633 50.8582 28.0038 51.3179Z" fill-rule="evenodd" fill="#1E243A"/>
	</g>
	<g mask="url(#mask1_335)">
		<path id="Path 166" d="M26.2176 51.3179C25.7581 50.8582 25.0131 50.8582 24.5537 51.3179C24.094 51.7773 24.094 52.5225 24.5537 52.9817L28.0038 56.4319C28.2336 56.6619 28.5347 56.7766 28.8359 56.7766C29.1369 56.7766 29.438 56.6619 29.6678 56.4319C30.1273 55.9724 30.1273 55.2273 29.6678 54.7681L26.2176 51.3179Z" fill-rule="evenodd" fill="#1E243A"/>
	</g>
	<g mask="url(#mask1_335)">
		<path id="Path 167" d="M127.96 66.6528L124.51 70.103C124.05 70.5623 124.05 71.3074 124.51 71.7668C124.739 71.9968 125.04 72.1116 125.342 72.1116C125.643 72.1116 125.944 71.9968 126.174 71.7668L129.624 68.3167C130.083 67.8574 130.083 67.1123 129.624 66.6528C129.164 66.1934 128.419 66.1934 127.96 66.6528Z" fill-rule="evenodd" fill="#1E243A"/>
	</g>
	<g mask="url(#mask1_335)">
		<path id="Path 168" d="M126.174 66.6528C125.714 66.1934 124.969 66.1934 124.51 66.6528C124.05 67.1123 124.05 67.8574 124.51 68.3167L127.96 71.7668C128.19 71.9968 128.491 72.1116 128.792 72.1116C129.093 72.1116 129.394 71.9968 129.624 71.7668C130.083 71.3074 130.083 70.5623 129.624 70.103L126.174 66.6528Z" fill-rule="evenodd" fill="#1E243A"/>
	</g>
	<g mask="url(#mask1_335)">
		<path id="Path 169" d="M77.644 32.5054C75.5874 32.5054 73.9142 34.1785 73.9142 36.2351C73.9142 38.2915 75.5874 39.9648 77.644 39.9648C79.7006 39.9648 81.3737 38.2915 81.3737 36.2351C81.3737 34.1785 79.7006 32.5054 77.644 32.5054ZM77.644 37.6116C76.885 37.6116 76.2675 36.9939 76.2675 36.2351C76.2675 35.4761 76.885 34.8586 77.644 34.8586C78.403 34.8586 79.0205 35.4761 79.0205 36.2351C79.0205 36.9939 78.403 37.6116 77.644 37.6116Z" fill-rule="evenodd" fill="#1E243A"/>
	</g>
	<g mask="url(#mask1_335)">
		<path id="Path 170" d="M65.5923 69.7585C63.5357 69.7585 61.8626 71.4316 61.8626 73.4883C61.8626 75.5449 63.5357 77.218 65.5923 77.218C67.649 77.218 69.3221 75.5449 69.3221 73.4883C69.3221 71.4316 67.649 69.7585 65.5923 69.7585ZM65.5923 74.8647C64.8333 74.8647 64.2158 74.2473 64.2158 73.4883C64.2158 72.7292 64.8333 72.1118 65.5923 72.1118C66.3513 72.1118 66.9689 72.7292 66.9689 73.4883C66.9689 74.2473 66.3513 74.8647 65.5923 74.8647Z" fill-rule="evenodd" fill="#1E243A"/>
	</g>
	<g mask="url(#mask1_335)">
		<path id="Path 171" d="M156.633 102.197L1.17664 102.197C0.526825 102.197 0 102.724 0 103.374L0 112.575C0 113.225 0.526825 113.752 1.17664 113.752L156.633 113.752C157.283 113.752 157.81 113.225 157.81 112.575L157.81 103.374C157.81 102.724 157.283 102.197 156.633 102.197ZM155.457 111.399L2.35327 111.399L2.35327 104.55L155.457 104.55L155.457 111.399Z" fill-rule="evenodd" fill="#1E243A"/>
	</g>
	<g mask="url(#mask1_335)">
		<path id="Path 172" d="M220.024 185.598C208.237 185.598 196.304 188.192 196.304 193.149C196.304 198.106 208.237 200.7 220.024 200.7C231.811 200.7 243.743 198.106 243.743 193.149C243.743 188.192 231.811 185.598 220.024 185.598ZM235.644 196.524C231.487 197.699 225.94 198.346 220.024 198.346C214.108 198.346 208.56 197.699 204.404 196.524C199.868 195.241 198.658 193.799 198.658 193.149C198.658 192.499 199.868 191.057 204.404 189.774C208.56 188.599 214.108 187.951 220.024 187.951C225.94 187.951 231.487 188.599 235.644 189.774C240.18 191.057 241.39 192.499 241.39 193.149C241.39 193.799 240.18 195.241 235.644 196.524Z" fill-rule="evenodd" fill="#1E243A"/>
	</g>
	<g mask="url(#mask1_335)">
		<path id="Path 173" d="M220.018 139.706C219.368 139.706 218.842 140.233 218.842 140.883L218.842 193.125C218.842 193.775 219.368 194.302 220.018 194.302C220.668 194.302 221.195 193.775 221.195 193.125L221.195 140.883C221.195 140.233 220.668 139.706 220.018 139.706Z" fill-rule="evenodd" fill="#1E243A"/>
	</g>
	<g mask="url(#mask1_335)">
		<path id="Path 174" d="M220.062 127.566C216.09 127.566 212.858 130.797 212.858 134.77C212.858 138.741 216.09 141.973 220.062 141.973C224.033 141.973 227.265 138.741 227.265 134.77C227.265 130.797 224.033 127.566 220.062 127.566ZM220.062 139.62C217.387 139.62 215.211 137.444 215.211 134.77C215.211 132.095 217.387 129.919 220.062 129.919C222.736 129.919 224.912 132.095 224.912 134.77C224.912 137.444 222.736 139.62 220.062 139.62Z" fill-rule="evenodd" fill="#1E243A"/>
	</g>
	<g mask="url(#mask1_335)">
		<path id="Path 175" d="M76.7826 120.095C76.1328 120.095 75.6059 120.622 75.6059 121.272L75.6059 124.096C75.6059 124.746 76.1328 125.273 76.7826 125.273C77.4324 125.273 77.9592 124.746 77.9592 124.096L77.9592 121.272C77.9592 120.622 77.4324 120.095 76.7826 120.095Z" fill-rule="evenodd" fill="#1E243A"/>
	</g>
	<g mask="url(#mask1_335)">
		<path id="Path 176" d="M76.7826 165.278C76.1328 165.278 75.6059 165.805 75.6059 166.455L75.6059 171.632C75.6059 172.282 76.1328 172.809 76.7826 172.809C77.4324 172.809 77.9592 172.282 77.9592 171.632L77.9592 166.455C77.9592 165.805 77.4324 165.278 76.7826 165.278Z" fill-rule="evenodd" fill="#1E243A"/>
	</g>
	<g mask="url(#mask1_335)">
		<path id="Path 177" d="M76.7826 177.201C76.1328 177.201 75.6059 177.728 75.6059 178.378L75.6059 183.555C75.6059 184.205 76.1328 184.732 76.7826 184.732C77.4324 184.732 77.9592 184.205 77.9592 183.555L77.9592 178.378C77.9592 177.728 77.4324 177.201 76.7826 177.201Z" fill-rule="evenodd" fill="#1E243A"/>
	</g>
	<g mask="url(#mask1_335)">
		<path id="Path 178" d="M76.7826 141.432C76.1328 141.432 75.6059 141.958 75.6059 142.608L75.6059 147.785C75.6059 148.435 76.1328 148.962 76.7826 148.962C77.4324 148.962 77.9592 148.435 77.9592 147.785L77.9592 142.608C77.9592 141.958 77.4324 141.432 76.7826 141.432Z" fill-rule="evenodd" fill="#1E243A"/>
	</g>
	<g mask="url(#mask1_335)">
		<path id="Path 179" d="M76.7826 129.509C76.1328 129.509 75.6059 130.035 75.6059 130.685L75.6059 135.862C75.6059 136.512 76.1328 137.039 76.7826 137.039C77.4324 137.039 77.9592 136.512 77.9592 135.862L77.9592 130.685C77.9592 130.035 77.4324 129.509 76.7826 129.509Z" fill-rule="evenodd" fill="#1E243A"/>
	</g>
	<g mask="url(#mask1_335)">
		<path id="Path 180" d="M76.7826 153.355C76.1328 153.355 75.6059 153.882 75.6059 154.531L75.6059 159.708C75.6059 160.358 76.1328 160.885 76.7826 160.885C77.4324 160.885 77.9592 160.358 77.9592 159.708L77.9592 154.531C77.9592 153.882 77.4324 153.355 76.7826 153.355Z" fill-rule="evenodd" fill="#1E243A"/>
	</g>
	<g mask="url(#mask1_335)">
		<path id="Path 181" d="M79.528 192.027L77.9592 192.027L77.9592 190.458C77.9592 189.808 77.4323 189.281 76.7826 189.281C76.1327 189.281 75.6059 189.808 75.6059 190.458L75.6059 193.204C75.6059 193.854 76.1327 194.38 76.7826 194.38L79.528 194.38C80.1778 194.38 80.7047 193.854 80.7047 193.204C80.7047 192.554 80.1778 192.027 79.528 192.027Z" fill-rule="evenodd" fill="#1E243A"/>
	</g>
	<g mask="url(#mask1_335)">
		<path id="Path 182" d="M129.731 192.027L124.24 192.027C123.59 192.027 123.064 192.554 123.064 193.204C123.064 193.854 123.59 194.38 124.24 194.38L129.731 194.38C130.381 194.38 130.908 193.854 130.908 193.204C130.908 192.554 130.381 192.027 129.731 192.027Z" fill-rule="evenodd" fill="#1E243A"/>
	</g>
	<g mask="url(#mask1_335)">
		<path id="Path 183" d="M117.18 192.027L111.689 192.027C111.04 192.027 110.513 192.554 110.513 193.204C110.513 193.854 111.04 194.38 111.689 194.38L117.18 194.38C117.83 194.38 118.357 193.854 118.357 193.204C118.357 192.554 117.83 192.027 117.18 192.027Z" fill-rule="evenodd" fill="#1E243A"/>
	</g>
	<g mask="url(#mask1_335)">
		<path id="Path 184" d="M92.0788 192.027L86.5879 192.027C85.938 192.027 85.4112 192.554 85.4112 193.204C85.4112 193.854 85.938 194.38 86.5879 194.38L92.0788 194.38C92.7286 194.38 93.2554 193.854 93.2554 193.204C93.2554 192.554 92.7286 192.027 92.0788 192.027Z" fill-rule="evenodd" fill="#1E243A"/>
	</g>
	<g mask="url(#mask1_335)">
		<path id="Path 185" d="M104.63 192.027L99.1386 192.027C98.4887 192.027 97.9619 192.554 97.9619 193.204C97.9619 193.854 98.4887 194.38 99.1386 194.38L104.63 194.38C105.279 194.38 105.806 193.854 105.806 193.204C105.806 192.554 105.279 192.027 104.63 192.027Z" fill-rule="evenodd" fill="#1E243A"/>
	</g>
	<g mask="url(#mask1_335)">
		<path id="Path 186" d="M167.383 192.027L161.893 192.027C161.243 192.027 160.716 192.554 160.716 193.204C160.716 193.854 161.243 194.38 161.893 194.38L167.383 194.38C168.033 194.38 168.56 193.854 168.56 193.204C168.56 192.554 168.033 192.027 167.383 192.027Z" fill-rule="evenodd" fill="#1E243A"/>
	</g>
	<g mask="url(#mask1_335)">
		<path id="Path 187" d="M179.934 192.027L174.443 192.027C173.793 192.027 173.267 192.554 173.267 193.204C173.267 193.854 173.793 194.38 174.443 194.38L179.934 194.38C180.584 194.38 181.111 193.854 181.111 193.204C181.111 192.554 180.584 192.027 179.934 192.027Z" fill-rule="evenodd" fill="#1E243A"/>
	</g>
	<g mask="url(#mask1_335)">
		<path id="Path 188" d="M142.282 192.027L136.791 192.027C136.141 192.027 135.614 192.554 135.614 193.204C135.614 193.854 136.141 194.38 136.791 194.38L142.282 194.38C142.932 194.38 143.459 193.854 143.459 193.204C143.459 192.554 142.932 192.027 142.282 192.027Z" fill-rule="evenodd" fill="#1E243A"/>
	</g>
	<g mask="url(#mask1_335)">
		<path id="Path 189" d="M154.833 192.027L149.342 192.027C148.692 192.027 148.165 192.554 148.165 193.204C148.165 193.854 148.692 194.38 149.342 194.38L154.833 194.38C155.482 194.38 156.009 193.854 156.009 193.204C156.009 192.554 155.482 192.027 154.833 192.027Z" fill-rule="evenodd" fill="#1E243A"/>
	</g>
	<g mask="url(#mask1_335)">
		<path id="Path 190" d="M190.446 192.027L187.622 192.027C186.972 192.027 186.445 192.554 186.445 193.204C186.445 193.854 186.972 194.38 187.622 194.38L190.446 194.38C191.095 194.38 191.622 193.854 191.622 193.204C191.622 192.554 191.095 192.027 190.446 192.027Z" fill-rule="evenodd" fill="#1E243A"/>
	</g>
	<g mask="url(#mask1_335)">
		<path id="Path 191" d="M7.23035 132.755C6.44592 132.389 5.51089 132.728 5.14536 133.512C4.77824 134.298 5.11711 135.232 5.90154 135.597C6.11647 135.698 6.34238 135.746 6.56516 135.746C7.15662 135.746 7.72141 135.411 7.9881 134.841C8.35365 134.055 8.01477 133.122 7.23035 132.755Z" fill-rule="evenodd" fill="#1E243A"/>
	</g>
	<g mask="url(#mask1_335)">
		<path id="Path 192" d="M2.85484 128.536C2.01236 128.735 1.48994 129.579 1.68918 130.423C1.85861 131.145 2.50342 131.633 3.2141 131.633C3.33334 131.633 3.45413 131.619 3.57651 131.59C4.41898 131.391 4.94141 130.545 4.74216 129.701C4.54292 128.859 3.69888 128.336 2.85484 128.536Z" fill-rule="evenodd" fill="#1E243A"/>
	</g>
	<g mask="url(#mask1_335)">
		<path id="Path 193" d="M13.8038 126.316C14.16 126.316 14.5177 126.195 14.8126 125.947C15.4747 125.39 15.5609 124.4 15.004 123.737C14.4471 123.073 13.4571 122.989 12.7935 123.545C12.1299 124.103 12.0436 125.092 12.6021 125.756C12.9112 126.125 13.3567 126.316 13.8038 126.316Z" fill-rule="evenodd" fill="#1E243A"/>
	</g>
	<g mask="url(#mask1_335)">
		<path id="Path 194" d="M3.39137 126.114C3.68004 126.341 4.02362 126.452 4.36406 126.452C4.82687 126.452 5.28497 126.249 5.59561 125.858C6.13216 125.178 6.01762 124.192 5.33832 123.654C4.65901 123.115 3.6722 123.23 3.13565 123.909C2.59753 124.589 2.71207 125.575 3.39137 126.114Z" fill-rule="evenodd" fill="#1E243A"/>
	</g>
	<g mask="url(#mask1_335)">
		<path id="Path 195" d="M15.4182 128.354C14.5694 128.178 13.7395 128.726 13.5654 129.574C13.3912 130.423 13.9372 131.253 14.7859 131.427C14.8926 131.449 14.9993 131.458 15.1028 131.458C15.8323 131.458 16.4865 130.947 16.6387 130.205C16.8129 129.356 16.2669 128.528 15.4182 128.354Z" fill-rule="evenodd" fill="#1E243A"/>
	</g>
	<g mask="url(#mask1_335)">
		<path id="Path 196" d="M11.1666 132.698C10.3932 133.087 10.0809 134.03 10.47 134.805C10.7461 135.352 11.2984 135.669 11.8726 135.669C12.1095 135.669 12.3511 135.614 12.577 135.501C13.3504 135.112 13.6626 134.168 13.2736 133.394C12.8845 132.621 11.94 132.309 11.1666 132.698Z" fill-rule="evenodd" fill="#1E243A"/>
	</g>
	<g mask="url(#mask1_335)">
		<path id="Path 197" d="M9.13965 121.004C8.27365 121.004 7.5708 121.705 7.5708 122.573C7.5708 123.439 8.27365 124.142 9.13965 124.142C10.0056 124.142 10.7085 123.439 10.7085 122.573C10.7085 121.705 10.0056 121.004 9.13965 121.004Z" fill-rule="evenodd" fill="#1E243A"/>
	</g>
	<g mask="url(#mask1_335)">
		<path id="Path 198" d="M47.043 190.088C46.2005 190.287 45.6781 191.131 45.8773 191.975C46.0484 192.697 46.6915 193.183 47.4023 193.183C47.5215 193.183 47.6439 193.17 47.7646 193.141C48.6071 192.941 49.1295 192.097 48.9303 191.253C48.7326 190.411 47.887 189.889 47.043 190.088Z" fill-rule="evenodd" fill="#1E243A"/>
	</g>
	<g mask="url(#mask1_335)">
		<path id="Path 199" d="M47.5795 187.666C47.8682 187.893 48.2118 188.004 48.5522 188.004C49.015 188.004 49.4731 187.801 49.7838 187.41C50.3219 186.73 50.2058 185.744 49.528 185.206C48.8487 184.667 47.8619 184.782 47.3239 185.461C46.7857 186.141 46.9002 187.127 47.5795 187.666Z" fill-rule="evenodd" fill="#1E243A"/>
	</g>
	<g mask="url(#mask1_335)">
		<path id="Path 200" d="M51.4185 194.307C50.6341 193.941 49.7006 194.28 49.3335 195.064C48.9664 195.849 49.3053 196.784 50.0913 197.149C50.3062 197.25 50.5321 197.298 50.7533 197.298C51.3448 197.298 51.9096 196.963 52.1763 196.393C52.5434 195.607 52.2045 194.674 51.4185 194.307Z" fill-rule="evenodd" fill="#1E243A"/>
	</g>
	<g mask="url(#mask1_335)">
		<path id="Path 201" d="M57.9919 187.868C58.3481 187.868 58.7058 187.747 59.0007 187.499C59.6628 186.942 59.7491 185.952 59.1921 185.29C58.6352 184.625 57.6452 184.54 56.9816 185.097C56.318 185.654 56.2333 186.644 56.7902 187.308C57.1009 187.676 57.5448 187.868 57.9919 187.868Z" fill-rule="evenodd" fill="#1E243A"/>
	</g>
	<g mask="url(#mask1_335)">
		<path id="Path 202" d="M59.6063 189.906C58.7576 189.73 57.9276 190.278 57.7535 191.126C57.5793 191.975 58.1253 192.805 58.9756 192.979C59.0807 193.001 59.1874 193.01 59.2925 193.01C60.0205 193.01 60.6747 192.499 60.8269 191.757C61.001 190.908 60.455 190.08 59.6063 189.906Z" fill-rule="evenodd" fill="#1E243A"/>
	</g>
	<g mask="url(#mask1_335)">
		<path id="Path 203" d="M53.3278 182.556C52.4618 182.556 51.7589 183.257 51.7589 184.125C51.7589 184.991 52.4618 185.694 53.3278 185.694C54.1954 185.694 54.8966 184.991 54.8966 184.125C54.8966 183.257 54.1954 182.556 53.3278 182.556Z" fill-rule="evenodd" fill="#1E243A"/>
	</g>
	<g mask="url(#mask1_335)">
		<path id="Path 204" d="M55.3547 194.25C54.5813 194.639 54.2691 195.582 54.6581 196.357C54.9343 196.905 55.4881 197.222 56.0622 197.222C56.2992 197.222 56.5392 197.167 56.7651 197.054C57.5385 196.663 57.8508 195.72 57.4617 194.947C57.0726 194.173 56.1297 193.861 55.3547 194.25Z" fill-rule="evenodd" fill="#1E243A"/>
	</g>
	<g mask="url(#mask1_335)">
		<path id="Path 205" d="M94.896 128.619C94.0519 128.818 93.5295 129.664 93.7288 130.506C93.8997 131.228 94.5429 131.716 95.2552 131.716C95.3745 131.716 95.4953 131.702 95.6161 131.674C96.4601 131.474 96.9809 130.629 96.7833 129.786C96.5841 128.942 95.7384 128.42 94.896 128.619Z" fill-rule="evenodd" fill="#1E243A"/>
	</g>
	<g mask="url(#mask1_335)">
		<path id="Path 206" d="M95.4309 126.197C95.7196 126.426 96.0632 126.536 96.4037 126.536C96.8665 126.536 97.3261 126.332 97.6352 125.941C98.1733 125.262 98.0587 124.275 97.3795 123.737C96.7001 123.198 95.7133 123.313 95.1753 123.992C94.6371 124.672 94.7516 125.658 95.4309 126.197Z" fill-rule="evenodd" fill="#1E243A"/>
	</g>
	<g mask="url(#mask1_335)">
		<path id="Path 207" d="M99.2715 132.839C98.4855 132.472 97.552 132.811 97.1849 133.597C96.8178 134.381 97.1582 135.315 97.9427 135.682C98.1576 135.782 98.3835 135.829 98.6063 135.829C99.1961 135.829 99.761 135.495 100.028 134.924C100.395 134.14 100.056 133.206 99.2715 132.839Z" fill-rule="evenodd" fill="#1E243A"/>
	</g>
	<g mask="url(#mask1_335)">
		<path id="Path 208" d="M105.845 126.399C106.2 126.399 106.559 126.278 106.852 126.032C107.516 125.475 107.602 124.485 107.045 123.821C106.487 123.158 105.498 123.072 104.835 123.628C104.171 124.185 104.085 125.175 104.642 125.839C104.952 126.209 105.396 126.399 105.845 126.399Z" fill-rule="evenodd" fill="#1E243A"/>
	</g>
	<g mask="url(#mask1_335)">
		<path id="Path 209" d="M107.458 128.437C106.609 128.263 105.779 128.809 105.605 129.658C105.431 130.506 105.978 131.336 106.827 131.51C106.934 131.532 107.039 131.543 107.144 131.543C107.874 131.543 108.526 131.032 108.678 130.29C108.853 129.441 108.307 128.611 107.458 128.437Z" fill-rule="evenodd" fill="#1E243A"/>
	</g>
	<g mask="url(#mask1_335)">
		<path id="Path 210" d="M101.181 121.087C100.313 121.087 99.6119 121.79 99.6119 122.656C99.6119 123.522 100.313 124.225 101.181 124.225C102.047 124.225 102.75 123.522 102.75 122.656C102.75 121.79 102.047 121.087 101.181 121.087Z" fill-rule="evenodd" fill="#1E243A"/>
	</g>
	<g mask="url(#mask1_335)">
		<path id="Path 211" d="M103.208 132.781C102.433 133.172 102.121 134.115 102.511 134.888C102.786 135.436 103.34 135.752 103.914 135.752C104.151 135.752 104.391 135.699 104.617 135.585C105.392 135.196 105.702 134.253 105.313 133.478C104.924 132.704 103.981 132.392 103.208 132.781Z" fill-rule="evenodd" fill="#1E243A"/>
	</g>
	<g mask="url(#mask1_335)">
		<path id="Path 212" d="M174.457 172.451C173.614 172.649 173.092 173.494 173.291 174.338C173.461 175.06 174.105 175.546 174.816 175.546C174.936 175.546 175.056 175.532 175.179 175.504C176.021 175.305 176.544 174.461 176.344 173.617C176.145 172.772 175.301 172.251 174.457 172.451Z" fill-rule="evenodd" fill="#1E243A"/>
	</g>
	<g mask="url(#mask1_335)">
		<path id="Path 213" d="M185.406 170.229C185.762 170.229 186.12 170.108 186.415 169.862C187.077 169.305 187.163 168.315 186.606 167.652C186.049 166.988 185.059 166.902 184.396 167.46C183.732 168.017 183.647 169.007 184.204 169.669C184.515 170.039 184.959 170.229 185.406 170.229Z" fill-rule="evenodd" fill="#1E243A"/>
	</g>
	<g mask="url(#mask1_335)">
		<path id="Path 214" d="M174.993 170.029C175.281 170.256 175.624 170.368 175.966 170.368C176.429 170.368 176.887 170.164 177.198 169.771C177.736 169.092 177.621 168.105 176.94 167.569C176.261 167.031 175.274 167.145 174.738 167.824C174.2 168.504 174.314 169.491 174.993 170.029Z" fill-rule="evenodd" fill="#1E243A"/>
	</g>
	<g mask="url(#mask1_335)">
		<path id="Path 215" d="M178.832 176.669C178.048 176.302 177.115 176.642 176.747 177.427C176.38 178.212 176.719 179.145 177.505 179.512C177.719 179.613 177.945 179.66 178.167 179.66C178.759 179.66 179.323 179.326 179.59 178.755C179.957 177.97 179.618 177.037 178.832 176.669Z" fill-rule="evenodd" fill="#1E243A"/>
	</g>
	<g mask="url(#mask1_335)">
		<path id="Path 216" d="M180.742 164.917C179.876 164.917 179.173 165.62 179.173 166.486C179.173 167.354 179.876 168.055 180.742 168.055C181.608 168.055 182.311 167.354 182.311 166.486C182.311 165.62 181.608 164.917 180.742 164.917Z" fill-rule="evenodd" fill="#1E243A"/>
	</g>
	<g mask="url(#mask1_335)">
		<path id="Path 217" d="M187.02 172.268C186.172 172.094 185.342 172.641 185.167 173.49C184.993 174.339 185.539 175.167 186.388 175.341C186.495 175.363 186.601 175.374 186.707 175.374C187.435 175.374 188.089 174.863 188.241 174.121C188.415 173.272 187.869 172.442 187.02 172.268Z" fill-rule="evenodd" fill="#1E243A"/>
	</g>
	<g mask="url(#mask1_335)">
		<path id="Path 218" d="M182.769 176.613C181.995 177.002 181.683 177.945 182.072 178.719C182.348 179.268 182.9 179.583 183.475 179.583C183.712 179.583 183.953 179.53 184.179 179.415C184.952 179.026 185.265 178.083 184.876 177.31C184.486 176.535 183.542 176.223 182.769 176.613Z" fill-rule="evenodd" fill="#1E243A"/>
	</g>
	<g mask="url(#mask1_335)">
		<path id="Path 219" d="M212.669 62.6787C211.825 62.8779 211.303 63.7234 211.502 64.5659C211.673 65.2891 212.316 65.7756 213.028 65.7756C213.148 65.7756 213.269 65.7615 213.389 65.7332C214.234 65.5339 214.756 64.6882 214.557 63.8459C214.357 63.0017 213.512 62.4795 212.669 62.6787Z" fill-rule="evenodd" fill="#1E243A"/>
	</g>
	<g mask="url(#mask1_335)">
		<path id="Path 220" d="M217.045 66.8989C216.259 66.532 215.325 66.8708 214.96 67.6567C214.593 68.4414 214.932 69.3748 215.716 69.7417C215.931 69.8423 216.157 69.8892 216.38 69.8892C216.97 69.8892 217.536 69.5552 217.801 68.9841C218.168 68.1997 217.829 67.2661 217.045 66.8989Z" fill-rule="evenodd" fill="#1E243A"/>
	</g>
	<g mask="url(#mask1_335)">
		<path id="Path 221" d="M223.618 60.4585C223.975 60.4585 224.332 60.3379 224.625 60.0916C225.289 59.5347 225.375 58.5447 224.819 57.8809C224.261 57.2173 223.272 57.1311 222.608 57.688C221.944 58.2466 221.858 59.2349 222.415 59.8984C222.726 60.2688 223.17 60.4585 223.618 60.4585Z" fill-rule="evenodd" fill="#1E243A"/>
	</g>
	<g mask="url(#mask1_335)">
		<path id="Path 222" d="M213.206 60.2563C213.493 60.4854 213.837 60.5952 214.179 60.5952C214.641 60.5952 215.1 60.3911 215.409 60.0005C215.947 59.321 215.832 58.3345 215.153 57.7964C214.474 57.2583 213.487 57.3743 212.949 58.0537C212.41 58.7329 212.525 59.7183 213.206 60.2563Z" fill-rule="evenodd" fill="#1E243A"/>
	</g>
	<g mask="url(#mask1_335)">
		<path id="Path 223" d="M218.954 55.1467C218.086 55.1467 217.385 55.8496 217.385 56.7156C217.385 57.5815 218.086 58.2844 218.954 58.2844C219.82 58.2844 220.523 57.5815 220.523 56.7156C220.523 55.8496 219.82 55.1467 218.954 55.1467Z" fill-rule="evenodd" fill="#1E243A"/>
	</g>
	<g mask="url(#mask1_335)">
		<path id="Path 224" d="M225.231 62.4968C224.382 62.3228 223.554 62.8704 223.38 63.719C223.204 64.5679 223.752 65.396 224.6 65.5703C224.707 65.5923 224.812 65.6033 224.917 65.6033C225.647 65.6033 226.301 65.0918 226.453 64.3496C226.627 63.501 226.08 62.6709 225.231 62.4968Z" fill-rule="evenodd" fill="#1E243A"/>
	</g>
	<g mask="url(#mask1_335)">
		<path id="Path 225" d="M220.981 66.8425C220.206 67.2314 219.896 68.1743 220.284 68.9478C220.559 69.4971 221.113 69.8123 221.687 69.8123C221.924 69.8123 222.164 69.759 222.391 69.6445C223.165 69.2554 223.477 68.3125 223.086 67.5391C222.697 66.7639 221.755 66.4519 220.981 66.8425Z" fill-rule="evenodd" fill="#1E243A"/>
	</g>
	<g mask="url(#mask1_335)">
		<path id="Path 226" d="M49.3277 139.549C48.6779 139.549 48.1511 140.076 48.1511 140.726L48.1511 148.727C48.1511 149.377 48.6779 149.904 49.3277 149.904C49.9775 149.904 50.5043 149.377 50.5043 148.727L50.5043 140.726C50.5043 140.076 49.9775 139.549 49.3277 139.549Z" fill-rule="evenodd" fill="#1E243A"/>
	</g>
	<g mask="url(#mask1_335)">
		<path id="Path 227" d="M53.3283 143.55L45.3272 143.55C44.6773 143.55 44.1505 144.077 44.1505 144.727C44.1505 145.376 44.6773 145.903 45.3272 145.903L53.3283 145.903C53.9781 145.903 54.5049 145.376 54.5049 144.727C54.5049 144.077 53.9781 143.55 53.3283 143.55Z" fill-rule="evenodd" fill="#1E243A"/>
	</g>
	<g mask="url(#mask1_335)">
		<path id="Path 228" d="M111.14 171.397C110.491 171.397 109.964 171.924 109.964 172.573L109.964 180.575C109.964 181.224 110.491 181.751 111.14 181.751C111.79 181.751 112.317 181.224 112.317 180.575L112.317 172.573C112.317 171.924 111.79 171.397 111.14 171.397Z" fill-rule="evenodd" fill="#1E243A"/>
	</g>
	<g mask="url(#mask1_335)">
		<path id="Path 229" d="M115.141 175.397L107.14 175.397C106.49 175.397 105.963 175.924 105.963 176.574C105.963 177.224 106.49 177.75 107.14 177.75L115.141 177.75C115.791 177.75 116.317 177.224 116.317 176.574C116.317 175.924 115.791 175.397 115.141 175.397Z" fill-rule="evenodd" fill="#1E243A"/>
	</g>
	<g mask="url(#mask1_335)">
		<path id="Path 230" d="M185.817 102.838C185.168 102.838 184.641 103.365 184.641 104.015L184.641 112.016C184.641 112.666 185.168 113.193 185.817 113.193C186.467 113.193 186.994 112.666 186.994 112.016L186.994 104.015C186.994 103.365 186.467 102.838 185.817 102.838Z" fill-rule="evenodd" fill="#1E243A"/>
	</g>
	<g mask="url(#mask1_335)">
		<path id="Path 231" d="M189.818 106.839L181.817 106.839C181.167 106.839 180.64 107.366 180.64 108.016C180.64 108.665 181.167 109.192 181.817 109.192L189.818 109.192C190.468 109.192 190.995 108.665 190.995 108.016C190.995 107.366 190.468 106.839 189.818 106.839Z" fill-rule="evenodd" fill="#1E243A"/>
	</g>
	<g mask="url(#mask1_335)">
		<path id="Path 232" d="M180.326 18.5911C179.677 18.5911 179.15 19.1179 179.15 19.7676L179.15 27.7688C179.15 28.4187 179.677 28.9456 180.326 28.9456C180.976 28.9456 181.503 28.4187 181.503 27.7688L181.503 19.7676C181.503 19.1179 180.976 18.5911 180.326 18.5911Z" fill-rule="evenodd" fill="#1E243A"/>
	</g>
	<g mask="url(#mask1_335)">
		<path id="Path 233" d="M184.327 22.5913L176.326 22.5913C175.676 22.5913 175.149 23.1182 175.149 23.7681C175.149 24.4177 175.676 24.9446 176.326 24.9446L184.327 24.9446C184.977 24.9446 185.504 24.4177 185.504 23.7681C185.504 23.1182 184.977 22.5913 184.327 22.5913Z" fill-rule="evenodd" fill="#1E243A"/>
	</g>
	<defs>
		<linearGradient id="paint_linear_1_330_0" x1="220.061188" y1="128.742676" x2="220.061188" y2="140.796448" gradientUnits="userSpaceOnUse">
			<stop stop-color="#52D25F"/>
			<stop offset="1.000000" stop-color="#58B262"/>
		</linearGradient>
		<linearGradient id="paint_linear_1_331_0" x1="220.023773" y1="186.774902" x2="220.023773" y2="199.523071" gradientUnits="userSpaceOnUse">
			<stop stop-color="#52D25F"/>
			<stop offset="1.000000" stop-color="#58B262"/>
		</linearGradient>
		<linearGradient id="paint_linear_1_332_0" x1="78.905014" y1="1.176758" x2="78.905014" y2="10.378683" gradientUnits="userSpaceOnUse">
			<stop stop-color="#52D25F"/>
			<stop offset="1.000000" stop-color="#58B262"/>
		</linearGradient>
		<linearGradient id="paint_linear_1_333_0" x1="78.905014" y1="103.414307" x2="78.905014" y2="112.616219" gradientUnits="userSpaceOnUse">
			<stop stop-color="#52D25F"/>
			<stop offset="1.000000" stop-color="#58B262"/>
		</linearGradient>
	</defs>
</svg>
