<svg width="243.710449" height="202.030273" viewBox="0 0 243.71 202.03" fill="none" xmlns="http://www.w3.org/2000/svg" xmlns:xlink="http://www.w3.org/1999/xlink">
	<desc>
			Created with Pixso.
	</desc>
	<mask id="mask1_245" mask-type="alpha" maskUnits="userSpaceOnUse" x="0.000000" y="0.000000" width="243.710449" height="202.030273">
		<rect id="Rectangle 55" width="243.710434" height="202.030243" fill="#C4C4C4"/>
	</mask>
	<g mask="url(#mask1_245)">
		<path id="Path 234" d="M215.667 53.5891L163.129 53.5891C161.496 53.5891 160.173 54.9124 160.173 56.5449L160.173 80.9976C160.173 82.6301 161.496 83.9534 163.129 83.9534L215.667 83.9534C217.299 83.9534 218.622 82.6301 218.622 80.9976L218.622 56.5449C218.622 54.9124 217.299 53.5891 215.667 53.5891Z" fill-rule="evenodd" fill="url(#paint_linear_1_246_0)"/>
	</g>
	<g mask="url(#mask1_245)">
		<path id="Path 235" d="M37.463 69.1829C34.5734 69.1829 32.2353 71.521 32.2353 74.4104C32.2353 77.3 34.5734 79.6382 37.463 79.6382C40.3524 79.6382 42.6906 77.3 42.6906 74.4104C42.6906 71.521 40.3524 69.1829 37.463 69.1829Z" fill-rule="evenodd" fill="#33ADFF"/>
	</g>
	<g mask="url(#mask1_245)">
		<path id="Path 236" d="M37.463 38.1252C17.4069 38.1252 1.1778 54.3542 1.1778 74.4104C1.1778 94.4663 17.4069 110.696 37.463 110.696C57.519 110.696 73.7481 94.4663 73.7481 74.4104C73.7481 54.3542 57.519 38.1252 37.463 38.1252ZM37.463 100.549C23.0156 100.549 11.3248 88.8577 11.3248 74.4104C11.3248 59.9629 23.0156 48.2722 37.463 48.2722C51.9103 48.2722 63.601 59.9629 63.601 74.4104C63.601 88.8577 51.9103 100.549 37.463 100.549Z" fill-rule="evenodd" fill="url(#paint_linear_1_248_0)"/>
	</g>
	<g mask="url(#mask1_245)">
		<path id="Path 237" d="M159.965 110.055C156.524 110.055 153.734 112.845 153.734 116.287C153.734 119.728 156.524 122.518 159.965 122.518C163.407 122.518 166.197 119.728 166.197 116.287C166.197 112.845 163.407 110.055 159.965 110.055Z" fill-rule="evenodd" fill="url(#paint_linear_1_249_0)"/>
	</g>
	<g mask="url(#mask1_245)">
		<path id="Path 238" d="M159.965 137.505C156.524 137.505 153.734 140.295 153.734 143.736C153.734 147.178 156.524 149.968 159.965 149.968C163.407 149.968 166.197 147.178 166.197 143.736C166.197 140.295 163.407 137.505 159.965 137.505Z" fill-rule="evenodd" fill="url(#paint_linear_1_250_0)"/>
	</g>
	<g mask="url(#mask1_245)">
		<path id="Path 239" d="M159.965 164.824C156.524 164.824 153.734 167.615 153.734 171.056C153.734 174.497 156.524 177.287 159.965 177.287C163.407 177.287 166.197 174.497 166.197 171.056C166.197 167.615 163.407 164.824 159.965 164.824Z" fill-rule="evenodd" fill="url(#paint_linear_1_251_0)"/>
	</g>
	<mask id="mask1_253" mask-type="alpha" maskUnits="userSpaceOnUse" x="0.000000" y="0.000000" width="243.710449" height="202.030273">
		<rect id="Rectangle 56" width="243.710434" height="202.030243" fill="#C4C4C4"/>
	</mask>
	<g mask="url(#mask1_253)">
		<path id="Path 240" d="M37.4629 36.9475C27.4484 36.9475 18.0383 40.8423 10.9664 47.9141C3.89468 54.9858 -3.05176e-05 64.3958 -3.05176e-05 74.4104C-3.05176e-05 84.4248 3.89468 93.835 10.9664 100.907C18.0383 107.979 27.4484 111.873 37.4629 111.873C47.4774 111.873 56.8873 107.979 63.9592 100.907C71.0311 93.835 74.9258 84.4248 74.9258 74.4104C74.9258 64.3958 71.0311 54.9861 63.9592 47.9141C56.8873 40.8423 47.4774 36.9475 37.4629 36.9475ZM37.4629 109.518C18.1046 109.518 2.35556 93.7688 2.35556 74.4104C2.35556 55.0522 18.1046 39.303 37.4629 39.303C56.821 39.303 72.5703 55.0522 72.5703 74.4104C72.5703 93.7688 56.821 109.518 37.4629 109.518Z" fill-rule="evenodd" fill="#1E243A"/>
	</g>
	<g mask="url(#mask1_253)">
		<path id="Path 241" d="M37.4629 47.0945C30.1608 47.0945 23.2998 49.9343 18.1433 55.0908C12.9868 60.2471 10.147 67.1084 10.147 74.4104C10.147 81.7124 12.9868 88.5735 18.1433 93.73C23.2998 98.8865 30.1608 101.726 37.4629 101.726C44.7649 101.726 51.6261 98.8865 56.7826 93.73C61.9389 88.5735 64.7788 81.7124 64.7788 74.4104C64.7788 67.1084 61.9389 60.2471 56.7826 55.0908C51.6261 49.9343 44.7649 47.0945 37.4629 47.0945ZM37.4629 99.3706C23.6998 99.3706 12.5026 88.1736 12.5026 74.4104C12.5026 60.6472 23.6998 49.45 37.4629 49.45C51.2261 49.45 62.4232 60.6472 62.4232 74.4104C62.4232 88.1736 51.2261 99.3706 37.4629 99.3706Z" fill-rule="evenodd" fill="#1E243A"/>
	</g>
	<g mask="url(#mask1_253)">
		<path id="Path 242" d="M37.4629 57.5498C28.1659 57.5498 20.6021 65.1135 20.6021 74.4104C20.6021 83.7075 28.1659 91.2712 37.4629 91.2712C46.7599 91.2712 54.3235 83.7075 54.3235 74.4104C54.3235 65.1135 46.7599 57.5498 37.4629 57.5498ZM37.4629 88.9155C29.4648 88.9155 22.9577 82.4087 22.9577 74.4104C22.9577 66.4124 29.4648 59.9055 37.4629 59.9055C45.461 59.9055 51.9679 66.4124 51.9679 74.4104C51.9679 82.4087 45.461 88.9155 37.4629 88.9155Z" fill-rule="evenodd" fill="#1E243A"/>
	</g>
	<g mask="url(#mask1_253)">
		<path id="Path 243" d="M37.4629 68.0051C33.931 68.0051 31.0575 70.8787 31.0575 74.4106C31.0575 77.9426 33.931 80.8159 37.4629 80.8159C40.9949 80.8159 43.8682 77.9426 43.8682 74.4106C43.8682 70.8787 40.9949 68.0051 37.4629 68.0051ZM37.4629 78.4604C35.2299 78.4604 33.4131 76.6436 33.4131 74.4106C33.4131 72.1775 35.2299 70.3606 37.4629 70.3606C39.696 70.3606 41.5126 72.1775 41.5126 74.4106C41.5126 76.6436 39.696 78.4604 37.4629 78.4604Z" fill-rule="evenodd" fill="#1E243A"/>
	</g>
	<g mask="url(#mask1_253)">
		<path id="Path 244" d="M75.5953 34.5459L36.3965 73.7449C35.9365 74.2048 35.9365 74.9504 36.3965 75.4104C36.6264 75.6404 36.9279 75.7554 37.2293 75.7554C37.5306 75.7554 37.8322 75.6404 38.062 75.4104L77.261 36.2114C77.721 35.7517 77.721 35.0059 77.261 34.5459C76.8011 34.0859 76.0553 34.0859 75.5953 34.5459Z" fill-rule="evenodd" fill="#1E243A"/>
	</g>
	<g mask="url(#mask1_253)">
		<path id="Path 245" d="M109.382 12.7053L97.1724 14.1895C96.2754 14.3005 95.433 14.7104 94.8003 15.3433L68.5197 41.6262C68.1642 41.9814 68.0736 42.5229 68.2936 42.9749C68.4926 43.3831 68.9059 43.6367 69.3519 43.6367C69.3994 43.6367 69.447 43.6338 69.4948 43.6279L85.4349 41.6865C85.9969 41.6169 86.4514 41.4121 86.7843 41.0793L93.0847 34.7969C93.5453 34.3376 93.5464 33.5918 93.087 33.1313C92.6277 32.6707 91.8821 32.6697 91.4213 33.1287L85.1904 39.342L72.5999 40.877L96.466 17.0085C96.7297 16.7454 97.0835 16.5742 97.4595 16.5276L109.468 15.0679L98.0216 26.5347L94.2666 26.5347C93.6161 26.5347 93.0887 27.062 93.0887 27.7124C93.0887 28.3628 93.6161 28.8904 94.2666 28.8904L98.51 28.8904C98.8227 28.8904 99.1227 28.7659 99.3436 28.5444L111.279 16.5876C111.97 15.897 112.135 14.8733 111.699 13.9802C111.261 13.0852 110.352 12.5847 109.382 12.7053Z" fill-rule="evenodd" fill="#1E243A"/>
	</g>
	<g mask="url(#mask1_253)">
		<path id="Path 246" d="M97.9645 0.234375C97.0858 -0.194824 96.0711 -0.0253906 95.3797 0.66626L89.7538 6.29199C89.2938 6.75195 89.2938 7.4978 89.7538 7.95776C90.2135 8.41772 90.9593 8.41772 91.4193 7.95776L96.8393 2.5376L95.3643 14.4287C95.318 14.8025 95.1457 15.155 94.8794 15.4214L71.0211 39.2795L72.5683 26.8088L84.5741 14.803L84.5741 17.875C84.5741 18.5256 85.1015 19.0527 85.7519 19.0527C86.4026 19.0527 86.9297 18.5256 86.9297 17.875L86.9297 11.9595C86.9297 11.4829 86.6429 11.0537 86.2028 10.8713C85.7628 10.6892 85.256 10.7898 84.9192 11.1267L70.8783 25.1675C70.5249 25.521 70.2964 25.9888 70.2348 26.4846L68.2616 42.3911C68.1996 42.8901 68.4614 43.3735 68.9133 43.5942C69.0781 43.6748 69.2547 43.7139 69.43 43.7139C69.7357 43.7139 70.0371 43.595 70.2633 43.3689L96.545 17.0869C97.1804 16.4517 97.5912 15.6106 97.7019 14.7188L99.213 2.53882C99.3334 1.56812 98.8433 0.663574 97.9645 0.234375Z" fill-rule="evenodd" fill="#1E243A"/>
	</g>
	<g mask="url(#mask1_253)">
		<path id="Path 247" d="M236.701 64.6287L219.34 64.6287C218.69 64.6287 218.163 65.156 218.163 65.8064C218.163 66.4568 218.69 66.9841 219.34 66.9841L236.701 66.9841C239.267 66.9841 241.355 69.072 241.355 71.6382L241.355 195.021C241.355 197.587 239.267 199.675 236.701 199.675L142.094 199.675C139.528 199.675 137.441 197.587 137.441 195.021L137.441 71.6382C137.441 69.072 139.528 66.9841 142.094 66.9841L159.014 66.9841C159.665 66.9841 160.192 66.4568 160.192 65.8064C160.192 65.156 159.665 64.6287 159.014 64.6287L142.094 64.6287C138.229 64.6287 135.085 67.7732 135.085 71.6382L135.085 195.021C135.085 198.886 138.229 202.03 142.094 202.03L236.701 202.03C240.566 202.03 243.71 198.886 243.71 195.021L243.71 71.6382C243.71 67.7732 240.566 64.6287 236.701 64.6287Z" fill-rule="evenodd" fill="#1E243A"/>
	</g>
	<g mask="url(#mask1_253)">
		<path id="Path 248" d="M231.601 72.6221L219.34 72.6221C218.69 72.6221 218.163 73.1494 218.163 73.7998C218.163 74.4504 218.69 74.9775 219.34 74.9775L231.601 74.9775C232.772 74.9775 233.724 75.9299 233.724 77.1008L233.724 189.558C233.724 190.729 232.772 191.681 231.601 191.681L147.194 191.681C146.024 191.681 145.071 190.729 145.071 189.558L145.071 77.1008C145.071 75.9299 146.024 74.9775 147.194 74.9775L159.416 74.9775C160.067 74.9775 160.594 74.4504 160.594 73.7998C160.594 73.1494 160.067 72.6221 159.416 72.6221L147.194 72.6221C144.725 72.6221 142.716 74.6311 142.716 77.1008L142.716 189.558C142.716 192.028 144.725 194.037 147.194 194.037L231.601 194.037C234.071 194.037 236.08 192.028 236.08 189.558L236.08 77.1008C236.08 74.6311 234.071 72.6221 231.601 72.6221Z" fill-rule="evenodd" fill="#1E243A"/>
	</g>
	<g mask="url(#mask1_253)">
		<path id="Path 249" d="M215.667 52.4114L163.129 52.4114C160.849 52.4114 158.995 54.2656 158.995 56.5449L158.995 80.9976C158.995 83.2769 160.849 85.1311 163.129 85.1311L215.667 85.1311C217.946 85.1311 219.8 83.2769 219.8 80.9976L219.8 56.5449C219.8 54.2656 217.946 52.4114 215.667 52.4114ZM217.445 80.9976C217.445 81.978 216.647 82.7756 215.667 82.7756L163.129 82.7756C162.148 82.7756 161.351 81.978 161.351 80.9976L161.351 56.5449C161.351 55.5645 162.148 54.7668 163.129 54.7668L215.667 54.7668C216.647 54.7668 217.445 55.5645 217.445 56.5449L217.445 80.9976Z" fill-rule="evenodd" fill="#1E243A"/>
	</g>
	<g mask="url(#mask1_253)">
		<path id="Path 250" d="M207.63 83.9822C206.979 83.9822 206.452 84.5095 206.452 85.1599L206.452 91.3699C206.452 92.5447 205.496 93.5002 204.321 93.5002L174.474 93.5002C173.299 93.5002 172.344 92.5447 172.344 91.3699L172.344 85.1599C172.344 84.5095 171.816 83.9822 171.166 83.9822C170.515 83.9822 169.988 84.5095 169.988 85.1599L169.988 91.3699C169.988 93.8435 172 95.856 174.474 95.856L204.321 95.856C206.795 95.856 208.807 93.8435 208.807 91.3699L208.807 85.1599C208.807 84.5095 208.28 83.9822 207.63 83.9822Z" fill-rule="evenodd" fill="#1E243A"/>
	</g>
	<g mask="url(#mask1_253)">
		<path id="Path 251" d="M207.177 61.2402L171.529 61.2402C170.879 61.2402 170.352 61.7676 170.352 62.418C170.352 63.0684 170.879 63.5957 171.529 63.5957L207.177 63.5957C207.828 63.5957 208.355 63.0684 208.355 62.418C208.355 61.7676 207.828 61.2402 207.177 61.2402Z" fill-rule="evenodd" fill="#1E243A"/>
	</g>
	<g mask="url(#mask1_253)">
		<path id="Path 252" d="M201.838 68.4641L177.026 68.4641C176.375 68.4641 175.848 68.9915 175.848 69.6418C175.848 70.2922 176.375 70.8196 177.026 70.8196L201.838 70.8196C202.488 70.8196 203.016 70.2922 203.016 69.6418C203.016 68.9915 202.488 68.4641 201.838 68.4641Z" fill-rule="evenodd" fill="#1E243A"/>
	</g>
	<g mask="url(#mask1_253)">
		<path id="Path 253" d="M196.341 75.3738L182.365 75.3738C181.715 75.3738 181.187 75.9011 181.187 76.5515C181.187 77.2019 181.715 77.7292 182.365 77.7292L196.341 77.7292C196.992 77.7292 197.519 77.2019 197.519 76.5515C197.519 75.9011 196.992 75.3738 196.341 75.3738Z" fill-rule="evenodd" fill="#1E243A"/>
	</g>
	<g mask="url(#mask1_253)">
		<path id="Path 254" d="M164.94 110.961L159.736 116.166L158.025 114.454C157.565 113.994 156.819 113.994 156.359 114.454C155.899 114.914 155.899 115.66 156.359 116.12L158.903 118.664C159.124 118.885 159.424 119.009 159.736 119.009C160.048 119.009 160.348 118.885 160.569 118.664L166.606 112.627C167.066 112.167 167.066 111.421 166.606 110.961C166.146 110.501 165.4 110.501 164.94 110.961Z" fill-rule="evenodd" fill="#1E243A"/>
	</g>
	<g mask="url(#mask1_253)">
		<path id="Path 255" d="M166.24 115.152C165.589 115.152 165.062 115.679 165.062 116.33C165.062 119.14 162.776 121.427 159.965 121.427C157.155 121.427 154.868 119.14 154.868 116.33C154.868 113.52 157.155 111.233 159.965 111.233C160.616 111.233 161.143 110.706 161.143 110.055C161.143 109.405 160.616 108.877 159.965 108.877C155.856 108.877 152.513 112.221 152.513 116.33C152.513 120.439 155.856 123.782 159.965 123.782C164.075 123.782 167.418 120.439 167.418 116.33C167.418 115.679 166.89 115.152 166.24 115.152Z" fill-rule="evenodd" fill="#1E243A"/>
	</g>
	<g mask="url(#mask1_253)">
		<path id="Path 256" d="M204.508 112.278L172.315 112.278C171.664 112.278 171.137 112.805 171.137 113.456C171.137 114.106 171.664 114.634 172.315 114.634L204.508 114.634C205.158 114.634 205.685 114.106 205.685 113.456C205.685 112.805 205.158 112.278 204.508 112.278Z" fill-rule="evenodd" fill="#1E243A"/>
	</g>
	<g mask="url(#mask1_253)">
		<path id="Path 257" d="M225.08 118.245L172.315 118.245C171.664 118.245 171.137 118.772 171.137 119.423C171.137 120.073 171.664 120.601 172.315 120.601L225.08 120.601C225.73 120.601 226.257 120.073 226.257 119.423C226.257 118.772 225.73 118.245 225.08 118.245Z" fill-rule="evenodd" fill="#1E243A"/>
	</g>
	<g mask="url(#mask1_253)">
		<path id="Path 258" d="M164.94 138.325L159.736 143.529L158.025 141.817C157.565 141.357 156.819 141.357 156.359 141.817C155.899 142.277 155.899 143.023 156.359 143.483L158.903 146.027C159.133 146.257 159.434 146.372 159.736 146.372C160.037 146.372 160.339 146.257 160.569 146.027L166.606 139.99C167.066 139.531 167.066 138.785 166.606 138.325C166.146 137.865 165.4 137.865 164.94 138.325Z" fill-rule="evenodd" fill="#1E243A"/>
	</g>
	<g mask="url(#mask1_253)">
		<path id="Path 259" d="M166.24 142.515C165.589 142.515 165.062 143.043 165.062 143.693C165.062 146.503 162.776 148.79 159.965 148.79C157.155 148.79 154.868 146.503 154.868 143.693C154.868 140.883 157.155 138.596 159.965 138.596C160.616 138.596 161.143 138.069 161.143 137.418C161.143 136.768 160.616 136.24 159.965 136.24C155.856 136.24 152.513 139.584 152.513 143.693C152.513 147.802 155.856 151.146 159.965 151.146C164.075 151.146 167.418 147.802 167.418 143.693C167.418 143.043 166.89 142.515 166.24 142.515Z" fill-rule="evenodd" fill="#1E243A"/>
	</g>
	<g mask="url(#mask1_253)">
		<path id="Path 260" d="M204.508 139.445L172.315 139.445C171.664 139.445 171.137 139.973 171.137 140.623C171.137 141.274 171.664 141.801 172.315 141.801L204.508 141.801C205.158 141.801 205.685 141.274 205.685 140.623C205.685 139.973 205.158 139.445 204.508 139.445Z" fill-rule="evenodd" fill="#1E243A"/>
	</g>
	<g mask="url(#mask1_253)">
		<path id="Path 261" d="M225.08 145.57L172.315 145.57C171.664 145.57 171.137 146.097 171.137 146.748C171.137 147.398 171.664 147.925 172.315 147.925L225.08 147.925C225.73 147.925 226.257 147.398 226.257 146.748C226.257 146.097 225.73 145.57 225.08 145.57Z" fill-rule="evenodd" fill="#1E243A"/>
	</g>
	<g mask="url(#mask1_253)">
		<path id="Path 262" d="M164.94 165.688L159.736 170.891L158.025 169.18C157.565 168.72 156.819 168.72 156.359 169.18C155.899 169.64 155.899 170.386 156.359 170.846L158.903 173.39C159.133 173.62 159.434 173.735 159.736 173.735C160.037 173.735 160.339 173.62 160.569 173.39L166.606 167.353C167.066 166.893 167.066 166.148 166.606 165.688C166.146 165.228 165.4 165.228 164.94 165.688Z" fill-rule="evenodd" fill="#1E243A"/>
	</g>
	<g mask="url(#mask1_253)">
		<path id="Path 263" d="M166.24 169.878C165.589 169.878 165.062 170.406 165.062 171.056C165.062 173.866 162.776 176.153 159.965 176.153C157.155 176.153 154.868 173.866 154.868 171.056C154.868 168.246 157.155 165.959 159.965 165.959C160.616 165.959 161.143 165.432 161.143 164.781C161.143 164.131 160.616 163.603 159.965 163.603C155.856 163.603 152.513 166.947 152.513 171.056C152.513 175.165 155.856 178.509 159.965 178.509C164.075 178.509 167.418 175.165 167.418 171.056C167.418 170.406 166.89 169.878 166.24 169.878Z" fill-rule="evenodd" fill="#1E243A"/>
	</g>
	<g mask="url(#mask1_253)">
		<path id="Path 264" d="M204.508 166.927L172.315 166.927C171.664 166.927 171.137 167.454 171.137 168.105C171.137 168.755 171.664 169.282 172.315 169.282L204.508 169.282C205.158 169.282 205.685 168.755 205.685 168.105C205.685 167.454 205.158 166.927 204.508 166.927Z" fill-rule="evenodd" fill="#1E243A"/>
	</g>
	<g mask="url(#mask1_253)">
		<path id="Path 265" d="M225.08 173.052L172.315 173.052C171.664 173.052 171.137 173.579 171.137 174.229C171.137 174.88 171.664 175.407 172.315 175.407L225.08 175.407C225.73 175.407 226.257 174.88 226.257 174.229C226.257 173.579 225.73 173.052 225.08 173.052Z" fill-rule="evenodd" fill="#1E243A"/>
	</g>
	<g mask="url(#mask1_253)">
		<path id="Path 266" d="M37.1831 116.596C36.5327 116.596 36.0053 117.124 36.0053 117.774L36.0053 120.601C36.0053 121.251 36.5327 121.779 37.1831 121.779C37.8336 121.779 38.3609 121.251 38.3609 120.601L38.3609 117.774C38.3609 117.124 37.8336 116.596 37.1831 116.596Z" fill-rule="evenodd" fill="#1E243A"/>
	</g>
	<g mask="url(#mask1_253)">
		<path id="Path 267" d="M37.1831 176.585C36.5327 176.585 36.0053 177.112 36.0053 177.763L36.0053 183.259C36.0053 183.91 36.5327 184.437 37.1831 184.437C37.8336 184.437 38.3609 183.91 38.3609 183.259L38.3609 177.763C38.3609 177.112 37.8336 176.585 37.1831 176.585Z" fill-rule="evenodd" fill="#1E243A"/>
	</g>
	<g mask="url(#mask1_253)">
		<path id="Path 268" d="M37.1831 164.022C36.5327 164.022 36.0053 164.549 36.0053 165.2L36.0053 170.696C36.0053 171.346 36.5327 171.874 37.1831 171.874C37.8336 171.874 38.3609 171.346 38.3609 170.696L38.3609 165.2C38.3609 164.549 37.8336 164.022 37.1831 164.022Z" fill-rule="evenodd" fill="#1E243A"/>
	</g>
	<g mask="url(#mask1_253)">
		<path id="Path 269" d="M37.1831 126.333C36.5327 126.333 36.0053 126.86 36.0053 127.51L36.0053 133.007C36.0053 133.657 36.5327 134.185 37.1831 134.185C37.8336 134.185 38.3609 133.657 38.3609 133.007L38.3609 127.51C38.3609 126.86 37.8336 126.333 37.1831 126.333Z" fill-rule="evenodd" fill="#1E243A"/>
	</g>
	<g mask="url(#mask1_253)">
		<path id="Path 270" d="M37.1831 138.896C36.5327 138.896 36.0053 139.423 36.0053 140.073L36.0053 145.57C36.0053 146.22 36.5327 146.748 37.1831 146.748C37.8336 146.748 38.3609 146.22 38.3609 145.57L38.3609 140.073C38.3609 139.423 37.8336 138.896 37.1831 138.896Z" fill-rule="evenodd" fill="#1E243A"/>
	</g>
	<g mask="url(#mask1_253)">
		<path id="Path 271" d="M37.1831 151.459C36.5327 151.459 36.0053 151.986 36.0053 152.636L36.0053 158.133C36.0053 158.783 36.5327 159.311 37.1831 159.311C37.8336 159.311 38.3609 158.783 38.3609 158.133L38.3609 152.636C38.3609 151.986 37.8336 151.459 37.1831 151.459Z" fill-rule="evenodd" fill="#1E243A"/>
	</g>
	<g mask="url(#mask1_253)">
		<path id="Path 272" d="M39.9313 191.739L38.3609 191.739L38.3609 190.169C38.3609 189.518 37.8336 188.991 37.1831 188.991C36.5327 188.991 36.0053 189.518 36.0053 190.169L36.0053 192.917C36.0053 193.567 36.5327 194.095 37.1831 194.095L39.9313 194.095C40.5817 194.095 41.1091 193.567 41.1091 192.917C41.1091 192.266 40.5817 191.739 39.9313 191.739Z" fill-rule="evenodd" fill="#1E243A"/>
	</g>
	<g mask="url(#mask1_253)">
		<path id="Path 273" d="M66.3137 191.739L60.5033 191.739C59.8528 191.739 59.3255 192.266 59.3255 192.917C59.3255 193.567 59.8528 194.094 60.5033 194.094L66.3137 194.094C66.9642 194.094 67.4915 193.567 67.4915 192.917C67.4915 192.266 66.9642 191.739 66.3137 191.739Z" fill-rule="evenodd" fill="#1E243A"/>
	</g>
	<g mask="url(#mask1_253)">
		<path id="Path 274" d="M79.5049 191.739L73.6945 191.739C73.0441 191.739 72.5167 192.266 72.5167 192.917C72.5167 193.567 73.0441 194.094 73.6945 194.094L79.5049 194.094C80.1554 194.094 80.6827 193.567 80.6827 192.917C80.6827 192.266 80.1554 191.739 79.5049 191.739Z" fill-rule="evenodd" fill="#1E243A"/>
	</g>
	<g mask="url(#mask1_253)">
		<path id="Path 275" d="M53.1225 191.739L47.312 191.739C46.6616 191.739 46.1343 192.266 46.1343 192.917C46.1343 193.567 46.6616 194.094 47.312 194.094L53.1225 194.094C53.7729 194.094 54.3003 193.567 54.3003 192.917C54.3003 192.266 53.7729 191.739 53.1225 191.739Z" fill-rule="evenodd" fill="#1E243A"/>
	</g>
	<g mask="url(#mask1_253)">
		<path id="Path 276" d="M105.887 191.739L100.077 191.739C99.4265 191.739 98.8992 192.266 98.8992 192.917C98.8992 193.567 99.4265 194.094 100.077 194.094L105.887 194.094C106.538 194.094 107.065 193.567 107.065 192.917C107.065 192.266 106.538 191.739 105.887 191.739Z" fill-rule="evenodd" fill="#1E243A"/>
	</g>
	<g mask="url(#mask1_253)">
		<path id="Path 277" d="M92.6962 191.739L86.8857 191.739C86.2353 191.739 85.7079 192.266 85.7079 192.917C85.7079 193.567 86.2353 194.094 86.8857 194.094L92.6962 194.094C93.3466 194.094 93.874 193.567 93.874 192.917C93.874 192.266 93.3466 191.739 92.6962 191.739Z" fill-rule="evenodd" fill="#1E243A"/>
	</g>
	<g mask="url(#mask1_253)">
		<path id="Path 278" d="M119.079 191.739L113.268 191.739C112.618 191.739 112.09 192.266 112.09 192.917C112.09 193.567 112.618 194.094 113.268 194.094L119.079 194.094C119.729 194.094 120.256 193.567 120.256 192.917C120.256 192.266 119.729 191.739 119.079 191.739Z" fill-rule="evenodd" fill="#1E243A"/>
	</g>
	<g mask="url(#mask1_253)">
		<path id="Path 279" d="M129.286 191.739L126.459 191.739C125.809 191.739 125.282 192.266 125.282 192.917C125.282 193.567 125.809 194.094 126.459 194.094L129.286 194.094C129.937 194.094 130.464 193.567 130.464 192.917C130.464 192.266 129.937 191.739 129.286 191.739Z" fill-rule="evenodd" fill="#1E243A"/>
	</g>
	<g mask="url(#mask1_253)">
		<path id="Path 280" d="M106.093 126.149C106.381 126.378 106.725 126.488 107.066 126.488C107.529 126.488 107.988 126.284 108.299 125.893C108.838 125.213 108.723 124.225 108.043 123.686C107.363 123.149 106.375 123.264 105.837 123.944C105.298 124.624 105.413 125.612 106.093 126.149Z" fill-rule="evenodd" fill="#1E243A"/>
	</g>
	<g mask="url(#mask1_253)">
		<path id="Path 281" d="M105.557 128.574C104.712 128.773 104.189 129.62 104.389 130.463C104.56 131.187 105.204 131.674 105.915 131.674C106.034 131.674 106.157 131.66 106.278 131.632C107.121 131.432 107.644 130.586 107.445 129.742C107.247 128.897 106.4 128.376 105.557 128.574Z" fill-rule="evenodd" fill="#1E243A"/>
	</g>
	<g mask="url(#mask1_253)">
		<path id="Path 282" d="M116.515 126.352C116.872 126.352 117.23 126.231 117.525 125.984C118.189 125.427 118.276 124.436 117.717 123.771C117.159 123.107 116.168 123.021 115.506 123.578C114.841 124.137 114.755 125.127 115.312 125.791C115.623 126.162 116.068 126.352 116.515 126.352Z" fill-rule="evenodd" fill="#1E243A"/>
	</g>
	<g mask="url(#mask1_253)">
		<path id="Path 283" d="M109.935 132.798C109.15 132.43 108.216 132.77 107.848 133.556C107.481 134.342 107.82 135.276 108.607 135.644C108.822 135.744 109.048 135.791 109.269 135.791C109.862 135.791 110.427 135.457 110.694 134.885C111.061 134.1 110.722 133.165 109.935 132.798Z" fill-rule="evenodd" fill="#1E243A"/>
	</g>
	<g mask="url(#mask1_253)">
		<path id="Path 284" d="M118.131 128.392C117.282 128.217 116.451 128.764 116.277 129.613C116.102 130.463 116.649 131.294 117.5 131.468C117.605 131.49 117.712 131.501 117.817 131.501C118.547 131.501 119.201 130.989 119.353 130.246C119.527 129.396 118.981 128.566 118.131 128.392Z" fill-rule="evenodd" fill="#1E243A"/>
	</g>
	<g mask="url(#mask1_253)">
		<path id="Path 285" d="M111.847 121.034C110.98 121.034 110.276 121.738 110.276 122.605C110.276 123.471 110.98 124.175 111.847 124.175C112.715 124.175 113.417 123.471 113.417 122.605C113.417 121.738 112.715 121.034 111.847 121.034Z" fill-rule="evenodd" fill="#1E243A"/>
	</g>
	<g mask="url(#mask1_253)">
		<path id="Path 286" d="M113.875 132.741C113.101 133.131 112.789 134.075 113.178 134.849C113.455 135.397 114.009 135.714 114.582 135.714C114.821 135.714 115.061 135.661 115.287 135.546C116.063 135.156 116.374 134.213 115.984 133.437C115.595 132.663 114.651 132.35 113.875 132.741Z" fill-rule="evenodd" fill="#1E243A"/>
	</g>
	<g mask="url(#mask1_253)">
		<path id="Path 287" d="M9.98822 159.446C9.20303 159.078 8.26849 159.417 7.90103 160.204C7.53357 160.99 7.87277 161.924 8.65955 162.291C8.87482 162.392 9.1008 162.439 9.32224 162.439C9.91428 162.439 10.4796 162.104 10.7466 161.533C11.114 160.748 10.7748 159.813 9.98822 159.446Z" fill-rule="evenodd" fill="#1E243A"/>
	</g>
	<g mask="url(#mask1_253)">
		<path id="Path 288" d="M6.14554 152.796C6.43451 153.026 6.77841 153.137 7.11917 153.137C7.58246 153.137 8.04102 152.933 8.35193 152.541C8.89056 151.861 8.77435 150.873 8.09439 150.334C7.41443 149.797 6.42822 149.912 5.88959 150.592C5.35092 151.272 5.46558 152.26 6.14554 152.796Z" fill-rule="evenodd" fill="#1E243A"/>
	</g>
	<g mask="url(#mask1_253)">
		<path id="Path 289" d="M16.568 153C16.9245 153 17.2825 152.879 17.5778 152.632C18.242 152.074 18.3268 151.084 17.7693 150.419C17.2119 149.755 16.2209 149.669 15.5567 150.226C14.8924 150.785 14.8076 151.775 15.3651 152.439C15.676 152.809 16.1205 153 16.568 153Z" fill-rule="evenodd" fill="#1E243A"/>
	</g>
	<g mask="url(#mask1_253)">
		<path id="Path 290" d="M5.60834 155.223C4.76505 155.421 4.2421 156.267 4.44153 157.112C4.61115 157.835 5.25656 158.322 5.96951 158.322C6.08887 158.322 6.20978 158.307 6.33072 158.279C7.17401 158.08 7.69693 157.235 7.4975 156.39C7.29807 155.547 6.45319 155.024 5.60834 155.223Z" fill-rule="evenodd" fill="#1E243A"/>
	</g>
	<g mask="url(#mask1_253)">
		<path id="Path 291" d="M18.184 155.039C17.3344 154.865 16.5037 155.411 16.3293 156.261C16.155 157.112 16.7015 157.941 17.5511 158.115C17.6579 158.137 17.7646 158.149 17.8699 158.149C18.6001 158.149 19.2534 157.636 19.4057 156.894C19.58 156.044 19.0335 155.214 18.184 155.039Z" fill-rule="evenodd" fill="#1E243A"/>
	</g>
	<g mask="url(#mask1_253)">
		<path id="Path 292" d="M11.8992 147.682C11.0324 147.682 10.3289 148.386 10.3289 149.252C10.3289 150.121 11.0324 150.823 11.8992 150.823C12.7677 150.823 13.4696 150.121 13.4696 149.252C13.4696 148.386 12.7677 147.682 11.8992 147.682Z" fill-rule="evenodd" fill="#1E243A"/>
	</g>
	<g mask="url(#mask1_253)">
		<path id="Path 293" d="M13.9282 159.389C13.154 159.779 12.8415 160.722 13.231 161.497C13.5073 162.046 14.0601 162.362 14.6349 162.362C14.872 162.362 15.1138 162.309 15.34 162.194C16.1143 161.804 16.4267 160.861 16.0372 160.086C15.6478 159.311 14.7041 158.998 13.9282 159.389Z" fill-rule="evenodd" fill="#1E243A"/>
	</g>
	<g mask="url(#mask1_253)">
		<path id="Path 294" d="M176.074 21.7356C175.23 21.9336 174.707 22.78 174.907 23.6248C175.078 24.3472 175.722 24.834 176.433 24.834C176.553 24.834 176.675 24.8198 176.796 24.7915C177.641 24.592 178.162 23.7473 177.963 22.9023C177.765 22.0576 176.918 21.5361 176.074 21.7356Z" fill-rule="evenodd" fill="#1E243A"/>
	</g>
	<g mask="url(#mask1_253)">
		<path id="Path 295" d="M180.453 25.9585C179.668 25.5911 178.734 25.9302 178.366 26.717C177.999 27.5022 178.338 28.4365 179.125 28.804C179.34 28.9045 179.566 28.9517 179.787 28.9517C180.379 28.9517 180.945 28.6172 181.212 28.0457C181.579 27.2605 181.24 26.3259 180.453 25.9585Z" fill-rule="evenodd" fill="#1E243A"/>
	</g>
	<g mask="url(#mask1_253)">
		<path id="Path 296" d="M187.033 19.512C187.39 19.512 187.748 19.3911 188.043 19.1445C188.706 18.5869 188.792 17.5962 188.235 16.9319C187.677 16.2676 186.686 16.1812 186.022 16.7388C185.358 17.2961 185.273 18.2871 185.83 18.9514C186.141 19.322 186.586 19.512 187.033 19.512Z" fill-rule="evenodd" fill="#1E243A"/>
	</g>
	<g mask="url(#mask1_253)">
		<path id="Path 297" d="M176.611 19.311C176.9 19.5386 177.244 19.6487 177.584 19.6487C178.048 19.6487 178.506 19.446 178.817 19.0535C179.356 18.3735 179.241 17.3857 178.561 16.8469C177.881 16.3101 176.893 16.4246 176.355 17.1045C175.816 17.7847 175.931 18.7722 176.611 19.311Z" fill-rule="evenodd" fill="#1E243A"/>
	</g>
	<g mask="url(#mask1_253)">
		<path id="Path 298" d="M188.649 21.552C187.8 21.3777 186.969 21.9241 186.795 22.7751C186.62 23.6233 187.168 24.4541 188.016 24.6284C188.123 24.6504 188.23 24.6614 188.335 24.6614C189.065 24.6614 189.719 24.1494 189.871 23.4065C190.045 22.5569 189.499 21.7263 188.649 21.552Z" fill-rule="evenodd" fill="#1E243A"/>
	</g>
	<g mask="url(#mask1_253)">
		<path id="Path 299" d="M184.393 25.9021C183.619 26.2915 183.307 27.2354 183.696 28.0095C183.973 28.5591 184.527 28.8748 185.1 28.8748C185.339 28.8748 185.579 28.8213 185.805 28.7068C186.579 28.3171 186.892 27.3735 186.502 26.5977C186.113 25.8235 185.169 25.511 184.393 25.9021Z" fill-rule="evenodd" fill="#1E243A"/>
	</g>
	<g mask="url(#mask1_253)">
		<path id="Path 300" d="M182.365 14.1946C181.498 14.1946 180.794 14.8982 180.794 15.7649C180.794 16.6318 181.498 17.3354 182.365 17.3354C183.233 17.3354 183.935 16.6318 183.935 15.7649C183.935 14.8982 183.233 14.1946 182.365 14.1946Z" fill-rule="evenodd" fill="#1E243A"/>
	</g>
	<g mask="url(#mask1_253)">
		<path id="Path 301" d="M69.847 162.766C69.1966 162.766 68.6693 163.293 68.6693 163.943L68.6693 171.952C68.6693 172.603 69.1966 173.13 69.847 173.13C70.4975 173.13 71.0248 172.603 71.0248 171.952L71.0248 163.943C71.0248 163.293 70.4975 162.766 69.847 162.766Z" fill-rule="evenodd" fill="#1E243A"/>
	</g>
	<g mask="url(#mask1_253)">
		<path id="Path 302" d="M73.8516 166.77L65.8426 166.77C65.1921 166.77 64.6648 167.298 64.6648 167.948C64.6648 168.599 65.1921 169.126 65.8426 169.126L73.8516 169.126C74.502 169.126 75.0294 168.599 75.0294 167.948C75.0294 167.298 74.502 166.77 73.8516 166.77Z" fill-rule="evenodd" fill="#1E243A"/>
	</g>
	<g mask="url(#mask1_253)">
		<path id="Path 303" d="M109.578 60.6907C108.927 60.6907 108.4 61.218 108.4 61.8684L108.4 69.8774C108.4 70.5278 108.927 71.0552 109.578 71.0552C110.228 71.0552 110.755 70.5278 110.755 69.8774L110.755 61.8684C110.755 61.218 110.228 60.6907 109.578 60.6907Z" fill-rule="evenodd" fill="#1E243A"/>
	</g>
	<g mask="url(#mask1_253)">
		<path id="Path 304" d="M113.582 64.6951L105.573 64.6951C104.923 64.6951 104.396 65.2224 104.396 65.8728C104.396 66.5232 104.923 67.0505 105.573 67.0505L113.582 67.0505C114.233 67.0505 114.76 66.5232 114.76 65.8728C114.76 65.2224 114.233 64.6951 113.582 64.6951Z" fill-rule="evenodd" fill="#1E243A"/>
	</g>
	<g mask="url(#mask1_253)">
		<path id="Path 305" d="M234.894 29.7542C234.244 29.7542 233.717 30.2815 233.717 30.9319L233.717 38.9409C233.717 39.5913 234.244 40.1187 234.894 40.1187C235.545 40.1187 236.072 39.5913 236.072 38.9409L236.072 30.9319C236.072 30.2815 235.545 29.7542 234.894 29.7542Z" fill-rule="evenodd" fill="#1E243A"/>
	</g>
	<g mask="url(#mask1_253)">
		<path id="Path 306" d="M238.899 33.7585L230.89 33.7585C230.24 33.7585 229.712 34.2859 229.712 34.9363C229.712 35.5867 230.24 36.114 230.89 36.114L238.899 36.114C239.55 36.114 240.077 35.5867 240.077 34.9363C240.077 34.2859 239.55 33.7585 238.899 33.7585Z" fill-rule="evenodd" fill="#1E243A"/>
	</g>
	<defs>
		<linearGradient id="paint_linear_1_246_0" x1="189.397644" y1="53.589111" x2="189.397644" y2="83.953430" gradientUnits="userSpaceOnUse">
			<stop stop-color="#33ADFF"/>
			<stop offset="1.000000" stop-color="#5CC7F6"/>
		</linearGradient>
		<linearGradient id="paint_linear_1_248_0" x1="37.462936" y1="38.125244" x2="37.462936" y2="110.695511" gradientUnits="userSpaceOnUse">
			<stop stop-color="#33ADFF"/>
			<stop offset="1.000000" stop-color="#5CC7F6"/>
		</linearGradient>
		<linearGradient id="paint_linear_1_249_0" x1="159.965149" y1="110.055176" x2="159.965149" y2="122.518066" gradientUnits="userSpaceOnUse">
			<stop stop-color="#33ADFF"/>
			<stop offset="1.000000" stop-color="#5CC7F6"/>
		</linearGradient>
		<linearGradient id="paint_linear_1_250_0" x1="159.965149" y1="137.504883" x2="159.965149" y2="149.967834" gradientUnits="userSpaceOnUse">
			<stop stop-color="#33ADFF"/>
			<stop offset="1.000000" stop-color="#5CC7F6"/>
		</linearGradient>
		<linearGradient id="paint_linear_1_251_0" x1="159.965149" y1="164.824463" x2="159.965149" y2="177.287354" gradientUnits="userSpaceOnUse">
			<stop stop-color="#33ADFF"/>
			<stop offset="1.000000" stop-color="#5CC7F6"/>
		</linearGradient>
	</defs>
</svg>
