<svg width="243.710449" height="199.505371" viewBox="0 0 243.71 199.505" fill="none" xmlns="http://www.w3.org/2000/svg" xmlns:xlink="http://www.w3.org/1999/xlink">
	<desc>
			Created with Pixso.
	</desc>
	<mask id="mask1_416" mask-type="alpha" maskUnits="userSpaceOnUse" x="0.000000" y="0.000000" width="243.710449" height="199.505371">
		<rect id="Rectangle 57" width="243.710434" height="199.505463" fill="#C4C4C4"/>
	</mask>
	<g mask="url(#mask1_416)">
		<path id="Path 307" d="M45.5836 15.3687C44.1638 15.3687 43.0128 16.5195 43.0128 17.9395C43.0128 19.3591 44.1638 20.51 45.5836 20.51C47.0033 20.51 48.1544 19.3591 48.1544 17.9395C48.1544 16.5195 47.0033 15.3687 45.5836 15.3687Z" fill-rule="evenodd" fill="url(#paint_linear_1_417_0)"/>
	</g>
	<g mask="url(#mask1_416)">
		<path id="Path 308" d="M56.402 15.3687C54.9824 15.3687 53.8314 16.5195 53.8314 17.9395C53.8314 19.3591 54.9824 20.51 56.402 20.51C57.8219 20.51 58.9728 19.3591 58.9728 17.9395C58.9728 16.5195 57.8219 15.3687 56.402 15.3687Z" fill-rule="evenodd" fill="url(#paint_linear_1_418_0)"/>
	</g>
	<g mask="url(#mask1_416)">
		<path id="Path 309" d="M67.2205 15.3687C65.8005 15.3687 64.6497 16.5195 64.6497 17.9395C64.6497 19.3591 65.8005 20.51 67.2205 20.51C68.6401 20.51 69.791 19.3591 69.791 17.9395C69.791 16.5195 68.6401 15.3687 67.2205 15.3687Z" fill-rule="evenodd" fill="url(#paint_linear_1_419_0)"/>
	</g>
	<g mask="url(#mask1_416)">
		<path id="Path 310" d="M179.699 119.653L194.405 119.653L199.424 106.642L199.424 101.902L179.699 101.902L179.699 119.653Z" fill-rule="evenodd" fill="url(#paint_linear_1_420_0)"/>
	</g>
	<g mask="url(#mask1_416)">
		<path id="Path 311" d="M194.71 107.065L194.71 124.817L217.017 124.817L206.689 115.941L217.017 107.065L194.71 107.065Z" fill-rule="evenodd" fill="url(#paint_linear_1_421_0)"/>
	</g>
	<mask id="mask1_423" mask-type="alpha" maskUnits="userSpaceOnUse" x="0.000000" y="0.000000" width="243.710449" height="199.505371">
		<rect id="Rectangle 58" width="243.710434" height="199.505463" fill="#C4C4C4"/>
	</mask>
	<g mask="url(#mask1_423)">
		<path id="Path 312" d="M217.743 148.105C216.465 148.105 215.18 148.2 213.925 148.387C213.285 148.482 212.844 149.078 212.939 149.718C213.035 150.358 213.631 150.799 214.271 150.704C215.411 150.534 216.58 150.447 217.743 150.447C230.623 150.447 241.101 160.926 241.101 173.805C241.101 186.685 230.623 197.163 217.743 197.163L143.672 197.163C129.547 197.163 118.055 185.671 118.055 171.546C118.055 157.421 129.547 145.929 143.672 145.929C145.759 145.929 147.833 146.18 149.839 146.676C150.467 146.831 151.102 146.448 151.257 145.82C151.412 145.192 151.029 144.557 150.401 144.402C148.212 143.861 145.948 143.586 143.672 143.586C128.255 143.586 115.713 156.129 115.713 171.546C115.713 186.963 128.255 199.505 143.672 199.505L217.743 199.505C231.914 199.505 243.443 187.976 243.443 173.805C243.443 159.634 231.914 148.105 217.743 148.105Z" fill-rule="evenodd" fill="#1E243A"/>
	</g>
	<g mask="url(#mask1_423)">
		<path id="Path 313" d="M158.983 134.496C152.575 134.496 146.813 138.058 143.945 143.792C143.656 144.371 143.89 145.074 144.469 145.364C145.047 145.653 145.751 145.418 146.04 144.84C148.509 139.905 153.468 136.839 158.983 136.839C166.957 136.839 173.444 143.326 173.444 151.301C173.444 151.947 173.969 152.472 174.616 152.472C175.263 152.472 175.787 151.947 175.787 151.301C175.787 142.034 168.249 134.496 158.983 134.496Z" fill-rule="evenodd" fill="#1E243A"/>
	</g>
	<g mask="url(#mask1_423)">
		<path id="Path 314" d="M189.34 134.254C182.547 134.254 175.92 136.625 170.681 140.93C170.181 141.341 170.109 142.079 170.52 142.579C170.93 143.079 171.668 143.151 172.168 142.74C176.99 138.779 183.088 136.597 189.34 136.597C204.266 136.597 216.409 148.74 216.409 163.665C216.409 164.312 216.933 164.836 217.58 164.836C218.227 164.836 218.751 164.312 218.751 163.665C218.751 147.448 205.558 134.254 189.34 134.254Z" fill-rule="evenodd" fill="#1E243A"/>
	</g>
	<g mask="url(#mask1_423)">
		<path id="Path 315" d="M183.798 161.957C183.151 161.957 182.626 162.481 182.626 163.128L182.626 177.808L180.752 177.808L180.752 99.5693C180.752 98.9226 180.228 98.3982 179.581 98.3982C178.934 98.3982 178.41 98.9226 178.41 99.5693L178.41 178.979C178.41 179.626 178.934 180.15 179.581 180.15L183.798 180.15C184.445 180.15 184.969 179.626 184.969 178.979L184.969 163.128C184.969 162.481 184.445 161.957 183.798 161.957Z" fill-rule="evenodd" fill="#1E243A"/>
	</g>
	<g mask="url(#mask1_423)">
		<path id="Path 316" d="M179.578 91.3706C177.107 91.3706 175.097 93.3809 175.097 95.8521C175.097 98.3232 177.107 100.333 179.578 100.333C182.049 100.333 184.06 98.3232 184.06 95.8521C184.06 93.3809 182.049 91.3706 179.578 91.3706ZM179.578 97.9912C178.399 97.9912 177.439 97.0315 177.439 95.8521C177.439 94.6726 178.399 93.7131 179.578 93.7131C180.758 93.7131 181.717 94.6726 181.717 95.8521C181.717 97.0315 180.758 97.9912 179.578 97.9912Z" fill-rule="evenodd" fill="#1E243A"/>
	</g>
	<g mask="url(#mask1_423)">
		<path id="Path 317" d="M199.424 100.73L179.699 100.73C179.052 100.73 178.528 101.255 178.528 101.902C178.528 102.549 179.052 103.073 179.699 103.073L198.253 103.073L198.253 106.642C198.253 107.289 198.777 107.813 199.424 107.813C200.071 107.813 200.595 107.289 200.595 106.642L200.595 101.902C200.595 101.255 200.071 100.73 199.424 100.73Z" fill-rule="evenodd" fill="#1E243A"/>
	</g>
	<g mask="url(#mask1_423)">
		<path id="Path 318" d="M194.404 118.481L179.699 118.481C179.052 118.481 178.528 119.006 178.528 119.653C178.528 120.3 179.052 120.824 179.699 120.824L194.404 120.824C195.051 120.824 195.575 120.3 195.575 119.653C195.575 119.006 195.051 118.481 194.404 118.481Z" fill-rule="evenodd" fill="#1E243A"/>
	</g>
	<g mask="url(#mask1_423)">
		<path id="Path 319" d="M218.115 106.659C217.945 106.199 217.507 105.895 217.017 105.895L194.71 105.895C194.063 105.895 193.539 106.419 193.539 107.066L193.539 124.817C193.539 125.464 194.063 125.988 194.71 125.988L217.017 125.988C217.507 125.988 217.945 125.683 218.115 125.224C218.286 124.765 218.152 124.248 217.78 123.929L208.486 115.941L217.78 107.954C218.152 107.635 218.286 107.118 218.115 106.659ZM205.926 115.053C205.667 115.276 205.518 115.6 205.518 115.941C205.518 116.283 205.667 116.607 205.926 116.83L213.857 123.646L195.881 123.646L195.881 108.237L213.857 108.237L205.926 115.053Z" fill-rule="evenodd" fill="#1E243A"/>
	</g>
	<g mask="url(#mask1_423)">
		<path id="Path 320" d="M98.2158 14.1387C93.6792 14.1387 89.3127 15.1106 85.2379 17.0278C84.6526 17.303 84.4014 18.0007 84.6768 18.5862C84.9521 19.1714 85.6499 19.4226 86.235 19.1475C89.9956 17.3782 94.0265 16.4812 98.2158 16.4812C113.753 16.4812 126.394 29.1218 126.394 44.6589C126.394 60.1963 113.753 72.8369 98.2158 72.8369L89.2184 72.8369C88.5714 72.8369 88.0471 73.3613 88.0471 74.0083C88.0471 74.655 88.5714 75.1794 89.2184 75.1794L98.2158 75.1794C115.045 75.1794 128.736 61.488 128.736 44.6589C128.736 27.8301 115.045 14.1387 98.2158 14.1387Z" fill-rule="evenodd" fill="#1E243A"/>
	</g>
	<g mask="url(#mask1_423)">
		<path id="Path 321" d="M23.2367 28.7065C10.424 28.7065 0 39.1306 0 51.9431C0 64.7559 10.424 75.1797 23.2367 75.1797L36.9231 75.1797C37.5698 75.1797 38.0942 74.6555 38.0942 74.0085C38.0942 73.3618 37.5698 72.8374 36.9231 72.8374L23.2367 72.8374C11.7156 72.8374 2.34247 63.4641 2.34247 51.9431C2.34247 40.4221 11.7156 31.0491 23.2367 31.0491C28.934 31.0491 34.2581 33.3005 38.2281 37.3892C38.6786 37.853 39.4202 37.8643 39.8844 37.4136C40.3484 36.9629 40.3594 36.2214 39.9087 35.7573C35.4937 31.2104 29.5729 28.7065 23.2367 28.7065Z" fill-rule="evenodd" fill="#1E243A"/>
	</g>
	<g mask="url(#mask1_423)">
		<path id="Path 322" d="M56.2277 0C47.9744 0 40.0066 2.98291 33.792 8.39917C27.6383 13.7625 23.6019 21.1414 22.4268 29.1768C22.3331 29.8169 22.7761 30.4114 23.4163 30.5049C24.0559 30.5991 24.6508 30.1558 24.7444 29.5156C27.0103 14.0244 40.545 2.34253 56.2277 2.34253C73.7732 2.34253 88.0474 16.6167 88.0474 34.1621C88.0474 34.8091 88.5717 35.3335 89.2186 35.3335C89.8655 35.3335 90.3899 34.8091 90.3899 34.1621C90.3899 25.0371 86.8363 16.4583 80.3839 10.0059C73.9315 3.55347 65.3527 0 56.2277 0Z" fill-rule="evenodd" fill="#1E243A"/>
	</g>
	<g mask="url(#mask1_423)">
		<path id="Path 323" d="M45.5836 14.1978C43.52 14.1978 41.8414 15.8765 41.8414 17.9397C41.8414 20.0029 43.52 21.6816 45.5836 21.6816C47.6469 21.6816 49.3254 20.0029 49.3254 17.9397C49.3254 15.8765 47.6469 14.1978 45.5836 14.1978ZM45.5836 19.3391C44.8119 19.3391 44.1838 18.7112 44.1838 17.9397C44.1838 17.168 44.8119 16.5403 45.5836 16.5403C46.3551 16.5403 46.983 17.168 46.983 17.9397C46.983 18.7112 46.3551 19.3391 45.5836 19.3391Z" fill-rule="evenodd" fill="#1E243A"/>
	</g>
	<g mask="url(#mask1_423)">
		<path id="Path 324" d="M56.4021 14.1978C54.3386 14.1978 52.66 15.8765 52.66 17.9397C52.66 20.0029 54.3386 21.6816 56.4021 21.6816C58.4655 21.6816 60.144 20.0029 60.144 17.9397C60.144 15.8765 58.4655 14.1978 56.4021 14.1978ZM56.4021 19.3391C55.6305 19.3391 55.0024 18.7112 55.0024 17.9397C55.0024 17.168 55.6305 16.5403 56.4021 16.5403C57.1737 16.5403 57.8016 17.168 57.8016 17.9397C57.8016 18.7112 57.1737 19.3391 56.4021 19.3391Z" fill-rule="evenodd" fill="#1E243A"/>
	</g>
	<g mask="url(#mask1_423)">
		<path id="Path 325" d="M67.2206 14.1978C65.1571 14.1978 63.4785 15.8765 63.4785 17.9397C63.4785 20.0029 65.1571 21.6816 67.2206 21.6816C69.2838 21.6816 70.9624 20.0029 70.9624 17.9397C70.9624 15.8765 69.2838 14.1978 67.2206 14.1978ZM67.2206 19.3391C66.449 19.3391 65.821 18.7112 65.821 17.9397C65.821 17.168 66.449 16.5403 67.2206 16.5403C67.9922 16.5403 68.6199 17.168 68.6199 17.9397C68.6199 18.7112 67.9922 19.3391 67.2206 19.3391Z" fill-rule="evenodd" fill="#1E243A"/>
	</g>
	<g mask="url(#mask1_423)">
		<path id="Path 326" d="M74.05 55.5325C73.4031 55.5325 72.8788 56.0569 72.8788 56.7036L72.8788 111.969C72.8788 112.615 73.4031 113.14 74.05 113.14C74.697 113.14 75.2212 112.615 75.2212 111.969L75.2212 56.7036C75.2212 56.0569 74.697 55.5325 74.05 55.5325Z" fill-rule="evenodd" fill="#1E243A"/>
	</g>
	<g mask="url(#mask1_423)">
		<path id="Path 327" d="M54.6863 55.5325C54.0393 55.5325 53.515 56.0569 53.515 56.7036L53.515 111.969C53.515 112.615 54.0393 113.14 54.6863 113.14C55.3333 113.14 55.8574 112.615 55.8574 111.969L55.8574 56.7036C55.8574 56.0569 55.3333 55.5325 54.6863 55.5325Z" fill-rule="evenodd" fill="#1E243A"/>
	</g>
	<g mask="url(#mask1_423)">
		<path id="Path 328" d="M73.936 61.6213L54.884 61.6213C54.2371 61.6213 53.7128 62.1458 53.7128 62.7925C53.7128 63.4395 54.2371 63.9639 54.884 63.9639L73.936 63.9639C74.583 63.9639 75.1073 63.4395 75.1073 62.7925C75.1073 62.1458 74.583 61.6213 73.936 61.6213Z" fill-rule="evenodd" fill="#1E243A"/>
	</g>
	<g mask="url(#mask1_423)">
		<path id="Path 329" d="M73.936 72.5527L54.884 72.5527C54.2371 72.5527 53.7128 73.0771 53.7128 73.7239C53.7128 74.3708 54.2371 74.8953 54.884 74.8953L73.936 74.8953C74.583 74.8953 75.1073 74.3708 75.1073 73.7239C75.1073 73.0771 74.583 72.5527 73.936 72.5527Z" fill-rule="evenodd" fill="#1E243A"/>
	</g>
	<g mask="url(#mask1_423)">
		<path id="Path 330" d="M73.936 83.3281L54.884 83.3281C54.2371 83.3281 53.7128 83.8525 53.7128 84.4993C53.7128 85.1462 54.2371 85.6707 54.884 85.6707L73.936 85.6707C74.583 85.6707 75.1073 85.1462 75.1073 84.4993C75.1073 83.8525 74.583 83.3281 73.936 83.3281Z" fill-rule="evenodd" fill="#1E243A"/>
	</g>
	<g mask="url(#mask1_423)">
		<path id="Path 331" d="M73.936 94.1035L54.884 94.1035C54.2371 94.1035 53.7128 94.6279 53.7128 95.2749C53.7128 95.9216 54.2371 96.446 54.884 96.446L73.936 96.446C74.583 96.446 75.1073 95.9216 75.1073 95.2749C75.1073 94.6279 74.583 94.1035 73.936 94.1035Z" fill-rule="evenodd" fill="#1E243A"/>
	</g>
	<g mask="url(#mask1_423)">
		<path id="Path 332" d="M73.936 104.879L54.884 104.879C54.2371 104.879 53.7128 105.403 53.7128 106.05C53.7128 106.697 54.2371 107.221 54.884 107.221L73.936 107.221C74.583 107.221 75.1073 106.697 75.1073 106.05C75.1073 105.403 74.583 104.879 73.936 104.879Z" fill-rule="evenodd" fill="#1E243A"/>
	</g>
	<g mask="url(#mask1_423)">
		<path id="Path 333" d="M64.3319 124.321C63.6848 124.321 63.1606 124.846 63.1606 125.493L63.1606 128.303C63.1606 128.95 63.6848 129.475 64.3319 129.475C64.9789 129.475 65.5032 128.95 65.5032 128.303L65.5032 125.493C65.5032 124.846 64.9789 124.321 64.3319 124.321Z" fill-rule="evenodd" fill="#1E243A"/>
	</g>
	<g mask="url(#mask1_423)">
		<path id="Path 334" d="M64.3319 146.965C63.6848 146.965 63.1606 147.49 63.1606 148.136L63.1606 153.759C63.1606 154.405 63.6848 154.93 64.3319 154.93C64.9789 154.93 65.5032 154.405 65.5032 153.759L65.5032 148.136C65.5032 147.49 64.9789 146.965 64.3319 146.965Z" fill-rule="evenodd" fill="#1E243A"/>
	</g>
	<g mask="url(#mask1_423)">
		<path id="Path 335" d="M64.3319 134.16C63.6848 134.16 63.1606 134.684 63.1606 135.331L63.1606 140.953C63.1606 141.6 63.6848 142.124 64.3319 142.124C64.9789 142.124 65.5032 141.6 65.5032 140.953L65.5032 135.331C65.5032 134.684 64.9789 134.16 64.3319 134.16Z" fill-rule="evenodd" fill="#1E243A"/>
	</g>
	<g mask="url(#mask1_423)">
		<path id="Path 336" d="M67.0647 162.504L65.5029 162.504L65.5029 160.942C65.5029 160.295 64.9788 159.771 64.3318 159.771C63.6848 159.771 63.1605 160.295 63.1605 160.942L63.1605 163.675C63.1605 164.322 63.6848 164.846 64.3318 164.846L67.0647 164.846C67.7117 164.846 68.2358 164.322 68.2358 163.675C68.2358 163.028 67.7117 162.504 67.0647 162.504Z" fill-rule="evenodd" fill="#1E243A"/>
	</g>
	<g mask="url(#mask1_423)">
		<path id="Path 337" d="M90.177 162.503L85.1798 162.503C84.5327 162.503 84.0085 163.028 84.0085 163.675C84.0085 164.322 84.5327 164.846 85.1798 164.846L90.177 164.846C90.824 164.846 91.3483 164.322 91.3483 163.675C91.3483 163.028 90.824 162.503 90.177 162.503Z" fill-rule="evenodd" fill="#1E243A"/>
	</g>
	<g mask="url(#mask1_423)">
		<path id="Path 338" d="M78.6208 162.503L73.6237 162.503C72.9767 162.503 72.4524 163.028 72.4524 163.675C72.4524 164.322 72.9767 164.846 73.6237 164.846L78.6208 164.846C79.2678 164.846 79.7921 164.322 79.7921 163.675C79.7921 163.028 79.2678 162.503 78.6208 162.503Z" fill-rule="evenodd" fill="#1E243A"/>
	</g>
	<g mask="url(#mask1_423)">
		<path id="Path 339" d="M101.733 162.503L96.7358 162.503C96.0889 162.503 95.5647 163.028 95.5647 163.675C95.5647 164.322 96.0889 164.846 96.7358 164.846L101.733 164.846C102.38 164.846 102.904 164.322 102.904 163.675C102.904 163.028 102.38 162.503 101.733 162.503Z" fill-rule="evenodd" fill="#1E243A"/>
	</g>
	<g mask="url(#mask1_423)">
		<path id="Path 340" d="M111.103 162.503L108.292 162.503C107.645 162.503 107.121 163.028 107.121 163.675C107.121 164.322 107.645 164.846 108.292 164.846L111.103 164.846C111.75 164.846 112.274 164.322 112.274 163.675C112.274 163.028 111.75 162.503 111.103 162.503Z" fill-rule="evenodd" fill="#1E243A"/>
	</g>
	<g mask="url(#mask1_423)">
		<path id="Path 341" d="M234.313 16.2258C233.531 15.8621 232.602 16.1978 232.236 16.98C231.871 17.761 232.21 18.6902 232.99 19.0554C233.204 19.1555 233.429 19.2024 233.651 19.2024C234.239 19.2024 234.802 18.8696 235.066 18.3027C235.431 17.5205 235.094 16.5913 234.313 16.2258Z" fill-rule="evenodd" fill="#1E243A"/>
	</g>
	<g mask="url(#mask1_423)">
		<path id="Path 342" d="M230.49 9.61572C230.778 9.84204 231.12 9.95288 231.46 9.95288C231.921 9.95288 232.377 9.75 232.684 9.35962C233.22 8.68481 233.106 7.70264 232.43 7.16699C231.754 6.63135 230.771 6.74536 230.236 7.42163C229.7 8.09766 229.814 9.08008 230.49 9.61572Z" fill-rule="evenodd" fill="#1E243A"/>
	</g>
	<g mask="url(#mask1_423)">
		<path id="Path 343" d="M240.855 9.81543C241.209 9.81543 241.566 9.69531 241.859 9.4502C242.52 8.89575 242.605 7.9104 242.05 7.24976C241.495 6.58911 240.511 6.50317 239.851 7.05908C239.19 7.61353 239.104 8.59741 239.659 9.25952C239.968 9.62646 240.41 9.81543 240.855 9.81543Z" fill-rule="evenodd" fill="#1E243A"/>
	</g>
	<g mask="url(#mask1_423)">
		<path id="Path 344" d="M229.958 12.0269C229.118 12.2251 228.598 13.0652 228.796 13.9055C228.966 14.6238 229.607 15.1079 230.316 15.1079C230.434 15.1079 230.554 15.0938 230.675 15.0657C231.515 14.8674 232.035 14.0273 231.836 13.187C231.638 12.3484 230.797 11.8284 229.958 12.0269Z" fill-rule="evenodd" fill="#1E243A"/>
	</g>
	<g mask="url(#mask1_423)">
		<path id="Path 345" d="M242.462 11.844C241.617 11.6707 240.791 12.2156 240.619 13.0605C240.444 13.9053 240.989 14.7297 241.834 14.9031C241.94 14.925 242.045 14.936 242.149 14.936C242.876 14.936 243.525 14.4268 243.678 13.6882C243.852 12.8433 243.307 12.0173 242.462 11.844Z" fill-rule="evenodd" fill="#1E243A"/>
	</g>
	<g mask="url(#mask1_423)">
		<path id="Path 346" d="M236.214 4.52905C235.35 4.52905 234.652 5.22705 234.652 6.09082C234.652 6.95264 235.35 7.65234 236.214 7.65234C237.076 7.65234 237.776 6.95264 237.776 6.09082C237.776 5.22705 237.076 4.52905 236.214 4.52905Z" fill-rule="evenodd" fill="#1E243A"/>
	</g>
	<g mask="url(#mask1_423)">
		<path id="Path 347" d="M238.231 16.1697C237.46 16.5569 237.149 17.4954 237.538 18.2668C237.811 18.812 238.362 19.1257 238.934 19.1257C239.17 19.1257 239.409 19.0728 239.635 18.9587C240.405 18.5715 240.716 17.6328 240.329 16.863C239.94 16.0916 239.001 15.7822 238.231 16.1697Z" fill-rule="evenodd" fill="#1E243A"/>
	</g>
	<g mask="url(#mask1_423)">
		<path id="Path 348" d="M141.438 75.0969C141.723 75.325 142.067 75.4343 142.406 75.4343C142.866 75.4343 143.322 75.2312 143.632 74.8423C144.166 74.1663 144.052 73.1841 143.375 72.6499C142.699 72.1143 141.717 72.2283 141.181 72.9043C140.647 73.5806 140.761 74.563 141.438 75.0969Z" fill-rule="evenodd" fill="#1E243A"/>
	</g>
	<g mask="url(#mask1_423)">
		<path id="Path 349" d="M140.903 77.5095C140.065 77.7063 139.545 78.5481 139.743 79.3882C139.912 80.1082 140.554 80.5906 141.261 80.5906C141.38 80.5906 141.5 80.5767 141.622 80.5486C142.46 80.3501 142.98 79.51 142.782 78.6699C142.584 77.8296 141.744 77.3113 140.903 77.5095Z" fill-rule="evenodd" fill="#1E243A"/>
	</g>
	<g mask="url(#mask1_423)">
		<path id="Path 350" d="M151.802 75.2983C152.157 75.2983 152.513 75.1782 152.805 74.9331C153.465 74.3787 153.551 73.3933 152.997 72.7327C152.442 72.072 151.457 71.9861 150.796 72.5405C150.136 73.0964 150.05 74.082 150.606 74.741C150.914 75.1094 151.357 75.2983 151.802 75.2983Z" fill-rule="evenodd" fill="#1E243A"/>
	</g>
	<g mask="url(#mask1_423)">
		<path id="Path 351" d="M149.177 81.6528C148.407 82.04 148.096 82.9785 148.484 83.7485C148.759 84.2949 149.308 84.6089 149.88 84.6089C150.116 84.6089 150.356 84.5559 150.581 84.4419C151.351 84.0547 151.662 83.116 151.275 82.3462C150.886 81.5747 149.949 81.2639 149.177 81.6528Z" fill-rule="evenodd" fill="#1E243A"/>
	</g>
	<g mask="url(#mask1_423)">
		<path id="Path 352" d="M153.409 77.3269C152.564 77.1536 151.738 77.6973 151.565 78.5417C151.391 79.385 151.935 80.2129 152.78 80.3862C152.886 80.408 152.992 80.4192 153.097 80.4192C153.821 80.4192 154.473 79.9099 154.624 79.1714C154.797 78.3264 154.254 77.5005 153.409 77.3269Z" fill-rule="evenodd" fill="#1E243A"/>
	</g>
	<g mask="url(#mask1_423)">
		<path id="Path 353" d="M147.16 70.0105C146.297 70.0105 145.598 70.7102 145.598 71.5723C145.598 72.4358 146.297 73.1338 147.16 73.1338C148.021 73.1338 148.721 72.4358 148.721 71.5723C148.721 70.7102 148.021 70.0105 147.16 70.0105Z" fill-rule="evenodd" fill="#1E243A"/>
	</g>
	<g mask="url(#mask1_423)">
		<path id="Path 354" d="M145.259 81.709C144.478 81.3435 143.547 81.6807 143.184 82.4631C142.818 83.2441 143.156 84.1731 143.938 84.5386C144.152 84.6387 144.375 84.6855 144.597 84.6855C145.184 84.6855 145.748 84.3528 146.013 83.7844C146.379 83.0034 146.04 82.0745 145.259 81.709Z" fill-rule="evenodd" fill="#1E243A"/>
	</g>
	<g mask="url(#mask1_423)">
		<path id="Path 355" d="M6.02881 184.253C6.31458 184.481 6.65662 184.592 6.99701 184.592C7.4577 184.592 7.9137 184.389 8.22308 183.998C8.75714 183.322 8.64301 182.34 7.9668 181.804C7.29065 181.27 6.30835 181.384 5.77429 182.06C5.23718 182.736 5.3526 183.719 6.02881 184.253Z" fill-rule="evenodd" fill="#1E243A"/>
	</g>
	<g mask="url(#mask1_423)">
		<path id="Path 356" d="M16.3936 184.454C16.748 184.454 17.1041 184.334 17.3962 184.089C18.0568 183.534 18.1427 182.549 17.5883 181.888C17.0341 181.228 16.0485 181.142 15.3881 181.696C14.7273 182.25 14.6415 183.236 15.1958 183.897C15.5051 184.265 15.9471 184.454 16.3936 184.454Z" fill-rule="evenodd" fill="#1E243A"/>
	</g>
	<g mask="url(#mask1_423)">
		<path id="Path 357" d="M5.495 186.664C4.65619 186.862 4.13635 187.704 4.33466 188.544C4.50336 189.262 5.14514 189.747 5.85242 189.747C5.97125 189.747 6.09296 189.732 6.21332 189.704C7.05194 189.506 7.57196 188.666 7.37347 187.826C7.17529 186.985 6.33496 186.467 5.495 186.664Z" fill-rule="evenodd" fill="#1E243A"/>
	</g>
	<g mask="url(#mask1_423)">
		<path id="Path 358" d="M13.7686 190.808C12.9971 191.196 12.6879 192.134 13.0752 192.904C13.35 193.451 13.8997 193.765 14.4713 193.765C14.707 193.765 14.9475 193.711 15.1725 193.597C15.9424 193.21 16.2531 192.271 15.8658 191.502C15.4768 190.73 14.5385 190.421 13.7686 190.808Z" fill-rule="evenodd" fill="#1E243A"/>
	</g>
	<g mask="url(#mask1_423)">
		<path id="Path 359" d="M17.999 186.482C17.1556 186.309 16.3296 186.854 16.1562 187.699C15.9829 188.544 16.5264 189.368 17.3712 189.542C17.4774 189.563 17.5836 189.574 17.6866 189.574C18.4128 189.574 19.064 189.065 19.2155 188.327C19.3888 187.482 18.8439 186.656 17.999 186.482Z" fill-rule="evenodd" fill="#1E243A"/>
	</g>
	<g mask="url(#mask1_423)">
		<path id="Path 360" d="M11.7509 179.166C10.8889 179.166 10.1893 179.866 10.1893 180.728C10.1893 181.59 10.8889 182.29 11.7509 182.29C12.6129 182.29 13.3125 181.59 13.3125 180.728C13.3125 179.866 12.6129 179.166 11.7509 179.166Z" fill-rule="evenodd" fill="#1E243A"/>
	</g>
	<g mask="url(#mask1_423)">
		<path id="Path 361" d="M9.8504 190.865C9.06958 190.499 8.14038 190.837 7.77496 191.619C7.40955 192.4 7.7467 193.329 8.52753 193.694C8.74146 193.794 8.96649 193.841 9.18823 193.841C9.77527 193.841 10.3392 193.509 10.6047 192.94C10.9685 192.159 10.6312 191.23 9.8504 190.865Z" fill-rule="evenodd" fill="#1E243A"/>
	</g>
	<g mask="url(#mask1_423)">
		<path id="Path 362" d="M214.562 53.5789C213.915 53.5789 213.391 54.1033 213.391 54.75L213.391 62.7144C213.391 63.3613 213.915 63.8857 214.562 63.8857C215.209 63.8857 215.733 63.3613 215.733 62.7144L215.733 54.75C215.733 54.1033 215.209 53.5789 214.562 53.5789Z" fill-rule="evenodd" fill="#1E243A"/>
	</g>
	<g mask="url(#mask1_423)">
		<path id="Path 363" d="M218.544 57.561L210.58 57.561C209.933 57.561 209.409 58.0854 209.409 58.7322C209.409 59.3792 209.933 59.9036 210.58 59.9036L218.544 59.9036C219.191 59.9036 219.715 59.3792 219.715 58.7322C219.715 58.0854 219.191 57.561 218.544 57.561Z" fill-rule="evenodd" fill="#1E243A"/>
	</g>
	<g mask="url(#mask1_423)">
		<path id="Path 364" d="M96.0332 134.16C95.3862 134.16 94.8621 134.684 94.8621 135.331L94.8621 143.295C94.8621 143.942 95.3862 144.467 96.0332 144.467C96.6802 144.467 97.2046 143.942 97.2046 143.295L97.2046 135.331C97.2046 134.684 96.6802 134.16 96.0332 134.16Z" fill-rule="evenodd" fill="#1E243A"/>
	</g>
	<g mask="url(#mask1_423)">
		<path id="Path 365" d="M100.015 138.142L92.051 138.142C91.4041 138.142 90.8799 138.667 90.8799 139.313C90.8799 139.96 91.4041 140.485 92.051 140.485L100.015 140.485C100.662 140.485 101.187 139.96 101.187 139.313C101.187 138.667 100.662 138.142 100.015 138.142Z" fill-rule="evenodd" fill="#1E243A"/>
	</g>
	<g mask="url(#mask1_423)">
		<path id="Path 366" d="M27.6333 134.16C26.9863 134.16 26.462 134.684 26.462 135.331L26.462 143.295C26.462 143.942 26.9863 144.467 27.6333 144.467C28.2803 144.467 28.8044 143.942 28.8044 143.295L28.8044 135.331C28.8044 134.684 28.2803 134.16 27.6333 134.16Z" fill-rule="evenodd" fill="#1E243A"/>
	</g>
	<g mask="url(#mask1_423)">
		<path id="Path 367" d="M31.6155 138.142L23.6511 138.142C23.0042 138.142 22.4799 138.667 22.4799 139.313C22.4799 139.96 23.0042 140.485 23.6511 140.485L31.6155 140.485C32.2625 140.485 32.7867 139.96 32.7867 139.313C32.7867 138.667 32.2625 138.142 31.6155 138.142Z" fill-rule="evenodd" fill="#1E243A"/>
	</g>
	<defs>
		<linearGradient id="paint_linear_1_417_0" x1="45.583603" y1="15.368652" x2="45.583603" y2="20.510048" gradientUnits="userSpaceOnUse">
			<stop stop-color="#FF58E9"/>
			<stop offset="1.000000" stop-color="#C082FF"/>
		</linearGradient>
		<linearGradient id="paint_linear_1_418_0" x1="56.402100" y1="15.368652" x2="56.402100" y2="20.510048" gradientUnits="userSpaceOnUse">
			<stop stop-color="#FF58E9"/>
			<stop offset="1.000000" stop-color="#C082FF"/>
		</linearGradient>
		<linearGradient id="paint_linear_1_419_0" x1="67.220352" y1="15.368652" x2="67.220352" y2="20.510048" gradientUnits="userSpaceOnUse">
			<stop stop-color="#FF58E9"/>
			<stop offset="1.000000" stop-color="#C082FF"/>
		</linearGradient>
		<linearGradient id="paint_linear_1_420_0" x1="189.561829" y1="101.901611" x2="189.561829" y2="119.652832" gradientUnits="userSpaceOnUse">
			<stop stop-color="#FF58E9"/>
			<stop offset="1.000000" stop-color="#C082FF"/>
		</linearGradient>
		<linearGradient id="paint_linear_1_421_0" x1="205.863647" y1="107.065430" x2="205.863647" y2="124.816589" gradientUnits="userSpaceOnUse">
			<stop stop-color="#FF58E9"/>
			<stop offset="1.000000" stop-color="#C082FF"/>
		</linearGradient>
	</defs>
</svg>
