<svg width="249.000000" height="71.000000" viewBox="0 0 249 71" fill="none" xmlns="http://www.w3.org/2000/svg" xmlns:xlink="http://www.w3.org/1999/xlink">
	<desc>
			Created with Pixso.
	</desc>
	<path id="形状_756" d="M127.991 45.6025C128.026 43.978 129.374 42.6997 130.998 42.7344C132.622 42.769 133.9 44.1167 133.866 45.7407C133.831 47.3301 132.518 48.6084 130.929 48.6084C129.304 48.5742 127.991 47.2266 127.991 45.6025ZM164.101 22.2085L164.101 28.1523L155.151 28.1523C152.145 28.1523 150.037 28.8433 148.897 30.2256C147.791 31.5386 147.239 33.5083 147.239 36.1689C147.239 39.1406 148.137 41.3174 149.968 42.6997C150.694 43.2183 151.523 43.5981 152.387 43.8057C153.597 44.0474 154.806 44.1509 156.05 44.1167L164.101 44.1167L164.101 50.0601L153.873 50.0601C151.661 50.1289 149.45 49.8525 147.342 49.1958C145.684 48.6084 144.232 47.5718 143.092 46.2241C140.673 43.3906 139.429 39.7627 139.567 36.0308C139.567 31.0547 140.949 27.3574 143.748 24.9385C144.889 23.9365 146.271 23.2109 147.757 22.8306C149.761 22.3813 151.8 22.1743 153.838 22.2085L164.101 22.2085ZM182.346 21.8286C187.357 21.8286 191.089 23.3145 193.438 26.2861C195.719 29.189 196.859 32.8169 196.721 36.5146C196.894 40.4189 195.373 44.2202 192.574 46.9155C190.052 49.2651 186.596 50.4746 182.208 50.4746C177.681 50.4746 174.122 49.127 171.531 46.4663C169.146 44.0474 167.971 40.5571 167.971 35.9268C167.868 32.3677 169.077 28.9121 171.392 26.2173C173.949 23.3145 177.578 21.8633 182.346 21.8286ZM182.415 27.6338C177.923 27.6338 175.677 30.502 175.677 36.2036C175.573 38.0347 175.954 39.8662 176.783 41.5249C177.958 43.5635 180.135 44.7383 182.484 44.6001C186.907 44.6001 189.119 41.7666 189.119 36.0654C189.119 30.5366 186.873 27.7373 182.415 27.6338ZM202.284 22.2085L229.755 22.2085C231.656 22.1396 233.591 22.3472 235.457 22.7617C236.701 23.1069 237.841 23.7983 238.74 24.7656C240.467 26.8735 241.366 29.5688 241.193 32.3335L241.193 50.0601L233.729 50.0601L233.729 33.5425C233.764 32.6099 233.695 31.6768 233.556 30.7437C233.453 30.1909 233.176 29.707 232.762 29.3271C231.794 28.4976 230.516 28.0483 229.237 28.1523L225.263 28.1523L225.263 50.0601L217.799 50.0601L217.799 28.1523L209.748 28.1523L209.748 50.0601L202.284 50.0601L202.284 22.2085ZM85.3162 36.1343L74.5352 21.8633L83.1047 21.8633L89.5664 31.3657L96.5465 21.8633L105.012 21.8633L93.8859 36.1343L105.012 50.6821L96.7885 50.6821L89.5664 40.7993L82.4828 50.6821L74.155 50.6821L85.3162 36.1343ZM115.932 27.0117L103.319 27.0117L107.708 21.8633L133.831 21.8633L133.831 27.0117L122.946 27.0117L122.946 50.7163L115.966 50.7163L115.932 27.0117Z" fill-rule="evenodd" fill="#FFBE40"/>
	<path id="形状_756_拷贝" d="M127.991 45.6021C128.026 43.978 129.374 42.6997 130.998 42.7339C132.622 42.7686 133.9 44.1162 133.866 45.7402C133.831 47.3301 132.518 48.6084 130.929 48.6084C129.305 48.5737 127.991 47.2261 127.991 45.6021Z" fill-rule="evenodd" fill="#FFBE40"/>
	<path id="形状_519" d="M35.3499 62.603C20.3186 62.7065 8.05164 50.6123 7.94788 35.6157C7.84424 20.584 19.9385 8.31738 34.9353 8.21338C49.9666 8.10986 62.2335 20.1694 62.3373 35.2007L62.3373 35.4082C62.3718 50.3706 50.3121 62.5337 35.3499 62.603ZM35.3499 12.2563C22.5646 12.1875 12.129 22.4502 12.0599 35.27C11.9908 48.0552 22.2537 58.4907 35.0735 58.5601C47.8588 58.6289 58.2943 48.3662 58.3634 35.5811L58.3634 35.4082C58.3634 22.6577 48.1006 12.3257 35.3499 12.2563ZM36.3174 31.6763L41.5353 25.2837C42.0881 24.627 41.9845 23.625 41.3279 23.0723C41.0515 22.8647 40.7059 22.7266 40.3604 22.7266C39.9111 22.7266 39.4619 22.9341 39.1855 23.2793L34.3478 29.1885L29.4756 23.2793C29.1991 22.9341 28.7499 22.7266 28.3008 22.7266L24.2924 22.7266C23.4285 22.7266 22.7374 23.4521 22.7374 24.3159C22.7374 24.6616 22.8756 25.0073 23.0829 25.2837L30.3049 34.0952L21.1133 45.3599C20.5604 46.0166 20.595 46.9839 21.2515 47.5371C21.9081 48.0898 22.8756 48.0552 23.4285 47.3989L32.3091 36.5483L36.3174 31.6763ZM48.4116 22.7266C47.9624 22.7266 47.5132 22.9341 47.2368 23.2793L38.4253 34.0952L34.4169 39.002L29.1991 45.3945C28.6462 46.0513 28.7153 47.0186 29.3719 47.5713C30.0284 48.1245 30.996 48.0552 31.5488 47.3989L36.3866 41.4897L41.2242 47.3989C41.5007 47.7441 41.9498 47.9517 42.399 47.9517L46.4075 47.9517C47.2714 47.9517 47.9624 47.2607 47.9624 46.3965C47.9624 46.0166 47.8242 45.6709 47.5823 45.3945L40.3949 36.583L49.5865 25.3184C50.1394 24.627 50.0011 23.6597 49.3446 23.1069C49.1028 22.8647 48.7572 22.7612 48.4116 22.7266Z" fill-rule="evenodd" fill="#FFBE40"/>
	<defs/>
</svg>
