<svg width="243.000000" height="70.000000" viewBox="0 0 243 70" fill="none" xmlns="http://www.w3.org/2000/svg" xmlns:xlink="http://www.w3.org/1999/xlink">
	<desc>
			Created with Pixso.
	</desc>
	<path id="Fill-77" d="M44.9997 12.9165C41.4992 10.0278 36.7073 8.60059 30.59 8.60059L15.3647 8.60059L15.3647 10.7417L30.3181 10.7417C35.5179 10.7417 40.2078 11.7954 43.0965 14.3101C45.9852 16.8252 48.1263 20.4951 48.1263 25.0493C48.1263 29.4673 46.2231 32.6958 43.2664 35.1768C40.3098 37.6577 34.9401 38.7451 29.6045 38.7451L12.442 38.7451L12.442 40.8862L29.7404 40.8862C36.1636 40.8862 41.1934 39.4932 44.8297 36.7061C48.4322 33.9194 50.2673 29.9771 50.2673 24.9136C50.2673 19.7476 48.5001 15.7715 44.9997 12.9165Z" fill-rule="evenodd" fill="#1C1E1D"/>
	<path id="Fill-79" d="M43.7083 15.9756C41.5332 14.3101 39.0523 12.9849 31.9834 12.9849L20.2246 12.9849L20.2246 15.0581C20.2246 15.0581 25.4922 14.9902 31.7115 15.0581C37.7269 15.126 39.9359 15.8057 41.975 17.3008C44.5579 19.2041 46.1891 21.583 46.1891 24.8799C46.1891 28.0742 44.5579 30.3174 41.941 32.2544C39.2902 34.2256 35.212 34.2256 33.5467 34.2935C32.935 34.2935 24.8126 34.2935 24.8126 34.2935L24.8126 36.3667C24.8126 36.3667 28.8228 36.4346 31.3377 36.3667C37.0472 36.2305 40.4457 35.8906 43.6063 33.5459C46.563 31.3369 48.1263 28.4482 48.1263 24.7778C48.1263 19.9517 45.6794 17.5391 43.7083 15.9756Z" fill-rule="evenodd" fill="#1C1E1D"/>
	<path id="Fill-80" d="M42.6547 18.728C41.0234 17.7085 39.5961 17.0288 32.833 17.0288L24.3708 17.0288L24.3708 18.3882L32.5952 18.3882C38.5765 18.3882 40.8195 19.4419 41.5332 19.8838C42.8926 20.6992 44.6598 22.0586 44.6598 24.7773C44.6598 26.5107 43.6403 28.7197 42.111 29.5693C40.7176 30.3511 38.1687 31.0645 33.7166 31.0645L6.12079 31.0645L6.12079 32.4238L33.7846 32.4238C39.1882 32.4238 41.0234 31.8125 42.9266 30.7588C44.8297 29.7051 46.1212 27.5303 46.1212 24.7773C46.1212 21.6509 44.3879 19.8154 42.6547 18.728Z" fill-rule="evenodd" fill="#1C1E1D"/>
	<path id="Fill-81" d="M48.0244 33.7832C44.5239 30.8945 39.732 29.4673 33.6147 29.4673L23.4192 29.4673L23.4192 31.6084L33.3088 31.6084C38.5085 31.6084 43.1985 32.6958 46.0872 35.1768C48.9759 37.6577 51.151 41.3618 51.151 45.916C51.151 50.334 49.2818 53.5625 46.2911 56.0435C43.3004 58.5244 37.9648 59.6118 32.6292 59.6118L15.4667 59.6118L15.4667 61.7529L32.7651 61.7529C39.1882 61.7529 44.218 60.3599 47.8544 57.5728C51.4908 54.7861 53.292 50.8438 53.292 45.7803C53.2581 40.6484 51.5248 36.6719 48.0244 33.7832Z" fill-rule="evenodd" fill="#1C1E1D"/>
	<path id="Fill-82" d="M46.7329 36.8418C44.5579 35.2104 42.077 33.8511 35.0081 33.8511L19.0351 33.8511L19.0351 35.9243C19.0351 35.9243 28.5169 35.8564 34.7362 35.9243C40.7515 35.9922 42.9606 36.6719 44.9997 38.167C47.5825 40.0703 49.2138 42.4492 49.2138 45.7456C49.2138 48.9404 47.5825 51.1836 44.9657 53.1206C42.3148 55.0918 38.2366 55.0918 36.5714 55.1597C35.9597 55.1597 27.8372 55.1597 27.8372 55.1597L27.8372 57.2329C27.8372 57.2329 31.8814 57.3008 34.3624 57.2329C40.0718 57.0967 43.4703 56.7568 46.631 54.4121C49.5876 52.2031 51.1509 49.3145 51.1509 45.644C51.1509 40.8521 48.738 38.4053 46.7329 36.8418Z" fill-rule="evenodd" fill="#1C1E1D"/>
	<path id="Fill-83" d="M22.4336 43.9106L37.421 43.9106L37.421 42.7554L22.4336 42.7554L22.4336 43.9106Z" fill-rule="evenodd" fill="#1C1E1D"/>
	<path id="Fill-84" d="M28.6189 47.9551L37.319 47.9551L37.319 46.9697L28.6189 46.9697L28.6189 47.9551Z" fill-rule="evenodd" fill="#1C1E1D"/>
	<path id="Fill-85" d="M15.4667 43.9106L19.8847 43.9106L19.8847 42.7554L15.4667 42.7554L15.4667 43.9106Z" fill-rule="evenodd" fill="#1C1E1D"/>
	<path id="Fill-86" d="M12.6799 48.0234L26.172 48.0234L26.172 46.8677L12.6799 46.8677L12.6799 48.0234Z" fill-rule="evenodd" fill="#1C1E1D"/>
	<path id="Fill-87" d="M16.0104 18.2861L21.2781 18.2861L21.2781 17.3345L16.0104 17.3345L16.0104 18.2861Z" fill-rule="evenodd" fill="#1C1E1D"/>
	<path id="Fill-88" d="M12.3741 26.0347L24.3708 26.0347L24.3708 24.9473L12.3741 24.9473L12.3741 26.0347Z" fill-rule="evenodd" fill="#1C1E1D"/>
	<path id="Fill-89" d="M12.6799 57.0972L25.3564 57.0972L25.3564 55.7378L12.6799 55.7378L12.6799 57.0972Z" fill-rule="evenodd" fill="#1C1E1D"/>
	<path id="Fill-90" d="M9.55328 61.6167L12.7139 61.6167L12.7139 59.6118L9.55328 59.6118L9.55328 61.6167Z" fill-rule="evenodd" fill="#1C1E1D"/>
	<path id="Fill-91" d="M17.4378 22.6362L37.353 22.6362L37.353 21.5488L17.4378 21.5488L17.4378 22.6362Z" fill-rule="evenodd" fill="#1C1E1D"/>
	<path id="Fill-92" d="M27.3954 26.0347L36.9792 26.0347L36.9792 24.9473L27.3954 24.9473L27.3954 26.0347Z" fill-rule="evenodd" fill="#1C1E1D"/>
	<path id="Fill-93" d="M45.6794 39.7983C44.0481 38.813 42.6207 38.1333 35.8577 38.1333L25.1184 38.1333L25.1184 39.4585L35.6538 39.4585C41.6352 39.4585 43.9122 40.4785 44.5919 40.8862C45.9173 41.668 47.7185 42.959 47.7185 45.6099C47.7185 47.3091 46.6989 49.4165 45.1696 50.2319C43.7762 50.9795 41.2274 51.6592 36.7753 51.6592L9.14548 51.6592L9.14548 52.9849L36.8093 52.9849C42.2129 52.9849 44.0481 52.4072 45.9513 51.3877C47.8544 50.3682 49.1119 48.2949 49.1119 45.6099C49.1459 42.6533 47.4126 40.8862 45.6794 39.7983Z" fill-rule="evenodd" fill="#1C1E1D"/>
	<path id="Fill-94" d="M74.0229 36.8423L74.0229 48.9746L80.65 48.9746C83.5047 48.9746 85.7477 48.4312 87.3111 47.3438C88.8404 46.3579 89.724 44.6587 89.69 42.8237C89.69 38.8472 86.3255 36.8423 79.6304 36.8423L74.0229 36.8423ZM74.0229 22.3984L74.0229 33.2739L79.0187 33.2739C81.7035 33.2739 83.7766 32.7642 85.3059 31.7104C86.8013 30.7588 87.6849 29.0596 87.6169 27.2925C87.6169 24.0298 84.9661 22.3647 79.6304 22.3647L74.0229 22.3984ZM69.129 52.5435L69.129 18.8301L80.9898 18.8301C84.5923 18.8301 87.447 19.5439 89.5541 20.9712C91.6611 22.3984 92.7147 24.2676 92.7147 26.5449C92.7486 28.3799 92.0689 30.1812 90.8115 31.5405C89.5201 32.9678 87.7868 33.9536 85.5438 34.5649L85.5438 34.667C88.3646 34.939 90.6076 35.7886 92.2729 37.25C93.9381 38.6436 94.8557 40.7163 94.7877 42.8916C94.7877 45.7803 93.4963 48.0913 90.9474 49.8926C88.3986 51.6938 85.17 52.5771 81.2617 52.5771L69.129 52.5435Z" fill-rule="evenodd" fill="#1C1E1D"/>
	<path id="Fill-95" d="M100.225 52.543L104.983 52.543L104.983 28.4814L100.225 28.4814L100.225 52.543ZM102.638 22.3301C101.857 22.3643 101.075 22.0923 100.463 21.6167C99.8855 21.2085 99.5457 20.5288 99.5797 19.8491C99.5797 19.1357 99.9195 18.4561 100.463 18.0479C101.075 17.5723 101.857 17.3003 102.638 17.3345C103.454 17.3003 104.236 17.5723 104.847 18.0479C105.833 18.7617 106.037 20.1211 105.357 21.1069C105.221 21.3105 105.051 21.4805 104.847 21.6167C104.236 22.1265 103.454 22.3643 102.638 22.3301Z" fill-rule="evenodd" fill="#1C1E1D"/>
	<path id="Fill-96" d="M126.02 52.3052C124.898 52.8149 123.403 53.0532 121.568 53.0532C116.368 53.0532 113.751 50.708 113.751 45.9844L113.751 31.7446L108.654 31.7446L108.654 28.4478L113.751 28.4478L113.751 22.5684L118.509 21.311L118.509 28.4478L125.986 28.4478L125.986 31.7446L118.509 31.7446L118.509 45.3047C118.509 46.9019 118.849 48.0571 119.529 48.771C120.209 49.4844 121.33 49.7905 122.893 49.7905C123.981 49.8247 125.068 49.5527 125.986 48.9746L126.02 52.3052Z" fill-rule="evenodd" fill="#1C1E1D"/>
	<path id="Fill-97" d="M169.283 52.543L164.831 52.543L164.831 31.7441C164.865 29.7393 164.967 27.6997 165.205 25.6948L165.103 25.6948C164.831 26.7144 164.423 27.7339 163.947 28.6855L150.863 52.5088L148.654 52.5088L135.604 28.8555C135.094 27.8359 134.72 26.7822 134.448 25.6606L134.346 25.6606C134.516 27.666 134.584 29.7051 134.55 31.7441L134.55 52.5088L130.234 52.5088L130.234 21.5146L136.181 21.5146L147.94 43.1289C148.62 44.3184 149.232 45.5762 149.708 46.8677L149.877 46.8677C150.659 45.1685 151.271 43.9106 151.713 43.061L163.709 21.5146L169.317 21.5146L169.283 52.543Z" fill-rule="evenodd" fill="#1C1E1D"/>
	<path id="Fill-98" d="M193.48 40.3423L186.31 41.1582C184.1 41.396 182.435 41.8379 181.314 42.4834C180.192 43.1289 179.614 44.2505 179.614 45.8477C179.614 47.0034 180.192 48.0908 181.178 48.7368C182.197 49.4844 183.591 49.8584 185.324 49.8584C187.703 49.8584 189.64 49.1782 191.169 47.853C192.665 46.5957 193.514 44.7266 193.48 42.7554L193.48 40.3423ZM198.238 52.543L193.48 52.543L193.48 48.7705L193.378 48.7705C191.305 51.6592 188.247 53.0869 184.236 53.0869C181.28 53.0869 178.969 52.4409 177.27 51.1836C175.638 50.0283 174.721 48.125 174.755 46.1196C174.755 41.6338 178.017 39.0171 184.576 38.269L193.48 37.2495C193.48 33.1714 191.441 31.1323 187.363 31.1323C183.897 31.0986 180.532 32.1182 177.677 34.0889L177.677 30.147C180.6 28.6514 183.965 27.9038 187.771 27.9038C194.772 27.9038 198.238 30.8945 198.238 36.876L198.238 52.543Z" fill-rule="evenodd" fill="#1C1E1D"/>
	<path id="Fill-99" d="M220.328 32.356C219.479 31.8462 218.289 31.5742 216.726 31.5742C214.755 31.5405 212.886 32.3901 211.628 33.9194C210.269 35.4829 209.589 37.5898 209.589 40.2744L209.589 52.5435L204.831 52.5435L204.831 28.4819L209.589 28.4819L209.589 33.4434L209.691 33.4434C210.303 31.8462 211.39 30.4531 212.818 29.4673C214.177 28.5156 215.808 28.04 217.508 28.04C218.459 28.0059 219.445 28.1079 220.362 28.3799L220.328 32.356Z" fill-rule="evenodd" fill="#1C1E1D"/>
	<path id="Fill-100" d="M236.913 52.3052C235.792 52.8149 234.296 53.0532 232.461 53.0532C227.261 53.0532 224.644 50.708 224.644 45.9844L224.644 31.7446L219.547 31.7446L219.547 28.4478L224.644 28.4478L224.644 22.5684L229.402 21.311L229.402 28.4478L236.879 28.4478L236.879 31.7446L229.402 31.7446L229.402 45.3047C229.402 46.9019 229.742 48.0571 230.422 48.771C231.102 49.4844 232.223 49.7905 233.787 49.7905C234.874 49.8247 235.962 49.5527 236.879 48.9746L236.913 52.3052Z" fill-rule="evenodd" fill="#1C1E1D"/>
	<defs/>
</svg>
