<svg width="340.275757" height="52.497070" viewBox="0 0 340.276 52.4971" fill="none" xmlns="http://www.w3.org/2000/svg" xmlns:xlink="http://www.w3.org/1999/xlink">
	<desc>
			Created with Pixso.
	</desc>
	<path id="Path 369" d="M65.8873 40.8076C65.0371 40.8076 64.6121 40.5952 64.187 40.3823C63.9744 39.9575 63.7619 39.5322 63.7619 38.8945L63.7619 15.0903C63.7619 14.4526 63.9744 13.8149 64.187 13.6025C64.6121 13.1772 65.0372 12.9648 65.8873 12.9648L75.8766 12.9648C79.7024 12.9648 82.4654 13.8149 84.3782 15.3027C86.0786 17.0029 87.1412 19.3408 87.1412 22.5293C87.1412 25.7173 86.2911 28.0552 84.3782 29.7554C82.6779 31.2432 79.7024 32.0933 75.8766 32.0933L72.051 32.0933L72.051 38.6821C72.051 39.3198 71.8384 39.9575 71.6259 40.1699C71.2008 40.5947 70.7757 40.5947 69.9255 40.5947L65.8873 40.5947L65.8873 40.8076ZM75.239 26.1421C76.3018 26.1421 77.1519 25.9297 77.7895 25.292C78.4271 24.6543 78.6396 23.8042 78.6396 22.5293C78.6396 21.2539 78.4271 20.4038 77.7895 19.7661C77.1519 19.1284 76.3018 18.916 75.239 18.916L72.051 18.916L72.051 26.1421L75.239 26.1421Z" fill-rule="evenodd" fill="#000000"/>
	<path id="Path 370" d="M96.7054 41.4453C94.155 41.4453 92.0295 40.5952 90.5417 38.8945C89.054 37.1943 88.2039 34.8564 88.2039 31.8809C88.2039 29.543 88.6289 27.6304 89.6917 25.9297C90.7543 24.2295 92.2421 22.9541 94.155 21.8916C96.0678 21.0415 98.4058 20.4038 100.744 20.4038C102.869 20.4038 104.569 20.6162 106.27 21.0415C107.97 21.4663 109.245 22.104 110.733 22.9541L110.733 39.3198C110.733 39.7451 110.733 40.1699 110.521 40.3823C110.308 40.5952 109.883 40.5952 109.458 40.5952L105.207 40.5952C104.994 40.5952 104.569 40.5952 104.569 40.3823C104.357 40.1699 104.357 40.1699 104.144 39.9575L103.507 38.6821C102.657 39.5322 101.806 40.1699 100.744 40.5952C99.681 41.2329 98.1932 41.4453 96.7054 41.4453ZM99.681 35.9189C100.744 35.9189 101.594 35.7065 102.231 35.0688C102.869 34.644 103.082 33.7939 103.082 32.9438L103.082 26.5674C102.657 26.355 101.806 26.1426 101.169 26.1426C99.681 26.1426 98.6183 26.5674 97.7681 27.6304C96.918 28.6929 96.4929 29.9683 96.4929 31.8809C96.4929 34.4316 97.5556 35.9189 99.681 35.9189Z" fill-rule="evenodd" fill="#000000"/>
	<path id="Path 371" d="M116.472 40.8076C115.621 40.8076 115.196 40.5947 114.771 40.3823C114.346 39.9575 114.346 39.5322 114.346 38.8945L114.346 22.3164C114.346 21.8916 114.346 21.4663 114.559 21.2539C114.771 21.0415 115.196 21.0415 115.621 21.0415L119.872 21.0415C120.297 21.0415 120.51 21.0415 120.51 21.2539C120.722 21.2539 120.722 21.4663 120.935 21.6787L121.148 22.9541C121.998 22.104 122.848 21.6787 124.123 21.2539C125.398 20.8286 126.674 20.6162 128.374 20.6162C130.499 20.6162 132.412 21.2539 133.687 22.5293C134.963 23.8042 135.813 25.5044 135.813 28.0552L135.813 38.8945C135.813 39.5322 135.6 40.1699 135.388 40.3823C135.175 40.8076 134.537 40.8076 133.687 40.8076L129.649 40.8076C128.799 40.8076 128.374 40.5947 127.949 40.3823C127.524 39.9575 127.524 39.5322 127.524 38.8945L127.524 28.48C127.524 27.6299 127.311 26.9922 126.886 26.7798C126.461 26.355 126.036 26.1421 125.186 26.1421C124.336 26.1421 123.698 26.355 123.273 26.7798C122.848 27.2051 122.635 27.8428 122.635 28.48L122.635 38.6821C122.635 39.3198 122.423 39.9575 122.21 40.1699C121.998 40.5947 121.36 40.5947 120.51 40.5947L116.472 40.5947L116.472 40.8076Z" fill-rule="evenodd" fill="#000000"/>
	<path id="Path 372" d="M150.265 41.4448C146.44 41.4448 143.464 40.5947 141.339 38.6821C139.213 36.9819 138.151 34.4312 138.151 31.0308C138.151 28.9053 138.576 27.2051 139.638 25.5044C140.489 24.0166 141.976 22.7417 143.677 21.8916C145.59 21.0415 147.715 20.6162 150.053 20.6162C151.966 20.6162 153.453 20.8286 154.729 21.2539C156.004 21.6787 157.279 22.104 158.129 22.9541C158.342 23.1665 158.554 23.3794 158.554 23.5918C158.554 23.8042 158.342 24.0166 158.129 24.4419L156.429 27.4175C156.216 27.8428 156.004 28.0552 155.791 28.0552C155.579 28.0552 155.366 27.8428 154.941 27.6299C154.304 27.2051 153.453 26.7798 152.816 26.5674C152.178 26.355 151.328 26.1421 150.478 26.1421C149.203 26.1421 147.927 26.5674 147.077 27.4175C146.227 28.2676 145.802 29.543 145.802 31.0308C145.802 32.5186 146.227 33.7935 147.077 34.644C147.927 35.4941 148.99 35.9189 150.478 35.9189C151.328 35.9189 152.178 35.7065 152.816 35.4941C153.453 35.2812 154.304 34.8564 154.941 34.4312C155.366 34.2188 155.579 34.0063 155.791 34.0063C156.004 34.0063 156.216 34.2188 156.429 34.6436L158.342 37.832C158.554 38.0444 158.554 38.2568 158.554 38.4697C158.554 38.6821 158.342 38.8945 158.129 39.1069C157.067 39.7446 155.791 40.3823 154.304 40.8076C153.666 41.2324 152.178 41.4448 150.265 41.4448Z" fill-rule="evenodd" fill="#000000"/>
	<path id="Path 373" d="M169.607 41.4453C167.056 41.4453 164.931 40.5952 163.443 38.8945C161.955 37.1943 161.105 34.8564 161.105 31.8809C161.105 29.543 161.53 27.6304 162.593 25.9297C163.655 24.2295 165.143 22.9541 167.056 21.8916C168.969 21.0415 171.307 20.4038 173.645 20.4038C175.77 20.4038 177.471 20.6162 179.171 21.0415C180.871 21.4663 182.146 22.104 183.634 22.9541L183.634 39.3198C183.634 39.7451 183.634 40.1699 183.422 40.3823C183.209 40.5952 182.784 40.5952 182.359 40.5952L178.108 40.5952C177.896 40.5952 177.471 40.5952 177.471 40.3823C177.258 40.1699 177.258 40.1699 177.045 39.9575L176.408 38.6821C175.558 39.5322 174.707 40.1699 173.645 40.5952C172.582 41.2329 171.307 41.4453 169.607 41.4453ZM172.795 35.9189C173.857 35.9189 174.708 35.7065 175.345 35.0688C175.983 34.644 176.195 33.7939 176.195 32.9438L176.195 26.5674C175.77 26.355 174.92 26.1426 174.282 26.1426C172.795 26.1426 171.732 26.5674 170.882 27.6304C170.032 28.6929 169.607 29.9683 169.607 31.8809C169.394 34.4316 170.457 35.9189 172.795 35.9189Z" fill-rule="evenodd" fill="#000000"/>
	<path id="Path 374" d="M209.564 39.3198C209.776 39.5322 209.776 39.7446 209.776 39.9575C209.776 40.1699 209.776 40.3823 209.564 40.5952C209.351 40.8076 209.139 40.8076 208.926 40.8076L202.55 40.8076C202.125 40.8076 201.912 40.8076 201.7 40.8076C201.487 40.8076 201.275 40.5952 201.062 40.3823L195.536 32.731L195.536 38.6821C195.536 39.3198 195.324 39.9575 195.111 40.1699C194.686 40.5952 194.261 40.5952 193.411 40.5952L189.373 40.5952C188.522 40.5952 188.097 40.3823 187.672 40.1699C187.46 39.7446 187.247 39.3198 187.247 38.6821L187.247 15.0903C187.247 14.4526 187.46 13.8149 187.672 13.6025C188.097 13.1772 188.522 12.9648 189.373 12.9648L193.411 12.9648C194.261 12.9648 194.686 13.1772 195.111 13.6025C195.536 14.0273 195.536 14.4526 195.536 15.0903L195.536 28.6929L200.85 21.6792C201.062 21.4663 201.275 21.2539 201.487 21.2539C201.7 21.2539 201.912 21.0415 202.338 21.0415L208.714 21.0415C208.926 21.0415 209.139 21.0415 209.351 21.2539C209.564 21.4663 209.564 21.6792 209.564 21.8916C209.564 22.104 209.564 22.3164 209.351 22.5293L202.338 30.6055L209.564 39.3198Z" fill-rule="evenodd" fill="#000000"/>
	<path id="Path 375" d="M222.741 41.4453C220.403 41.4453 218.491 41.0205 216.578 40.3828C214.877 39.5327 213.39 38.4697 212.327 36.9819C211.264 35.4941 210.839 33.5815 210.839 31.4561C210.839 28.0557 211.902 25.2925 213.815 23.5923C215.728 21.6792 218.703 20.8291 222.316 20.8291C225.929 20.8291 228.692 21.6792 230.393 23.5923C232.306 25.2925 233.156 27.8428 233.156 31.0308C233.156 32.3062 232.518 33.1562 231.455 33.1562L218.703 33.1562C218.703 34.4316 219.128 35.2817 219.978 35.9194C220.828 36.5571 222.316 36.7695 224.017 36.7695C225.079 36.7695 226.142 36.7695 226.78 36.5571C227.63 36.3447 228.267 35.9194 229.118 35.707C229.543 35.4941 229.755 35.4941 229.755 35.4941C229.968 35.4941 230.18 35.707 230.393 35.9194L231.88 38.4697C232.093 38.6826 232.093 38.895 232.093 39.1074C232.093 39.3198 231.88 39.5327 231.668 39.7451C230.605 40.3828 229.33 41.0205 227.842 41.4453C226.142 41.2329 224.654 41.4453 222.741 41.4453ZM225.929 28.6929C225.929 27.6304 225.717 26.7803 225.079 26.355C224.442 25.7173 223.591 25.5049 222.316 25.5049C221.041 25.5049 220.191 25.7173 219.553 26.355C218.916 26.9927 218.703 27.6304 218.703 28.6929L225.929 28.6929Z" fill-rule="evenodd" fill="#000000"/>
	<path id="Path 376" d="M247.396 41.4453C245.058 41.4453 242.933 41.2329 240.807 40.8076C238.682 40.3828 237.194 39.5322 235.919 38.6821C235.494 38.4697 235.281 38.0444 235.281 37.832C235.281 37.6196 235.281 37.4072 235.494 37.1943L237.406 34.0063C237.619 33.5815 237.832 33.5815 238.044 33.5815C238.257 33.5815 238.469 33.5815 238.682 33.7939C239.745 34.4316 240.807 34.8564 242.082 35.2817C243.358 35.7065 244.633 35.9194 245.908 35.9194C247.183 35.9194 248.034 35.7065 248.671 35.2817C249.309 34.8564 249.521 34.2188 249.521 33.3687C249.521 32.5186 249.096 31.8809 248.459 31.4561C247.821 31.0308 246.546 30.3931 244.633 29.7554C241.87 28.6929 239.745 27.6304 238.257 26.355C236.769 25.0796 235.919 23.167 235.919 21.0415C235.919 18.2783 236.981 16.3657 238.894 14.8779C240.807 13.3901 243.358 12.7524 246.546 12.7524C248.884 12.7524 250.797 12.9648 252.284 13.3901C253.985 13.8149 255.26 14.4526 256.323 15.0903C256.748 15.5156 256.96 15.728 256.96 16.1528C256.96 16.3657 256.96 16.5781 256.748 16.7905L254.835 19.979C254.622 20.4038 254.41 20.4038 254.197 20.4038C253.985 20.4038 253.772 20.4038 253.559 20.1914C252.072 19.1284 250.159 18.7036 247.821 18.7036C246.546 18.7036 245.696 18.916 245.058 19.3413C244.42 19.7661 244.208 20.4038 244.208 21.2539C244.208 21.8916 244.42 22.3169 244.633 22.7417C245.058 23.167 245.483 23.3794 245.908 23.8047C246.546 24.0171 247.396 24.4419 248.459 24.8672L249.309 25.0796C251.222 25.9297 252.922 26.5674 253.985 27.4175C255.26 28.0552 256.11 29.1182 256.748 30.1807C257.385 31.2432 257.598 32.5186 257.598 34.0063C257.598 36.3442 256.748 38.4697 254.835 39.7451C253.56 40.5952 250.797 41.4453 247.396 41.4453Z" fill-rule="evenodd" fill="#000000"/>
	<path id="Path 377" d="M266.737 40.8081C266.312 40.8081 266.099 40.8081 265.887 40.5957C265.674 40.3833 265.462 40.1704 265.462 39.7456L260.148 22.1045C260.148 21.8921 260.148 21.8921 260.148 21.6797C260.148 21.2544 260.361 21.042 260.998 21.042L266.312 21.042C266.737 21.042 266.95 21.042 267.162 21.2544C267.375 21.4673 267.375 21.4673 267.587 21.8921L269.713 31.2437L272.476 23.8052C272.688 23.3799 272.688 23.1675 272.901 23.1675C273.113 22.9551 273.326 22.9551 273.751 22.9551L276.301 22.9551C276.726 22.9551 276.939 22.9551 277.151 23.1675C277.364 23.3799 277.364 23.5923 277.577 23.8052L280.339 31.2437L282.677 21.8921C282.677 21.6797 282.89 21.4673 283.103 21.2544C283.315 21.042 283.528 21.042 283.74 21.042L289.266 21.042C289.904 21.042 290.116 21.2544 290.116 21.6797C290.116 21.6797 290.116 21.8921 290.116 22.1045L284.803 39.7456C284.59 40.1704 284.59 40.3833 284.378 40.5957C284.165 40.8081 283.953 40.8081 283.528 40.8081L279.489 40.8081C279.064 40.8081 278.852 40.8081 278.639 40.5957C278.427 40.3833 278.214 40.1704 278.214 39.7456L275.451 32.3066L272.688 39.7456C272.476 40.1704 272.476 40.3833 272.263 40.5957C272.051 40.8081 271.838 40.8081 271.413 40.8081L266.737 40.8081Z" fill-rule="evenodd" fill="#000000"/>
	<path id="Path 378" d="M299.893 41.4453C297.343 41.4453 295.217 40.5952 293.73 38.8945C292.242 37.1943 291.392 34.8564 291.392 31.8809C291.392 29.543 291.817 27.6304 292.88 25.9297C293.942 24.2295 295.43 22.9541 297.343 21.8916C299.256 21.0415 301.594 20.4038 303.932 20.4038C306.057 20.4038 307.757 20.6162 309.458 21.0415C311.158 21.4663 312.433 22.104 313.921 22.9541L313.921 39.3198C313.921 39.7451 313.921 40.1699 313.708 40.3823C313.496 40.5952 313.071 40.5952 312.646 40.5952L308.395 40.5952C308.182 40.5952 307.97 40.5952 307.757 40.3823C307.545 40.1699 307.545 40.1699 307.332 39.9575L306.695 38.6821C305.844 39.5322 304.994 40.1699 303.932 40.5952C302.869 41.2329 301.594 41.4453 299.893 41.4453ZM303.081 35.9189C304.144 35.9189 304.994 35.7065 305.632 35.0688C306.27 34.644 306.482 33.7939 306.482 32.9438L306.482 26.5674C306.057 26.355 305.207 26.1426 304.569 26.1426C303.081 26.1426 302.019 26.5674 301.169 27.6304C300.318 28.6929 299.893 29.9683 299.893 31.8809C299.681 34.4316 300.743 35.9189 303.081 35.9189Z" fill-rule="evenodd" fill="#000000"/>
	<path id="Path 379" d="M319.659 49.0967C318.809 49.0967 318.384 48.8843 317.959 48.6719C317.746 48.2466 317.534 47.8218 317.534 47.1841L317.534 23.8047C318.809 22.9546 320.297 22.1045 322.21 21.6792C324.123 21.0415 326.036 20.8291 327.948 20.8291C336.237 20.8291 340.276 24.23 340.276 31.2437C340.276 34.4316 339.426 36.9819 337.725 38.895C336.025 40.8076 333.474 41.6582 330.286 41.6582C329.436 41.6582 328.586 41.4453 327.736 41.2329C326.886 41.0205 326.248 40.8076 325.61 40.3828L325.61 47.1841C325.61 47.8218 325.398 48.4595 325.185 48.6719C324.76 49.0967 324.335 49.0967 323.485 49.0967L319.659 49.0967ZM328.586 35.9194C329.861 35.9194 330.711 35.4941 331.136 34.644C331.774 33.7939 331.987 32.5186 331.987 31.0308C331.987 29.3306 331.562 28.0557 330.924 27.2051C330.286 26.5679 329.224 26.1426 327.736 26.1426C326.886 26.1426 326.036 26.355 325.61 26.5679L325.61 32.9438C325.61 33.7939 325.823 34.644 326.461 35.0693C326.886 35.707 327.736 35.9194 328.586 35.9194Z" fill-rule="evenodd" fill="#000000"/>
	<path id="Path 380" d="M9.56427 8.28906C8.71411 4.03809 12.1147 0 16.3655 0C20.1913 0 23.3793 3.18799 23.3793 7.01367L23.3793 15.5151C24.442 15.5151 25.2922 15.5151 26.3549 15.5151C27.2051 15.5151 28.2678 15.5151 29.1179 15.5151L29.1179 7.01367C29.1179 3.18799 32.306 0 36.1317 0C40.3825 0 43.7831 4.03809 42.933 8.28906L41.0201 18.2783C47.3963 21.0415 52.2847 25.9297 52.2847 32.0933L52.2847 35.7065C52.2847 40.8076 48.8841 45.0586 44.2082 47.8213C39.5323 50.7969 33.1561 52.4971 26.1423 52.4971C19.1285 52.4971 12.7524 50.7969 8.07648 47.8213C3.40063 45.0586 0 40.8076 0 35.7065L0 32.0933C0 25.9297 4.88843 21.0415 11.2646 18.2783L9.56427 8.28906ZM38.6822 19.7661L40.8076 8.07666C41.4452 5.10107 39.1072 2.33789 36.1317 2.33789C33.3687 2.33789 31.2433 4.46338 31.2433 7.22656L31.2433 18.0659C30.6057 18.0659 29.7556 17.8535 29.1179 17.8535C28.2678 17.8535 27.2051 17.8535 26.3549 17.8535C25.2922 17.8535 24.4421 17.8535 23.3793 18.0659C22.7418 18.0659 21.8916 18.2783 21.254 18.2783L21.254 7.43896C21.254 4.67578 19.1285 2.55029 16.3655 2.55029C13.39 2.55029 11.0521 5.31348 11.6897 8.28906L13.8151 20.1914C7.01379 22.7417 2.33795 27.4175 2.33795 32.731L2.33795 36.3442C2.33795 44.4209 12.9649 51.0093 26.1424 51.0093C39.3198 51.0093 49.9468 44.4209 49.9468 36.3442L49.9468 32.731C50.1593 26.9927 45.4835 22.3164 38.6822 19.7661Z" fill-rule="evenodd" fill="#633001"/>
	<path id="Path 381" d="M50.1594 35.9194C50.1594 43.9956 39.5324 50.5845 26.355 50.5845C13.1775 50.5845 2.55054 43.9956 2.55054 35.9194L2.55054 32.3062L50.3719 32.3062L50.3719 35.9194L50.1594 35.9194Z" fill-rule="evenodd" fill="#FEDC90"/>
	<path id="Path 382" d="M11.6897 7.86426C11.0521 4.88867 13.39 2.12549 16.3656 2.12549C19.1286 2.12549 21.254 4.25098 21.254 7.01367L21.254 18.0659C22.9543 17.8535 24.6546 17.6411 26.3549 17.6411C28.0552 17.6411 29.7556 17.8535 31.2433 17.8535L31.2433 7.01367C31.2433 4.25098 33.3687 2.12549 36.1318 2.12549C39.1073 2.12549 41.4453 4.88867 40.8076 7.86426L38.6823 19.5537C45.696 22.104 50.3719 26.7803 50.3719 32.0938C50.3719 40.1699 39.7449 46.7588 26.5675 46.7588C13.39 46.7588 2.76306 40.1699 2.76306 32.0938C2.76306 26.7803 7.4389 22.104 14.2402 19.5537L11.6897 7.86426Z" fill-rule="evenodd" fill="#D1884F"/>
	<path id="Path 383" d="M19.7662 31.2432C19.7662 33.3687 18.4909 35.2817 17.2157 35.2817C15.9405 35.2817 14.6652 33.5811 14.6652 31.2432C14.6652 29.1182 15.9405 27.2051 17.2157 27.2051C18.4909 27.2051 19.7662 28.9053 19.7662 31.2432Z" fill-rule="evenodd" fill="#633001"/>
	<path id="Path 384" d="M38.0446 31.2432C38.0446 33.3687 36.7693 35.2817 35.4941 35.2817C34.0063 35.2817 32.9436 33.5811 32.9436 31.2432C32.9436 29.1182 34.2189 27.2051 35.4941 27.2051C36.7693 27.2051 38.0446 28.9053 38.0446 31.2432Z" fill-rule="evenodd" fill="#633001"/>
	<defs/>
</svg>
