<svg width="243.710571" height="199.642578" viewBox="0 0 243.711 199.643" fill="none" xmlns="http://www.w3.org/2000/svg" xmlns:xlink="http://www.w3.org/1999/xlink">
	<desc>
			Created with Pixso.
	</desc>
	<path id="Path 71" d="" fill-rule="evenodd" fill="#5ED45E"/>
	<path id="Path 72" d="M173.185 89.3286L139.265 89.3286L139.265 122.459C139.265 139.45 153.047 153.161 170.038 153.162C187.028 153.161 200.796 139.45 200.796 122.459L200.796 89.3286L188.509 89.3286L173.185 89.3286ZM180.542 121.825C180.542 127.588 175.87 132.26 170.107 132.26C164.344 132.26 159.673 127.588 159.673 121.825L159.673 105.287L169.816 105.287L177.489 105.287L180.542 105.287L180.542 121.825Z" fill-rule="evenodd" fill="url(#paint_linear_10_198_0)"/>
	<path id="Path 73" d="M31.3088 21.9014L93.0267 1.17407L1.151 2.12354L31.3088 21.9014Z" fill-rule="evenodd" fill="url(#paint_linear_10_199_0)"/>
	<path id="Path 74" d="M61.6675 71.1731L92.9786 1.15234L44.968 31.0767L61.6675 71.1731Z" fill-rule="evenodd" fill="url(#paint_linear_10_200_0)"/>
	<path id="Path 75" d="M165.908 47.874L139.244 83.3804L200.854 83.3804L174.19 47.874C172.119 45.1152 167.979 45.1152 165.908 47.874Z" fill-rule="evenodd" fill="url(#paint_linear_10_201_0)"/>
	<path id="Path 76" d="M120.391 136.513L115.91 144.416L147.826 144.837C145.112 141.872 142.417 138.91 142.405 136.513L120.391 136.513Z" fill-rule="evenodd" fill="url(#paint_linear_10_202_0)"/>
	<path id="Path 77" d="M197.779 136.513C197.306 138.831 195.078 141.75 192.357 144.837L224.274 144.416L219.792 136.513L197.779 136.513Z" fill-rule="evenodd" fill="url(#paint_linear_10_203_0)"/>
	<path id="Path 78" d="M47.9603 135.757C48.2427 135.981 48.5786 136.088 48.9116 136.088C49.3643 136.088 49.8124 135.889 50.1162 135.507C50.6426 134.843 50.5289 133.877 49.8645 133.351C49.2001 132.825 48.2349 132.938 47.7102 133.603C47.1838 134.267 47.2959 135.232 47.9603 135.757Z" fill-rule="evenodd" fill="#1E243A"/>
	<path id="Path 79" d="M47.4354 138.126C46.6115 138.321 46.1005 139.148 46.2954 139.972C46.4611 140.679 47.0918 141.155 47.7869 141.155C47.9034 141.155 48.0232 141.141 48.1414 141.114C48.9653 140.919 49.4763 140.092 49.2814 139.268C49.0865 138.442 48.261 137.931 47.4354 138.126Z" fill-rule="evenodd" fill="#1E243A"/>
	<path id="Path 80" d="M58.1448 135.955C58.493 135.955 58.8429 135.837 59.1313 135.596C59.7789 135.05 59.8633 134.083 59.3186 133.434C58.7738 132.785 57.8055 132.7 57.1565 133.245C56.5074 133.79 56.4246 134.758 56.9692 135.407C57.2716 135.769 57.7074 135.955 58.1448 135.955Z" fill-rule="evenodd" fill="#1E243A"/>
	<path id="Path 81" d="M55.5652 142.197C54.8086 142.579 54.5033 143.501 54.8838 144.258C55.1539 144.793 55.6941 145.103 56.2556 145.103C56.4873 145.103 56.7236 145.051 56.9446 144.939C57.7012 144.559 58.0065 143.636 57.626 142.878C57.2454 142.122 56.3232 141.816 55.5652 142.197Z" fill-rule="evenodd" fill="#1E243A"/>
	<path id="Path 82" d="M51.7151 142.254C50.9479 141.895 50.0349 142.226 49.6758 142.995C49.3168 143.762 49.6482 144.675 50.417 145.034C50.6272 145.132 50.8481 145.178 51.0645 145.178C51.6431 145.178 52.1954 144.852 52.4563 144.293C52.8153 143.526 52.4839 142.613 51.7151 142.254Z" fill-rule="evenodd" fill="#1E243A"/>
	<path id="Path 83" d="M59.7236 137.948C58.8934 137.778 58.0818 138.312 57.9114 139.142C57.7411 139.972 58.2751 140.784 59.1052 140.954C59.2096 140.976 59.314 140.986 59.4167 140.986C60.1287 140.986 60.7686 140.486 60.9175 139.76C61.0878 138.93 60.5537 138.118 59.7236 137.948Z" fill-rule="evenodd" fill="#1E243A"/>
	<path id="Path 84" d="M53.5825 130.759C52.7356 130.759 52.0481 131.446 52.0481 132.293C52.0481 133.14 52.7356 133.828 53.5825 133.828C54.4296 133.828 55.1171 133.14 55.1171 132.293C55.1171 131.446 54.4296 130.759 53.5825 130.759Z" fill-rule="evenodd" fill="#1E243A"/>
	<path id="Path 85" d="M106.786 43.5125C107.134 43.5125 107.484 43.3943 107.771 43.1533C108.42 42.6069 108.504 41.6404 107.959 40.9912C107.413 40.3423 106.447 40.2578 105.797 40.8025C105.148 41.3472 105.064 42.3154 105.609 42.9646C105.913 43.3267 106.347 43.5125 106.786 43.5125Z" fill-rule="evenodd" fill="#1E243A"/>
	<path id="Path 86" d="M96.5999 43.3149C96.8821 43.5388 97.2183 43.6462 97.5527 43.6462C98.0054 43.6462 98.4534 43.4468 98.7559 43.0647C99.2822 42.4004 99.1702 41.4351 98.5056 40.9087C97.8413 40.3823 96.876 40.4944 96.3496 41.1604C95.8235 41.825 95.937 42.7886 96.5999 43.3149Z" fill-rule="evenodd" fill="#1E243A"/>
	<path id="Path 87" d="M96.0764 45.6838C95.251 45.8787 94.7415 46.7058 94.9348 47.5298C95.1021 48.2371 95.7328 48.7129 96.428 48.7129C96.5444 48.7129 96.6627 48.699 96.7808 48.6714C97.6064 48.4766 98.1173 47.6494 97.9226 46.8254C97.7275 46 96.9005 45.4888 96.0764 45.6838Z" fill-rule="evenodd" fill="#1E243A"/>
	<path id="Path 88" d="M104.206 49.7546C103.448 50.1367 103.144 51.0588 103.525 51.8154C103.795 52.3508 104.335 52.6609 104.897 52.6609C105.128 52.6609 105.363 52.6086 105.586 52.4966C106.342 52.1162 106.647 51.1938 106.265 50.4358C105.885 49.6794 104.963 49.374 104.206 49.7546Z" fill-rule="evenodd" fill="#1E243A"/>
	<path id="Path 89" d="M100.356 49.8115C99.5874 49.4526 98.6743 49.7839 98.3169 50.5527C97.9578 51.3198 98.2892 52.2329 99.0564 52.592C99.2666 52.6902 99.4877 52.7363 99.7056 52.7363C100.282 52.7363 100.836 52.4094 101.097 51.8508C101.455 51.0835 101.123 50.1707 100.356 49.8115Z" fill-rule="evenodd" fill="#1E243A"/>
	<path id="Path 90" d="M108.363 45.5059C107.533 45.3354 106.723 45.8694 106.552 46.6997C106.382 47.5298 106.916 48.3416 107.746 48.5117C107.851 48.5332 107.953 48.5439 108.056 48.5439C108.77 48.5439 109.408 48.0437 109.558 47.3179C109.729 46.4878 109.193 45.676 108.363 45.5059Z" fill-rule="evenodd" fill="#1E243A"/>
	<path id="Path 91" d="M102.223 38.3169C101.376 38.3169 100.689 39.0044 100.689 39.8513C100.689 40.6985 101.376 41.3857 102.223 41.3857C103.07 41.3857 103.758 40.6985 103.758 39.8513C103.758 39.0044 103.07 38.3169 102.223 38.3169Z" fill-rule="evenodd" fill="#1E243A"/>
	<path id="Path 92" d="M222.386 36.8284C222.668 37.0508 223.004 37.1599 223.337 37.1599C223.79 37.1599 224.238 36.9604 224.542 36.5784C225.067 35.9138 224.955 34.9487 224.29 34.4224C223.626 33.896 222.661 34.0081 222.136 34.6724C221.609 35.3369 221.722 36.302 222.386 36.8284Z" fill-rule="evenodd" fill="#1E243A"/>
	<path id="Path 93" d="M232.57 37.0266C232.919 37.0266 233.268 36.9084 233.557 36.666C234.204 36.1213 234.289 35.1531 233.744 34.5039C233.199 33.8564 232.231 33.772 231.582 34.3169C230.933 34.8616 230.849 35.8298 231.395 36.479C231.697 36.8394 232.133 37.0266 232.57 37.0266Z" fill-rule="evenodd" fill="#1E243A"/>
	<path id="Path 94" d="M221.861 39.1978C221.037 39.3926 220.526 40.218 220.721 41.0437C220.887 41.7495 221.517 42.2251 222.213 42.2251C222.329 42.2251 222.447 42.2129 222.567 42.1836C223.391 41.9905 223.902 41.1633 223.707 40.3394C223.512 39.5137 222.687 39.0027 221.861 39.1978Z" fill-rule="evenodd" fill="#1E243A"/>
	<path id="Path 95" d="M228.008 31.8306C227.161 31.8306 226.474 32.5166 226.474 33.365C226.474 34.2119 227.161 34.8994 228.008 34.8994C228.855 34.8994 229.543 34.2119 229.543 33.365C229.543 32.5166 228.855 31.8306 228.008 31.8306Z" fill-rule="evenodd" fill="#1E243A"/>
	<path id="Path 96" d="M234.149 39.0195C233.319 38.8477 232.507 39.3835 232.337 40.2136C232.167 41.0437 232.701 41.8555 233.531 42.0259C233.635 42.0474 233.74 42.0564 233.843 42.0564C234.555 42.0564 235.194 41.5562 235.343 40.8303C235.514 40.0002 234.98 39.1902 234.149 39.0195Z" fill-rule="evenodd" fill="#1E243A"/>
	<path id="Path 97" d="M226.141 43.3242C225.374 42.9666 224.46 43.2981 224.101 44.0652C223.742 44.834 224.074 45.7471 224.843 46.1045C225.051 46.2026 225.274 46.2502 225.49 46.2502C226.069 46.2502 226.621 45.9219 226.882 45.365C227.241 44.5962 226.908 43.6831 226.141 43.3242Z" fill-rule="evenodd" fill="#1E243A"/>
	<path id="Path 98" d="M229.991 43.2686C229.234 43.6492 228.929 44.5713 229.309 45.3293C229.58 45.865 230.12 46.1748 230.681 46.1748C230.913 46.1748 231.149 46.1211 231.37 46.0107C232.127 45.6287 232.432 44.7063 232.052 43.95C231.669 43.1919 230.747 42.8879 229.991 43.2686Z" fill-rule="evenodd" fill="#1E243A"/>
	<path id="Path 102" d="M14.9004 188.835C15.2487 188.835 15.5985 188.717 15.8855 188.477C16.5345 187.932 16.6189 186.963 16.0742 186.314C15.5295 185.666 14.5613 185.581 13.9121 186.125C13.2631 186.67 13.1787 187.639 13.7234 188.288C14.0272 188.65 14.463 188.835 14.9004 188.835Z" fill-rule="evenodd" fill="#1E243A"/>
	<path id="Path 103" d="M16.4794 190.829C15.6492 190.659 14.8375 191.193 14.6671 192.023C14.4968 192.853 15.0309 193.665 15.861 193.835C15.9653 193.856 16.0697 193.867 16.1709 193.867C16.8844 193.867 17.5243 193.367 17.6732 192.641C17.8435 191.811 17.3094 191 16.4794 190.829Z" fill-rule="evenodd" fill="#1E243A"/>
	<path id="Path 104" d="M12.3212 195.079C11.5647 195.46 11.2593 196.382 11.6398 197.139C11.9099 197.676 12.4501 197.984 13.0116 197.984C13.2434 197.984 13.4796 197.932 13.7006 197.82C14.4572 197.439 14.7625 196.517 14.382 195.759C14.0013 195.003 13.0776 194.697 12.3212 195.079Z" fill-rule="evenodd" fill="#1E243A"/>
	<path id="Path 105" d="M10.3384 183.64C9.49146 183.64 8.80396 184.327 8.80396 185.174C8.80396 186.021 9.49146 186.708 10.3384 186.708C11.1854 186.708 11.8729 186.021 11.8729 185.174C11.8729 184.327 11.1854 183.64 10.3384 183.64Z" fill-rule="evenodd" fill="#1E243A"/>
	<path id="Path 106" d="M89.7778 95.2363C89.1423 95.2363 88.6271 95.7515 88.6271 96.3872L88.6271 104.213C88.6271 104.849 89.1423 105.364 89.7778 105.364C90.4133 105.364 90.9287 104.849 90.9287 104.213L90.9287 96.3872C90.9287 95.7515 90.4133 95.2363 89.7778 95.2363Z" fill-rule="evenodd" fill="#1E243A"/>
	<path id="Path 107" d="M93.6909 99.1494L85.865 99.1494C85.2295 99.1494 84.7142 99.6646 84.7142 100.3C84.7142 100.936 85.2295 101.451 85.865 101.451L93.6909 101.451C94.3264 101.451 94.8417 100.936 94.8417 100.3C94.8417 99.6646 94.3264 99.1494 93.6909 99.1494Z" fill-rule="evenodd" fill="#1E243A"/>
	<path id="Path 108" d="M168.956 6.54443C168.321 6.54443 167.806 7.05981 167.806 7.69531L167.806 15.521C167.806 16.1567 168.321 16.6719 168.956 16.6719C169.592 16.6719 170.107 16.1567 170.107 15.521L170.107 7.69531C170.107 7.05981 169.592 6.54443 168.956 6.54443Z" fill-rule="evenodd" fill="#1E243A"/>
	<path id="Path 109" d="M172.869 10.4573L165.043 10.4573C164.408 10.4573 163.893 10.9727 163.893 11.6082C163.893 12.2437 164.408 12.759 165.043 12.759L172.869 12.759C173.505 12.759 174.02 12.2437 174.02 11.6082C174.02 10.9727 173.505 10.4573 172.869 10.4573Z" fill-rule="evenodd" fill="#1E243A"/>
	<path id="Path 110" d="M234.018 78.3572C233.382 78.3572 232.867 78.8726 232.867 79.5081L232.867 87.3337C232.867 87.9695 233.382 88.4846 234.018 88.4846C234.653 88.4846 235.168 87.9695 235.168 87.3337L235.168 79.5081C235.168 78.8726 234.653 78.3572 234.018 78.3572Z" fill-rule="evenodd" fill="#1E243A"/>
	<path id="Path 111" d="M237.931 82.2703L230.105 82.2703C229.469 82.2703 228.954 82.7856 228.954 83.4211C228.954 84.0566 229.469 84.572 230.105 84.572L237.931 84.572C238.566 84.572 239.081 84.0566 239.081 83.4211C239.081 82.7856 238.566 82.2703 237.931 82.2703Z" fill-rule="evenodd" fill="#1E243A"/>
	<path id="Path 112" d="M10.2928 87.2571C9.65723 87.2571 9.14197 87.7725 9.14197 88.408L9.14197 96.2336C9.14197 96.8691 9.65723 97.3845 10.2928 97.3845C10.9283 97.3845 11.4436 96.8691 11.4436 96.2336L11.4436 88.408C11.4436 87.7725 10.9283 87.2571 10.2928 87.2571Z" fill-rule="evenodd" fill="#1E243A"/>
	<path id="Path 113" d="M14.2057 91.1704L6.38 91.1704C5.74438 91.1704 5.22913 91.6858 5.22913 92.3213C5.22913 92.9568 5.74438 93.4722 6.38 93.4722L14.2057 93.4722C14.8413 93.4722 15.3566 92.9568 15.3566 92.3213C15.3566 91.6858 14.8413 91.1704 14.2057 91.1704Z" fill-rule="evenodd" fill="#1E243A"/>
	<path id="Path 114" d="M65.2266 186.077C64.5909 186.077 64.0757 186.592 64.0757 187.228L64.0757 195.053C64.0757 195.689 64.5909 196.204 65.2266 196.204C65.8622 196.204 66.3774 195.689 66.3774 195.053L66.3774 187.228C66.3774 186.592 65.8622 186.077 65.2266 186.077Z" fill-rule="evenodd" fill="#1E243A"/>
	<path id="Path 115" d="M69.1394 189.989L61.3137 189.989C60.6781 189.989 60.1628 190.505 60.1628 191.14C60.1628 191.776 60.6781 192.291 61.3137 192.291L69.1394 192.291C69.7751 192.291 70.2903 191.776 70.2903 191.14C70.2903 190.505 69.7751 189.989 69.1394 189.989Z" fill-rule="evenodd" fill="#1E243A"/>
	<path id="Path 116" d="M232.098 113.576L208.823 113.576C208.188 113.576 207.672 114.092 207.672 114.727C207.672 115.363 208.188 115.878 208.823 115.878L232.098 115.878C233.701 115.878 235.005 117.182 235.005 118.785L235.005 187.522L105.093 187.522L105.093 118.785C105.093 117.182 106.397 115.878 108 115.878L131.179 115.878C131.815 115.878 132.33 115.363 132.33 114.727C132.33 114.092 131.815 113.576 131.179 113.576L108 113.576C105.128 113.576 102.792 115.913 102.792 118.785L102.792 188.673C102.792 189.309 103.307 189.824 103.942 189.824L236.156 189.824C236.791 189.824 237.306 189.309 237.306 188.673L237.306 118.785C237.306 115.913 234.97 113.576 232.098 113.576Z" fill-rule="evenodd" fill="#1E243A"/>
	<path id="Path 117" d="M242.56 187.522L97.5382 187.522C96.9026 187.522 96.3875 188.038 96.3875 188.673L96.3875 191.185C96.3875 195.848 100.181 199.642 104.845 199.642L235.253 199.642C239.917 199.642 243.711 195.848 243.711 191.185L243.711 188.673C243.711 188.038 243.195 187.522 242.56 187.522ZM241.409 191.185C241.409 194.579 238.648 197.34 235.253 197.34L104.845 197.34C101.451 197.34 98.6892 194.579 98.6892 191.185L98.6892 189.824L241.409 189.824L241.409 191.185Z" fill-rule="evenodd" fill="#1E243A"/>
	<path id="Path 118" d="M228.008 122.076L213.498 122.076C212.862 122.076 212.347 122.592 212.347 123.227C212.347 123.863 212.862 124.378 213.498 124.378L226.857 124.378L226.857 188.673C226.857 189.309 227.373 189.824 228.008 189.824C228.644 189.824 229.159 189.309 229.159 188.673L229.159 123.227C229.159 122.592 228.644 122.076 228.008 122.076Z" fill-rule="evenodd" fill="#1E243A"/>
	<path id="Path 119" d="M126.238 122.076L112.09 122.076C111.454 122.076 110.939 122.592 110.939 123.227L110.939 188.673C110.939 189.309 111.454 189.824 112.09 189.824C112.725 189.824 113.24 189.309 113.24 188.673L113.24 124.378L126.238 124.378C126.873 124.378 127.389 123.863 127.389 123.227C127.389 122.592 126.873 122.076 126.238 122.076Z" fill-rule="evenodd" fill="#1E243A"/>
	<path id="Path 120" d="M190.533 187.523C189.897 187.523 189.382 188.039 189.382 188.674C189.382 190.747 187.696 192.432 185.624 192.432L154.474 192.432C152.402 192.432 150.716 190.747 150.716 188.674C150.716 188.039 150.2 187.523 149.565 187.523C148.929 187.523 148.414 188.039 148.414 188.674C148.414 192.016 151.132 194.734 154.474 194.734L185.624 194.734C188.965 194.734 191.684 192.016 191.684 188.674C191.684 188.039 191.169 187.523 190.533 187.523Z" fill-rule="evenodd" fill="#1E243A"/>
	<path id="Path 121" d="M200.816 88.2446L188.509 88.2446C187.874 88.2446 187.359 88.7598 187.359 89.3955C187.359 90.031 187.874 90.5464 188.509 90.5464L199.665 90.5464L199.665 122.459C199.665 138.789 186.379 152.075 170.049 152.075C153.719 152.075 140.433 138.789 140.433 122.459L140.433 90.5464L173.185 90.5464C173.82 90.5464 174.336 90.031 174.336 89.3955C174.336 88.7598 173.82 88.2446 173.185 88.2446L139.283 88.2446C138.647 88.2446 138.132 88.7598 138.132 89.3955L138.132 122.459C138.132 140.058 152.45 154.376 170.049 154.376C187.649 154.376 201.967 140.058 201.967 122.459L201.967 89.3955C201.967 88.7598 201.451 88.2446 200.816 88.2446Z" fill-rule="evenodd" fill="#1E243A"/>
	<path id="Path 122" d="M147.106 82.2368L139.282 82.2368C138.647 82.2368 138.131 82.752 138.131 83.3877L138.131 89.3958C138.131 90.0312 138.647 90.5466 139.282 90.5466C139.918 90.5466 140.433 90.0312 140.433 89.3958L140.433 84.5386L147.106 84.5386C147.742 84.5386 148.257 84.0232 148.257 83.3877C148.257 82.752 147.742 82.2368 147.106 82.2368Z" fill-rule="evenodd" fill="#1E243A"/>
	<path id="Path 123" d="M200.816 82.2368L162.377 82.2368C161.741 82.2368 161.226 82.752 161.226 83.3877C161.226 84.0232 161.741 84.5386 162.377 84.5386L199.665 84.5386L199.665 89.3958C199.665 90.0312 200.18 90.5466 200.816 90.5466C201.451 90.5466 201.967 90.0312 201.967 89.3958L201.967 83.3877C201.967 82.752 201.451 82.2368 200.816 82.2368Z" fill-rule="evenodd" fill="#1E243A"/>
	<path id="Path 124" d="M175.111 47.1831C173.904 45.5762 172.059 44.6543 170.049 44.6543C168.039 44.6543 166.194 45.5762 164.987 47.1831L138.324 82.6897C137.942 83.1978 138.045 83.9192 138.553 84.3008C139.061 84.6826 139.783 84.5798 140.164 84.0715L166.828 48.5654C167.596 47.5425 168.77 46.9561 170.049 46.9561C171.328 46.9561 172.502 47.5425 173.27 48.5654L199.934 84.0715C200.16 84.3728 200.505 84.5315 200.855 84.5315C201.095 84.5315 201.338 84.4565 201.545 84.3008C202.053 83.9192 202.156 83.1978 201.774 82.6897L175.111 47.1831Z" fill-rule="evenodd" fill="#1E243A"/>
	<path id="Path 125" d="M148.924 143.687L117.243 143.687L139.776 103.393C140.086 102.838 139.888 102.136 139.333 101.826C138.779 101.516 138.077 101.714 137.767 102.269L114.277 144.276C114.077 144.633 114.082 145.068 114.288 145.42C114.495 145.772 114.873 145.989 115.281 145.989L148.924 145.989C149.56 145.989 150.075 145.473 150.075 144.838C150.075 144.202 149.56 143.687 148.924 143.687Z" fill-rule="evenodd" fill="#1E243A"/>
	<path id="Path 126" d="M131.592 135.362L119.93 135.362C119.295 135.362 118.779 135.877 118.779 136.513C118.779 137.149 119.295 137.664 119.93 137.664L131.592 137.664C132.228 137.664 132.743 137.149 132.743 136.513C132.743 135.877 132.228 135.362 131.592 135.362Z" fill-rule="evenodd" fill="#1E243A"/>
	<path id="Path 127" d="M202.52 102.607C202.21 102.053 201.509 101.854 200.954 102.165C200.399 102.475 200.201 103.177 200.511 103.731L222.855 143.687L191.173 143.687C190.538 143.687 190.023 144.202 190.023 144.838C190.023 145.473 190.538 145.988 191.173 145.988L224.817 145.988C225.225 145.988 225.603 145.772 225.81 145.42C226.016 145.068 226.021 144.632 225.821 144.276L202.52 102.607Z" fill-rule="evenodd" fill="#1E243A"/>
	<path id="Path 128" d="M219.977 135.362L209.85 135.362C209.214 135.362 208.699 135.877 208.699 136.513C208.699 137.149 209.214 137.664 209.85 137.664L219.977 137.664C220.613 137.664 221.128 137.149 221.128 136.513C221.128 135.877 220.613 135.362 219.977 135.362Z" fill-rule="evenodd" fill="#1E243A"/>
	<path id="Path 129" d="M180.484 104.102L177.489 104.102C176.854 104.102 176.338 104.617 176.338 105.253C176.338 105.889 176.854 106.404 177.489 106.404L179.333 106.404L179.333 121.825C179.333 126.944 175.168 131.109 170.049 131.109C164.93 131.109 160.766 126.944 160.766 121.825L160.766 106.404L169.817 106.404C170.452 106.404 170.967 105.889 170.967 105.253C170.967 104.617 170.452 104.102 169.817 104.102L159.615 104.102C158.979 104.102 158.464 104.617 158.464 105.253L158.464 121.825C158.464 128.213 163.661 133.41 170.049 133.41C176.437 133.41 181.634 128.213 181.634 121.825L181.634 105.253C181.634 104.617 181.119 104.102 180.484 104.102Z" fill-rule="evenodd" fill="#1E243A"/>
	<path id="Path 130" d="M169.877 120.248C169.242 120.248 168.726 120.763 168.726 121.399L168.726 132.293C168.726 132.929 169.242 133.445 169.877 133.445C170.513 133.445 171.028 132.929 171.028 132.293L171.028 121.399C171.028 120.763 170.513 120.248 169.877 120.248Z" fill-rule="evenodd" fill="#1E243A"/>
	<path id="Path 131" d="M207.471 154.006C206.836 154.006 206.321 154.522 206.321 155.157L206.321 170.655C206.321 171.291 206.836 171.806 207.471 171.806C208.107 171.806 208.622 171.291 208.622 170.655L208.622 155.157C208.622 154.522 208.107 154.006 207.471 154.006Z" fill-rule="evenodd" fill="#1E243A"/>
	<path id="Path 132" d="M194.428 150.63C193.793 150.63 193.278 151.146 193.278 151.781L193.278 158.379C193.278 159.015 193.793 159.53 194.428 159.53C195.064 159.53 195.579 159.015 195.579 158.379L195.579 151.781C195.579 151.146 195.064 150.63 194.428 150.63Z" fill-rule="evenodd" fill="#1E243A"/>
	<path id="Path 133" d="M194.428 167.663C193.793 167.663 193.278 168.178 193.278 168.814L193.278 173.417C193.278 174.053 193.793 174.568 194.428 174.568C195.064 174.568 195.579 174.053 195.579 173.417L195.579 168.814C195.579 168.178 195.064 167.663 194.428 167.663Z" fill-rule="evenodd" fill="#1E243A"/>
	<path id="Path 134" d="M220.514 150.63C219.879 150.63 219.364 151.146 219.364 151.781L219.364 160.528C219.364 161.163 219.879 161.678 220.514 161.678C221.15 161.678 221.665 161.163 221.665 160.528L221.665 151.781C221.665 151.146 221.15 150.63 220.514 150.63Z" fill-rule="evenodd" fill="#1E243A"/>
	<path id="Path 135" d="M219.747 169.198C219.111 169.198 218.596 169.713 218.596 170.348L218.596 175.259C218.596 175.894 219.111 176.41 219.747 176.41C220.383 176.41 220.898 175.894 220.898 175.259L220.898 170.348C220.898 169.713 220.383 169.198 219.747 169.198Z" fill-rule="evenodd" fill="#1E243A"/>
	<path id="Path 136" d="M135.045 157.229C134.409 157.229 133.894 157.744 133.894 158.379L133.894 173.417C133.894 174.053 134.409 174.568 135.045 174.568C135.68 174.568 136.195 174.053 136.195 173.417L136.195 158.379C136.195 157.744 135.68 157.229 135.045 157.229Z" fill-rule="evenodd" fill="#1E243A"/>
	<path id="Path 137" d="M148.702 152.165C148.066 152.165 147.551 152.68 147.551 153.316L147.551 165.898C147.551 166.534 148.066 167.049 148.702 167.049C149.337 167.049 149.852 166.534 149.852 165.898L149.852 153.316C149.852 152.68 149.337 152.165 148.702 152.165Z" fill-rule="evenodd" fill="#1E243A"/>
	<path id="Path 138" d="M121.388 148.329C120.752 148.329 120.237 148.844 120.237 149.48L120.237 160.528C120.237 161.164 120.752 161.679 121.388 161.679C122.024 161.679 122.539 161.164 122.539 160.528L122.539 149.48C122.539 148.844 122.024 148.329 121.388 148.329Z" fill-rule="evenodd" fill="#1E243A"/>
	<path id="Path 139" d="M121.388 169.505C120.752 169.505 120.237 170.02 120.237 170.656L120.237 173.418C120.237 174.053 120.752 174.568 121.388 174.568C122.024 174.568 122.539 174.053 122.539 173.418L122.539 170.656C122.539 170.02 122.024 169.505 121.388 169.505Z" fill-rule="evenodd" fill="#1E243A"/>
	<path id="Path 140" d="M93.0148 0.0229492L1.13904 0.972656C0.632568 0.977783 0.188965 1.31372 0.0465088 1.7998C-0.0959473 2.28589 0.0961914 2.80786 0.519775 3.08569L30.6777 22.8635C30.8676 22.988 31.0873 23.052 31.309 23.052C31.4321 23.052 31.5558 23.0322 31.6753 22.9922L93.3932 2.26465C93.9299 2.08447 94.2559 1.54053 94.1615 0.982178C94.0673 0.423828 93.5809 0.0131836 93.0148 0.0229492ZM31.4725 20.6323L4.9447 3.23486L85.7614 2.39966L31.4725 20.6323Z" fill-rule="evenodd" fill="#1E243A"/>
	<path id="Path 141" d="M92.3701 0.173828L44.3594 30.0962C43.8811 30.3945 43.689 30.9917 43.9055 31.512L60.6052 71.6016C60.7816 72.0254 61.1935 72.2961 61.6526 72.2961C62.1058 72.2961 62.5327 72.0432 62.7181 71.6287L94.0293 1.62158C94.236 1.15942 94.1165 0.616211 93.735 0.283691C93.3535 -0.0488281 92.7996 -0.09375 92.3701 0.173828ZM61.7051 68.2698L46.4061 31.5361L90.3901 4.12158L61.7051 68.2698Z" fill-rule="evenodd" fill="#1E243A"/>
	<path id="Path 142" d="M44.281 30.2124L31.1147 41.1387L32.4569 21.9814C32.5013 21.3474 32.0233 20.7976 31.3893 20.7532C30.7556 20.7078 30.2053 21.1868 30.1608 21.8208L28.6306 43.6626C28.5985 44.1221 28.8435 44.5566 29.2533 44.7671C29.4193 44.8521 29.5995 44.8938 29.7786 44.8938C30.0417 44.8938 30.3027 44.8037 30.5137 44.6287L45.751 31.9836C46.2401 31.5779 46.3075 30.8521 45.9016 30.363C45.4957 29.874 44.7703 29.8064 44.281 30.2124Z" fill-rule="evenodd" fill="#1E243A"/>
	<path id="Path 143" d="M46.7827 35.9507L29.3647 42.6697C28.7716 42.8984 28.4764 43.5645 28.7051 44.1575C28.8813 44.6145 29.3171 44.8945 29.7791 44.8945C29.9169 44.8945 30.0568 44.8696 30.193 44.8171L47.6111 38.0981C48.2041 37.8694 48.4995 37.2034 48.2708 36.6101C48.0419 36.0173 47.3757 35.7219 46.7827 35.9507Z" fill-rule="evenodd" fill="#1E243A"/>
	<path id="Path 144" d="M27.6323 52.8853C26.9967 52.8853 26.4814 53.4004 26.4814 54.0361L26.4814 56.7981C26.4814 57.4338 26.9967 57.949 27.6323 57.949C28.2678 57.949 28.7831 57.4338 28.7831 56.7981L28.7831 54.0361C28.7831 53.4004 28.2678 52.8853 27.6323 52.8853Z" fill-rule="evenodd" fill="#1E243A"/>
	<path id="Path 145" d="M27.6323 126.386C26.9967 126.386 26.4814 126.901 26.4814 127.537L26.4814 133.061C26.4814 133.697 26.9967 134.212 27.6323 134.212C28.2678 134.212 28.7831 133.697 28.7831 133.061L28.7831 127.537C28.7831 126.901 28.2678 126.386 27.6323 126.386Z" fill-rule="evenodd" fill="#1E243A"/>
	<path id="Path 146" d="M27.6323 151.858C26.9967 151.858 26.4814 152.374 26.4814 153.009L26.4814 158.533C26.4814 159.169 26.9967 159.684 27.6323 159.684C28.2678 159.684 28.7831 159.169 28.7831 158.533L28.7831 153.009C28.7831 152.374 28.2678 151.858 27.6323 151.858Z" fill-rule="evenodd" fill="#1E243A"/>
	<path id="Path 147" d="M27.6323 139.122C26.9967 139.122 26.4814 139.637 26.4814 140.273L26.4814 145.797C26.4814 146.433 26.9967 146.948 27.6323 146.948C28.2678 146.948 28.7831 146.433 28.7831 145.797L28.7831 140.273C28.7831 139.637 28.2678 139.122 27.6323 139.122Z" fill-rule="evenodd" fill="#1E243A"/>
	<path id="Path 148" d="M27.6323 113.65C26.9967 113.65 26.4814 114.165 26.4814 114.801L26.4814 120.325C26.4814 120.96 26.9967 121.476 27.6323 121.476C28.2678 121.476 28.7831 120.96 28.7831 120.325L28.7831 114.801C28.7831 114.165 28.2678 113.65 27.6323 113.65Z" fill-rule="evenodd" fill="#1E243A"/>
	<path id="Path 149" d="M27.6323 62.7056C26.9967 62.7056 26.4814 63.2207 26.4814 63.8564L26.4814 69.3804C26.4814 70.0161 26.9967 70.5312 27.6323 70.5312C28.2678 70.5312 28.7831 70.0161 28.7831 69.3804L28.7831 63.8564C28.7831 63.2207 28.2678 62.7056 27.6323 62.7056Z" fill-rule="evenodd" fill="#1E243A"/>
	<path id="Path 150" d="M27.6323 75.4417C26.9967 75.4417 26.4814 75.9568 26.4814 76.5925L26.4814 82.1165C26.4814 82.7522 26.9967 83.2673 27.6323 83.2673C28.2678 83.2673 28.7831 82.7522 28.7831 82.1165L28.7831 76.5925C28.7831 75.9568 28.2678 75.4417 27.6323 75.4417Z" fill-rule="evenodd" fill="#1E243A"/>
	<path id="Path 151" d="M27.6323 88.178C26.9967 88.178 26.4814 88.6934 26.4814 89.3289L26.4814 94.853C26.4814 95.4885 26.9967 96.0039 27.6323 96.0039C28.2678 96.0039 28.7831 95.4885 28.7831 94.853L28.7831 89.3289C28.7831 88.6934 28.2678 88.178 27.6323 88.178Z" fill-rule="evenodd" fill="#1E243A"/>
	<path id="Path 152" d="M27.6323 100.914C26.9967 100.914 26.4814 101.429 26.4814 102.065L26.4814 107.589C26.4814 108.224 26.9967 108.74 27.6323 108.74C28.2678 108.74 28.7831 108.224 28.7831 107.589L28.7831 102.065C28.7831 101.429 28.2678 100.914 27.6323 100.914Z" fill-rule="evenodd" fill="#1E243A"/>
	<path id="Path 153" d="M30.3176 167.739L28.7831 167.739L28.7831 166.205C28.7831 165.569 28.2678 165.054 27.6323 165.054C26.9967 165.054 26.4814 165.569 26.4814 166.205L26.4814 168.89C26.4814 169.526 26.9967 170.041 27.6323 170.041L30.3176 170.041C30.9531 170.041 31.4685 169.526 31.4685 168.89C31.4685 168.255 30.9531 167.739 30.3176 167.739Z" fill-rule="evenodd" fill="#1E243A"/>
	<path id="Path 154" d="M52.7206 167.74L47.8103 167.74C47.1747 167.74 46.6594 168.255 46.6594 168.891C46.6594 169.526 47.1747 170.042 47.8103 170.042L52.7206 170.042C53.3561 170.042 53.8713 169.526 53.8713 168.891C53.8713 168.255 53.3561 167.74 52.7206 167.74Z" fill-rule="evenodd" fill="#1E243A"/>
	<path id="Path 155" d="M63.9224 167.74L59.012 167.74C58.3763 167.74 57.8611 168.255 57.8611 168.891C57.8611 169.526 58.3763 170.042 59.012 170.042L63.9224 170.042C64.5579 170.042 65.0731 169.526 65.0731 168.891C65.0731 168.255 64.5579 167.74 63.9224 167.74Z" fill-rule="evenodd" fill="#1E243A"/>
	<path id="Path 156" d="M41.519 167.74L36.6088 167.74C35.9731 167.74 35.4579 168.255 35.4579 168.891C35.4579 169.526 35.9731 170.042 36.6088 170.042L41.519 170.042C42.1545 170.042 42.6699 169.526 42.6699 168.891C42.6699 168.255 42.1545 167.74 41.519 167.74Z" fill-rule="evenodd" fill="#1E243A"/>
	<path id="Path 157" d="M75.1238 167.74L70.2135 167.74C69.5779 167.74 69.0626 168.255 69.0626 168.891C69.0626 169.526 69.5779 170.042 70.2135 170.042L75.1238 170.042C75.7593 170.042 76.2747 169.526 76.2747 168.891C76.2747 168.255 75.7593 167.74 75.1238 167.74Z" fill-rule="evenodd" fill="#1E243A"/>
	<path id="Path 158" d="M86.3252 167.74L81.415 167.74C80.7795 167.74 80.2642 168.255 80.2642 168.891C80.2642 169.526 80.7795 170.042 81.415 170.042L86.3252 170.042C86.9609 170.042 87.4762 169.526 87.4762 168.891C87.4762 168.255 86.9609 167.74 86.3252 167.74Z" fill-rule="evenodd" fill="#1E243A"/>
	<path id="Path 159" d="M95.2253 167.74L92.4634 167.74C91.8278 167.74 91.3125 168.255 91.3125 168.891C91.3125 169.526 91.8278 170.042 92.4634 170.042L95.2253 170.042C95.8608 170.042 96.3762 169.526 96.3762 168.891C96.3762 168.255 95.8608 167.74 95.2253 167.74Z" fill-rule="evenodd" fill="#1E243A"/>
	<defs>
		<linearGradient id="paint_linear_10_198_0" x1="170.030487" y1="89.328613" x2="170.030487" y2="153.162292" gradientUnits="userSpaceOnUse">
			<stop stop-color="#FFBA31"/>
			<stop offset="1.000000" stop-color="#E89750"/>
		</linearGradient>
		<linearGradient id="paint_linear_10_199_0" x1="47.088860" y1="1.174072" x2="47.088860" y2="21.901451" gradientUnits="userSpaceOnUse">
			<stop stop-color="#FFBA31"/>
			<stop offset="1.000000" stop-color="#E89750"/>
		</linearGradient>
		<linearGradient id="paint_linear_10_200_0" x1="68.973312" y1="1.152344" x2="68.973312" y2="71.172989" gradientUnits="userSpaceOnUse">
			<stop stop-color="#FFBA31"/>
			<stop offset="1.000000" stop-color="#E89750"/>
		</linearGradient>
		<linearGradient id="paint_linear_10_201_0" x1="170.049133" y1="45.804932" x2="170.049133" y2="83.380493" gradientUnits="userSpaceOnUse">
			<stop stop-color="#FFBA31"/>
			<stop offset="1.000000" stop-color="#E89750"/>
		</linearGradient>
		<linearGradient id="paint_linear_10_202_0" x1="131.868011" y1="136.513184" x2="131.868011" y2="144.837524" gradientUnits="userSpaceOnUse">
			<stop stop-color="#FFBA31"/>
			<stop offset="1.000000" stop-color="#E89750"/>
		</linearGradient>
		<linearGradient id="paint_linear_10_203_0" x1="208.315491" y1="136.513184" x2="208.315491" y2="144.837524" gradientUnits="userSpaceOnUse">
			<stop stop-color="#FFBA31"/>
			<stop offset="1.000000" stop-color="#E89750"/>
		</linearGradient>
	</defs>
</svg>
