<svg width="16.000000" height="13.229706" viewBox="0 0 16 13.2297" fill="none" xmlns="http://www.w3.org/2000/svg" xmlns:xlink="http://www.w3.org/1999/xlink">
	<desc>
			Created with Pixso.
	</desc>
	<path id="path5" d="M0.980835 5.76155C0.980835 5.76155 8.05725 2.85744 10.5117 1.83479C11.4524 1.42569 14.6429 0.116837 14.6429 0.116837C14.6429 0.116837 16.1155 -0.455933 15.9927 0.93486C15.9519 1.50745 15.6246 3.51178 15.2975 5.67979C14.8066 8.74757 14.2748 12.1017 14.2748 12.1017C14.2748 12.1017 14.193 13.0424 13.4976 13.2061C12.8022 13.3698 11.6569 12.6335 11.4524 12.4699C11.2887 12.3472 8.38464 10.5065 7.32104 9.60655C7.03479 9.36113 6.70752 8.87029 7.36206 8.29768C8.83459 6.94786 10.5935 5.27069 11.6569 4.20726C12.1477 3.71642 12.6385 2.57106 10.5935 3.96184C7.68921 5.966 4.82581 7.84763 4.82581 7.84763C4.82581 7.84763 4.17151 8.25673 2.94446 7.8886C1.71716 7.52046 0.285522 7.02962 0.285522 7.02962C0.285522 7.02962 -0.696167 6.41606 0.980835 5.76155Z" fill-rule="evenodd" fill="#3A3A3A"/>
	<defs/>
</svg>
