<svg width="16.000000" height="13.120865" viewBox="0 0 16 13.1209" fill="none" xmlns="http://www.w3.org/2000/svg" xmlns:xlink="http://www.w3.org/1999/xlink">
	<desc>
			Created with Pixso.
	</desc>
	<path id="Path 2" d="M15.9053 1.57265C15.399 1.80164 14.8243 1.94072 14.2783 2.0325C14.5376 1.98875 14.9109 1.51938 15.0637 1.32965C15.2968 1.04008 15.4863 0.710159 15.5951 0.353683C14.9857 0.680618 14.2625 0.84082 13.5914 1.00868C13.5359 1.02252 13.4944 1.00868 13.4592 0.973541C13.4037 0.910919 13.3512 0.851471 13.2921 0.802689C13.0103 0.562668 12.7074 0.374435 12.3661 0.235352C11.9182 0.0529175 11.4286 -0.0244751 10.9462 0.00674438C10.4766 0.0372162 10.0156 0.169556 9.59875 0.387329C9.1814 0.605484 8.80859 0.909058 8.51172 1.27505C8.20496 1.65378 7.97864 2.1011 7.86279 2.57497C7.75098 3.03258 7.76013 3.48514 7.82849 3.9476C5.20325 3.55692 2.96106 2.69423 1.19458 0.681366C1.11792 0.593704 1.07629 0.593704 1.01343 0.687912C0.240356 1.84651 0.615479 3.70833 1.58118 4.62299C1.70996 4.74504 1.84204 4.86693 1.98474 4.97833C1.93262 4.9888 1.29004 4.91927 0.717285 4.62299C0.640747 4.57457 0.602173 4.60242 0.595459 4.68953C0.588379 4.81458 0.598999 4.92955 0.616211 5.06563C0.764648 6.24011 1.57812 7.32655 2.69189 7.7505C2.8241 7.80603 2.97046 7.85481 3.11304 7.87912C2.85913 7.93481 2.5979 7.97446 1.87012 7.91762C1.77954 7.90024 1.74475 7.94548 1.77954 8.03239C2.32629 9.52316 3.50708 9.96675 4.39111 10.2197C4.5094 10.2402 4.62793 10.2402 4.74658 10.2681C4.45337 10.7152 3.41565 11.0689 2.94202 11.2345C2.08081 11.5355 1.14319 11.6708 0.233154 11.5811C0.0874023 11.5596 0.0568848 11.5613 0.0174561 11.5811C0.202148 11.7031 0.431763 11.9084 0.623291 12.0129C1.20129 12.3193 1.80396 12.563 2.43408 12.7372C5.68835 13.6358 9.35388 12.9756 11.7972 10.5479C13.7161 8.64142 14.3884 6.01244 14.3884 3.3799C14.3884 3.2769 14.5101 3.21988 14.5826 3.16568C15.0818 2.7905 15.5138 2.34169 15.8864 1.84033C15.9698 1.72781 15.9053 1.61377 15.9053 1.57265Z" fill-rule="evenodd" fill="#3A3A3A"/>
	<defs/>
</svg>
